<svg xmlns="http://www.w3.org/2000/svg" xmlns:xlink="http://www.w3.org/1999/xlink" version="1.1" x="0px" y="0px" enable-background="new 0 0 100 100" xml:space="preserve" viewBox="3.12 36.49 94.85 28.5"><path d="M67.507,42.912l0.03,0.161c0.002,0.01,0.012,0.015,0.016,0.025c0.002,0.008-0.003,0.017,0.001,0.024l0.071,0.147  c0.006,0.011,0.016,0.016,0.023,0.025c0.004,0.006,0.001,0.014,0.006,0.019l0.107,0.124c0.006,0.007,0.016,0.005,0.023,0.011  c0.007,0.006,0.007,0.018,0.016,0.023l0.135,0.092c0.01,0.006,0.021,0.005,0.031,0.01c0.006,0.003,0.008,0.011,0.016,0.014  l0.154,0.054c0.015,0.005,0.03,0.006,0.045,0.008c0.003,0,0.004,0.003,0.006,0.003l0.164,0.012c0.005,0,0.01,0,0.014,0  c0.013,0,0.025-0.001,0.037-0.003l0.161-0.03c0.005-0.001,0.007-0.007,0.013-0.008c0.013-0.003,0.025-0.003,0.037-0.009l0.148-0.072  c0.008-0.004,0.008-0.014,0.016-0.018c0.009-0.005,0.02-0.003,0.027-0.01l0.123-0.107c0.01-0.007,0.008-0.02,0.015-0.028  c0.005-0.007,0.016-0.004,0.021-0.011l0.092-0.135c0.004-0.007,0.001-0.015,0.004-0.021c0.006-0.01,0.016-0.015,0.02-0.025  l0.054-0.155c0.003-0.009-0.003-0.017-0.001-0.026c0.002-0.01,0.011-0.015,0.012-0.025l0.012-0.163c0-0.01-0.008-0.017-0.009-0.026  c-0.001-0.009,0.007-0.016,0.005-0.025l-0.03-0.161c-0.002-0.009-0.012-0.014-0.015-0.023c-0.003-0.009,0.003-0.018-0.002-0.026  l-0.07-0.147c-0.005-0.009-0.016-0.01-0.021-0.018c-0.005-0.008-0.003-0.019-0.009-0.026l-0.107-0.124  c-0.006-0.007-0.018-0.006-0.024-0.012c-0.007-0.007-0.007-0.017-0.015-0.022l-0.136-0.092c-0.008-0.005-0.018-0.001-0.025-0.005  c-0.009-0.004-0.011-0.015-0.021-0.018l-0.154-0.054c-0.01-0.003-0.018,0.003-0.027,0.002c-0.009-0.002-0.014-0.012-0.023-0.012  l-0.163-0.012c-0.011,0-0.017,0.008-0.026,0.009c-0.01,0-0.017-0.007-0.026-0.006l-0.161,0.031c-0.01,0.002-0.014,0.012-0.022,0.015  s-0.019-0.002-0.027,0.001l-0.147,0.071c-0.008,0.004-0.01,0.015-0.018,0.021c-0.008,0.005-0.018,0.002-0.025,0.008l-0.124,0.107  c-0.007,0.006-0.006,0.017-0.013,0.024c-0.006,0.007-0.017,0.007-0.021,0.015l-0.092,0.135c-0.006,0.008-0.002,0.019-0.006,0.027  s-0.015,0.011-0.018,0.02l-0.055,0.155c-0.002,0.008,0.004,0.016,0.002,0.024c-0.002,0.01-0.012,0.016-0.012,0.027l-0.012,0.163  c-0.001,0.01,0.008,0.017,0.008,0.026C67.513,42.896,67.505,42.903,67.507,42.912z M67.912,42.751l0.037-0.104l0.062-0.092  l0.084-0.073l0.102-0.049l0.108-0.021l0.108,0.008l0.107,0.038l0.091,0.061l0.072,0.085l0.049,0.1l0.021,0.107l-0.008,0.113  l-0.036,0.104l-0.062,0.092l-0.084,0.073l-0.098,0.048l-0.111,0.021l-0.111-0.008l-0.104-0.036l-0.092-0.062l-0.073-0.084  l-0.048-0.1l-0.021-0.107L67.912,42.751z"/><path d="M3.316,44.099h1.559v0.478c0,0.11,0.09,0.2,0.2,0.2h22.818v0.02c0,0.11,0.09,0.2,0.2,0.2h0.284h15.535l0.204,0.029  l0.214,0.044l0.206,0.056l0.207,0.071l0.198,0.082l0.202,0.098l0.184,0.104l0.174,0.113l0.184,0.137l0.16,0.135l0.155,0.149  l0.152,0.165c0.007,0.007,0.018,0.005,0.026,0.011c0.008,0.007,0.008,0.019,0.018,0.024l0.186,0.113  c0.004,0.003,0.01,0.002,0.014,0.004c0.003,0.002,0.003,0.006,0.007,0.007l0.198,0.089c0.005,0.002,0.011,0.002,0.016,0.003  c0.003,0.001,0.003,0.004,0.006,0.005l0.208,0.065c0.006,0.002,0.013,0.001,0.019,0.003c0.002,0,0.002,0.002,0.004,0.003l0.214,0.04  c0.007,0.001,0.015,0.001,0.022,0.002c0.001,0,0.001,0.001,0.002,0.001l0.217,0.014c0.004,0,0.009,0,0.013,0s0.008,0,0.012,0  l0.217-0.013c0,0,0.001-0.001,0.002-0.001c0.007,0,0.014,0,0.021-0.002l0.214-0.038c0.002,0,0.002-0.002,0.004-0.003  c0.006-0.001,0.013-0.001,0.02-0.003l0.208-0.064c0.002-0.001,0.003-0.004,0.005-0.005c0.006-0.002,0.012-0.001,0.017-0.003  l0.198-0.088c0.003-0.001,0.003-0.005,0.007-0.007c0.004-0.003,0.01-0.001,0.015-0.004l0.187-0.112  c0.003-0.002,0.003-0.007,0.006-0.009c0.004-0.003,0.009-0.001,0.013-0.004l0.172-0.133c0.004-0.003,0.003-0.008,0.006-0.011  s0.008-0.001,0.012-0.005l0.096-0.095h5.454l-0.091,1.222l-0.227,1.417l-0.346,1.391l-0.465,1.354l-0.58,1.315l-0.688,1.256  l-0.792,1.192l-0.895,1.126l-0.984,1.04l-1.07,0.953l-1.147,0.858L45.7,59.85c-0.023,0.015-0.028,0.04-0.043,0.061  c-0.016,0.021-0.04,0.038-0.045,0.063c-0.006,0.025,0.007,0.05,0.012,0.077c0.004,0.024-0.003,0.05,0.011,0.072l0.001,0.002  l2.865,4.766c0.001,0.004,0.006,0.002,0.008,0.005c0.002,0.004,0,0.009,0.003,0.012c0.039,0.053,0.1,0.081,0.161,0.081  c0.035,0,0.071-0.01,0.103-0.029c0.003-0.001,0.002-0.005,0.005-0.007c0.003-0.002,0.007-0.001,0.011-0.003l1.534-1.137  c0.002-0.002,0.001-0.005,0.003-0.006c0.002-0.002,0.005-0.002,0.008-0.004l1.449-1.242c0.002-0.002,0.002-0.005,0.004-0.007  s0.005-0.001,0.007-0.003l1.358-1.342c0.002-0.002,0-0.005,0.002-0.007s0.006-0.001,0.008-0.003l1.26-1.435  c0.002-0.002,0-0.005,0.002-0.008c0.002-0.002,0.005-0.001,0.006-0.003l1.156-1.52c0.002-0.003,0-0.006,0.002-0.009  c0.001-0.002,0.004-0.001,0.006-0.003l1.045-1.598c0.002-0.003,0-0.007,0.002-0.01c0.001-0.002,0.004-0.001,0.006-0.003l0.929-1.667  c0.001-0.002-0.001-0.004,0.001-0.006c0.001-0.003,0.004-0.004,0.006-0.007l0.809-1.729c0.001-0.002,0-0.004,0-0.007  c0.002-0.003,0.004-0.004,0.006-0.007l0.685-1.781c0.001-0.002-0.001-0.004,0-0.007s0.004-0.004,0.005-0.007l0.557-1.826  c0.001-0.002-0.002-0.004,0-0.007c0-0.002,0.003-0.004,0.004-0.006l0.418-1.824l0.01,0.021c0.003,0.005,0.009,0.007,0.012,0.012  c0.002,0.003,0,0.007,0.002,0.011l0.045,0.066c0.002,0.003,0.008,0.002,0.01,0.005c0.004,0.005,0.002,0.011,0.006,0.015l0.053,0.061  c0.003,0.003,0.009,0.002,0.012,0.005c0.004,0.004,0.003,0.01,0.007,0.013l0.06,0.053c0.004,0.003,0.01,0.002,0.014,0.005  c0.004,0.002,0.004,0.008,0.008,0.01l0.066,0.045c0.005,0.003,0.011,0.002,0.016,0.005c0.004,0.002,0.004,0.007,0.008,0.009  l0.072,0.035c0.005,0.002,0.011,0.002,0.016,0.004c0.004,0.001,0.004,0.005,0.008,0.006l0.076,0.026  c0.006,0.002,0.014,0.002,0.02,0.003c0.002,0,0.003,0.003,0.006,0.003l0.078,0.016c0.008,0.001,0.016,0.002,0.023,0.002  c0.001,0,0.002,0.001,0.002,0.001l0.08,0.005c0.005,0,0.01,0,0.014,0h0.403l-0.001,0.004c0,0.005,0.006,0.009,0.006,0.014  c0,0.006-0.006,0.009-0.005,0.015l0.02,0.214c0.001,0.006,0.007,0.009,0.007,0.015c0.001,0.005-0.004,0.009-0.002,0.015l0.051,0.209  c0.002,0.005,0.008,0.008,0.01,0.014c0.001,0.005-0.002,0.009,0,0.014l0.08,0.199c0.002,0.006,0.009,0.009,0.012,0.014  c0.002,0.003-0.001,0.008,0.002,0.012l0.108,0.186c0.003,0.004,0.009,0.002,0.011,0.006c0.004,0.005,0.002,0.013,0.006,0.018  l0.134,0.168c0.003,0.004,0.01,0.002,0.013,0.006c0.004,0.004,0.003,0.011,0.008,0.015l0.157,0.146  c0.005,0.004,0.011,0.002,0.015,0.006s0.004,0.009,0.008,0.012l0.178,0.122c0.005,0.003,0.011,0.002,0.016,0.005  c0.004,0.002,0.005,0.008,0.01,0.01l0.192,0.095c0.007,0.003,0.013,0.002,0.02,0.004c0.003,0.001,0.004,0.005,0.007,0.006  l0.205,0.066c0.008,0.002,0.016,0.002,0.023,0.003c0.002,0.001,0.003,0.003,0.005,0.003l0.212,0.036  c0.01,0.002,0.02,0.002,0.029,0.002v0l0.216,0.004c0.001,0,0.003,0,0.004,0h3.059c0.003,0,0.007,0,0.011,0l0.191-0.01  c0,0,0,0,0.002-0.001c0.009,0,0.019-0.001,0.028-0.003l0.187-0.04c0.004,0,0.004-0.004,0.008-0.005  c0.007-0.002,0.014-0.001,0.021-0.004l0.18-0.067c0.004-0.001,0.004-0.006,0.008-0.008c0.007-0.003,0.014-0.002,0.021-0.005  l0.166-0.095c0.005-0.002,0.005-0.008,0.009-0.011c0.005-0.003,0.012-0.002,0.016-0.006L67,49.457  c0.005-0.004,0.004-0.011,0.008-0.015s0.011-0.002,0.015-0.006l0.13-0.14c0.004-0.005,0.002-0.012,0.006-0.017  c0.004-0.004,0.011-0.003,0.014-0.007l0.106-0.159c0.003-0.003,0-0.008,0.003-0.012c0.003-0.005,0.01-0.008,0.012-0.014l0.082-0.173  c0.002-0.004-0.002-0.009,0-0.014c0.002-0.006,0.008-0.009,0.01-0.015l0.055-0.184c0.001-0.005-0.004-0.01-0.002-0.016  c0.001-0.006,0.007-0.009,0.008-0.015l0.024-0.19c0.001-0.006-0.005-0.01-0.005-0.016c0.001-0.005,0.006-0.009,0.006-0.015  l-0.004-0.143l0.135,0.025l0.191,0.053l0.184,0.067l0.173,0.079l0.178,0.099l0.155,0.104l0.157,0.125l0.14,0.131l0.136,0.147  l0.115,0.149l0.112,0.172c0.001,0.001,0.003,0,0.004,0.001c0.001,0.002,0,0.004,0.001,0.005l3.626,5.093l-0.002,0.963  c0,0.021,0.018,0.036,0.023,0.057c0.009,0.024,0.012,0.048,0.029,0.068c0.017,0.02,0.039,0.027,0.062,0.039  c0.019,0.01,0.03,0.029,0.052,0.033l0.407,0.068c0.008,0.002,0.016,0.002,0.022,0.002l0.001,0.001l0.413,0.022  c0.003,0,0.007,0,0.011,0s0.008,0,0.013,0l0.413-0.026c0.001,0,0.001-0.001,0.002-0.001c0.007,0,0.014,0,0.021-0.002l0.406-0.073  c0.002,0,0.002-0.002,0.004-0.003c0.006-0.001,0.012,0,0.019-0.002l0.396-0.121c0.003,0,0.004-0.003,0.006-0.004  c0.006-0.002,0.011-0.001,0.016-0.004l0.38-0.164c0.003-0.002,0.003-0.006,0.007-0.008s0.01-0.001,0.014-0.004l0.357-0.207  c0.004-0.002,0.004-0.006,0.007-0.008c0.004-0.003,0.009-0.002,0.013-0.005l0.332-0.247c0.004-0.003,0.003-0.008,0.006-0.011  c0.004-0.003,0.009-0.002,0.012-0.005l0.301-0.283c0.004-0.004,0.002-0.01,0.006-0.013c0.002-0.003,0.008-0.002,0.01-0.005  l0.266-0.316c0.004-0.004,0.002-0.01,0.005-0.014c0.002-0.004,0.007-0.002,0.009-0.006l0.228-0.345c0.002-0.003,0-0.007,0.002-0.009  c0.003-0.005,0.007-0.007,0.01-0.012l0.187-0.369c0.004-0.009-0.002-0.019,0.002-0.027c0.008-0.025,0.006-0.047,0.005-0.073  s-0.003-0.049-0.015-0.073c-0.004-0.009,0-0.019-0.005-0.027l-3.582-5.382c0,0-0.001,0-0.001,0s0,0,0-0.001l-0.139-0.205  l-0.09-0.208l-0.051-0.225l-0.007-0.225l0.036-0.229l0.076-0.212l0.117-0.198l0.15-0.169l0.181-0.141l0.202-0.103l0.221-0.064  l0.234-0.022h0.082l23.045,7.402c0.021,0.006,0.041,0.01,0.062,0.01c0.049,0,0.092-0.021,0.128-0.054  c0.012-0.011,0.018-0.022,0.026-0.036c0.013-0.017,0.029-0.029,0.036-0.05c0.004-0.011-0.004-0.021-0.002-0.031  s0.012-0.019,0.012-0.03V42.544c0-0.024-0.018-0.041-0.025-0.062c-0.011-0.027-0.013-0.058-0.033-0.079  c-0.02-0.02-0.051-0.022-0.077-0.032c-0.022-0.009-0.038-0.026-0.063-0.027l-15.522-0.091h-0.001l0,0l-0.173-0.006  c-0.003-0.001-0.006,0.003-0.009,0.003s-0.004-0.003-0.008-0.003l-0.18,0.008c-0.002,0-0.004,0.003-0.008,0.003  c-0.002,0-0.005-0.002-0.008-0.002l-0.178,0.023c-0.004,0-0.005,0.003-0.008,0.004c-0.003,0-0.006-0.002-0.009-0.002l-0.176,0.037  c-0.003,0.001-0.005,0.004-0.008,0.005c-0.003,0-0.005-0.002-0.009-0.001l-0.172,0.052c-0.003,0.001-0.004,0.004-0.007,0.005  s-0.006-0.001-0.009,0l-0.168,0.066c-0.002,0.001-0.003,0.004-0.006,0.006c-0.002,0.001-0.006-0.001-0.008,0l-0.162,0.079  c-0.003,0.001-0.003,0.005-0.006,0.007c-0.002,0.001-0.006,0-0.008,0.001l-0.118,0.07l-0.339,0.04l-0.37,0.03l-0.374,0.018v0  l-0.384,0.004h-0.001l-0.367-0.009l0,0L78.59,42.67l-0.379-0.036c0,0,0,0-0.001,0l-0.368-0.048l-0.377-0.062l-0.363-0.074  l-0.364-0.087c-0.001,0-0.001,0-0.001,0l-0.369-0.102l0,0l-0.132-0.039l-0.136-0.04v0l-0.135-0.039c-0.001,0-0.001,0-0.002,0  l-0.135-0.039h-0.001l-0.136-0.038l0,0v0l-0.137-0.038L75.42,41.99h-0.001l-0.136-0.037c0,0,0,0-0.001,0c0,0,0,0-0.001,0  l-0.136-0.036L75.01,41.88l-0.137-0.036c0,0,0,0,0,0c0,0,0,0-0.001,0l-0.045-0.012l-1.101-2.377v0l-0.44-0.97  c-0.001,0-0.001-0.001-0.001-0.001c0-0.001,0-0.002,0-0.002l-0.029-0.062c-0.002-0.002-0.004-0.002-0.006-0.004  c0-0.002,0.001-0.004,0-0.006l-0.033-0.06c0-0.001-0.002-0.001-0.004-0.003c0-0.002,0-0.004,0-0.006l-0.035-0.057  c-0.002-0.002-0.004-0.001-0.006-0.003c-0.001-0.002,0-0.004-0.001-0.006l-0.037-0.053c-0.001-0.002-0.005-0.001-0.006-0.004  c-0.001-0.002-0.001-0.004-0.002-0.006l-0.038-0.048c-0.002-0.002-0.004-0.001-0.006-0.003c-0.002-0.002,0-0.005-0.002-0.007  l-0.039-0.043c-0.003-0.002-0.006-0.001-0.009-0.004s-0.001-0.006-0.004-0.008l-0.039-0.036c-0.003-0.002-0.007-0.001-0.01-0.003  s-0.002-0.006-0.005-0.009l-0.039-0.029c-0.003-0.003-0.008,0-0.012-0.002c-0.003-0.003-0.003-0.008-0.007-0.01l-0.037-0.022  c-0.005-0.003-0.011,0.001-0.015-0.002c-0.006-0.003-0.007-0.009-0.013-0.012l-0.035-0.014c-0.007-0.003-0.014,0.002-0.021,0  c-0.008-0.002-0.012-0.01-0.02-0.012l-0.032-0.006c-0.009-0.002-0.015,0.006-0.023,0.006c-0.009-0.001-0.016-0.009-0.024-0.009  l-0.022,0.001H43.928h-15.55h-0.284c-0.11,0-0.2,0.09-0.2,0.2v0.697v0.137h-8.955c-0.076,0-0.13,0.05-0.164,0.113  c-0.005,0.003-0.007,0.011-0.012,0.015c-0.021,0.017-0.033,0.035-0.046,0.058c-0.009,0.015-0.026,0.022-0.031,0.039l-0.103,0.355  l-0.135,0.331l-0.169,0.315l-0.203,0.299l-0.23,0.273l-0.258,0.249l-0.282,0.22l-0.31,0.193l-0.317,0.154l-0.341,0.124l-0.342,0.085  l-0.128,0.018h-0.219c-0.085,0-0.144,0.06-0.173,0.135h-5.424c-0.014-0.036-0.028-0.065-0.059-0.087L8.07,37.299v-0.608  c0-0.11-0.09-0.2-0.2-0.2H5.075c-0.11,0-0.2,0.09-0.2,0.2v5.258H3.316c-0.11,0-0.2,0.09-0.2,0.2v1.75  C3.116,44.009,3.206,44.099,3.316,44.099z M74.886,42.262l0.021,0.005l0.137,0.036l0.137,0.036l0,0l0.133,0.037l0,0l0.137,0.038  l0.135,0.038c0.001,0,0.002,0,0.002,0l0.132,0.037c0.001,0,0.001,0,0.001,0l0.134,0.038c0,0,0,0,0.001,0l0.135,0.039  c0.001,0,0.002,0,0.002,0l0.133,0.039l0.135,0.04c0,0,0.002,0,0.002,0c0,0,0,0,0.001,0l0.37,0.102c0.002,0,0.004,0,0.006,0.001v0  l0.373,0.089c0.002,0,0.004,0,0.006,0.001c0.001,0,0.001,0,0.002,0l0.375,0.076c0.002,0,0.004,0,0.006,0  c0,0,0.001,0.001,0.002,0.001l0.378,0.063c0.002,0,0.004,0,0.006,0c0.001,0,0.001,0,0.001,0l0.381,0.049c0.002,0,0.004,0,0.006,0v0  l0.383,0.036c0.002,0,0.004,0,0.006,0v0l0.383,0.023c0.005,0,0.009,0,0.013,0c0.001,0,0.001,0,0.001,0l0.377,0.009  c0.002,0,0.004,0,0.006,0c0,0,0.001,0,0.002,0l0.383-0.004h0.001c0.002,0,0.004,0,0.007,0l0.373-0.017c0.002,0,0.004,0,0.005,0  h0.005c0.002,0,0.005,0,0.007,0l0.382-0.031c0.003,0,0.005,0,0.008,0l0.381-0.044c0.007-0.001,0.01-0.008,0.018-0.01  c0.021-0.004,0.042-0.005,0.061-0.017l0.146-0.087l0.149-0.073l0.151-0.06l0.153-0.046l0.167-0.035l0.157-0.021l0.165-0.008  l0.171,0.006c0.001,0,0.004,0,0.006,0l15.323,0.09V52.9l-22.675-7.283V42.262z M59.683,47.614l-0.423,1.843l-0.553,1.816  l-0.679,1.764l-0.805,1.721l-0.921,1.653l-1.038,1.587l-1.146,1.508l-1.251,1.425l-1.346,1.329l-1.442,1.236l-1.35,1l-2.651-4.41  l1.064-0.662c0.002-0.002,0.002-0.006,0.005-0.007c0.003-0.002,0.006-0.001,0.009-0.003l1.162-0.869  c0.002-0.002,0.002-0.006,0.004-0.008s0.006-0.001,0.009-0.004l1.083-0.965c0.002-0.002,0.001-0.006,0.004-0.008  s0.006-0.002,0.009-0.004l0.997-1.054c0.002-0.003,0.001-0.007,0.003-0.009c0.002-0.002,0.006-0.002,0.008-0.004l0.903-1.136  c0.002-0.003,0-0.007,0.003-0.01c0.001-0.003,0.005-0.001,0.007-0.004l0.803-1.208c0.002-0.004,0-0.008,0.002-0.011  s0.006-0.001,0.007-0.004l0.696-1.272c0.002-0.002,0-0.005,0.002-0.008c0.001-0.003,0.005-0.004,0.006-0.008l0.586-1.327  c0.001-0.003-0.001-0.005,0-0.008c0.002-0.003,0.005-0.005,0.006-0.008l0.471-1.373c0-0.003-0.002-0.005-0.001-0.008  c0.001-0.003,0.005-0.005,0.005-0.008l0.352-1.408c0-0.003-0.002-0.005-0.002-0.008c0.001-0.003,0.004-0.005,0.005-0.008  l0.229-1.433c0-0.003-0.002-0.006-0.002-0.009s0.004-0.005,0.004-0.008l0.093-1.261h5.331L59.683,47.614z M61.201,47.77h-0.408  l-0.06-0.004l-0.054-0.011l-0.052-0.018l-0.048-0.024l-0.043-0.029l-0.042-0.036l-0.036-0.042l-0.03-0.044l-0.022-0.046  l-0.018-0.053l-0.012-0.053l-0.003-0.058v-1.389h0.827V47.77z M66.843,48.561l-0.034,0.12l-0.055,0.117l-0.072,0.106l-0.087,0.094  l-0.1,0.078l-0.109,0.062l-0.122,0.046l-0.123,0.026l-0.145,0.007H62.95l-0.185-0.003l-0.15-0.025l-0.148-0.048l-0.139-0.068  L62.2,48.985l-0.116-0.107L61.99,48.76l-0.078-0.133l-0.059-0.145l-0.037-0.151l-0.014-0.156l0.01-0.189  c0-0.002-0.002-0.003-0.002-0.005s0.002-0.003,0.002-0.005v-1.801h2.629l0.273,0.087l0.256,0.153l0.216,0.208l0.16,0.247  l0.101,0.282l0.034,0.295l-0.034,0.295l-0.1,0.281l-0.162,0.249l-0.215,0.208l-0.256,0.153l-0.304,0.097  c-0.024,0.008-0.036,0.031-0.056,0.047c-0.02,0.017-0.045,0.026-0.058,0.048c-0.013,0.023-0.007,0.051-0.011,0.078  c-0.002,0.023-0.015,0.045-0.008,0.069c0,0.002,0.002,0.002,0.002,0.004c0.001,0.002,0,0.003,0,0.004  c0.009,0.028,0.029,0.046,0.048,0.067c0.009,0.01,0.013,0.024,0.024,0.033c0.033,0.025,0.074,0.04,0.118,0.04  c0.017,0,0.034-0.002,0.052-0.007l0.254-0.068c0.002-0.001,0.003-0.004,0.006-0.005c0.006-0.002,0.014-0.001,0.02-0.004l0.241-0.103  c0.004-0.001,0.005-0.006,0.008-0.008c0.005-0.003,0.011-0.002,0.017-0.005l0.225-0.135c0.004-0.002,0.004-0.008,0.008-0.011  c0.005-0.003,0.011-0.002,0.016-0.005l0.203-0.165c0.004-0.003,0.004-0.009,0.007-0.013c0.004-0.003,0.01-0.002,0.013-0.005  l0.18-0.191c0.004-0.004,0.002-0.011,0.006-0.016c0.002-0.003,0.008-0.002,0.012-0.006l0.15-0.214c0.002-0.003,0-0.007,0.002-0.011  c0.004-0.005,0.01-0.007,0.013-0.013l0.119-0.233c0.002-0.004-0.001-0.008,0.001-0.012c0.002-0.005,0.008-0.008,0.01-0.013  l0.086-0.248c0.002-0.005-0.002-0.009,0-0.014c0.001-0.005,0.007-0.008,0.008-0.013l0.051-0.256  c0.001-0.005-0.004-0.009-0.003-0.014c0.001-0.005,0.006-0.008,0.007-0.013l0.015-0.262c0.001-0.005-0.005-0.009-0.005-0.014  s0.005-0.009,0.004-0.014l-0.021-0.261c0-0.005-0.005-0.008-0.006-0.013c0-0.005,0.004-0.009,0.002-0.014l-0.022-0.103l0.675-0.339  v1.795c0,0.007,0.007,0.011,0.008,0.018c0,0.007-0.006,0.012-0.004,0.018l0.031,0.177l0.004,0.125L66.843,48.561z M65.775,46.815  l0.007,0.083l-0.065-0.184c-0.004-0.008-0.013-0.01-0.017-0.018c-0.004-0.007,0-0.016-0.005-0.023l-0.186-0.289  c-0.005-0.007-0.015-0.007-0.02-0.013c-0.006-0.007-0.004-0.017-0.01-0.022L65.3,46.175h0.876l-0.35,0.175  c-0.018,0.009-0.021,0.028-0.035,0.041c-0.02,0.018-0.037,0.032-0.049,0.055c-0.011,0.024-0.011,0.046-0.012,0.073  c-0.002,0.019-0.014,0.034-0.01,0.053L65.775,46.815z M68.729,48.417c-0.003-0.002-0.006,0-0.01-0.002  c-0.002-0.001-0.002-0.005-0.004-0.007l-0.176-0.118c-0.002-0.002-0.005,0-0.008-0.001c-0.002-0.002-0.002-0.006-0.006-0.007  l-0.184-0.103c-0.004-0.001-0.006,0-0.01-0.001c-0.002-0.001-0.002-0.004-0.005-0.006l-0.192-0.088c-0.002-0.001-0.006,0-0.008,0  c-0.003-0.001-0.004-0.005-0.007-0.006l-0.198-0.072c-0.004-0.001-0.006,0.001-0.009,0c-0.003,0-0.004-0.004-0.007-0.005  l-0.203-0.056c-0.004,0-0.006,0.001-0.01,0.001c-0.002,0-0.004-0.004-0.006-0.004l-0.208-0.04c-0.003,0-0.005,0.002-0.009,0.001  c-0.003,0-0.004-0.003-0.008-0.004l-0.031-0.003v-1.541l1.459,2.192L68.729,48.417z M76.484,53.491l-0.043,0.088l-0.195,0.296  l-0.229,0.273l-0.259,0.245l-0.286,0.214l-0.305,0.176l-0.33,0.144l-0.341,0.104l-0.349,0.063l-0.358,0.022l-0.32-0.017V54.4  c0-0.021-0.017-0.037-0.023-0.057c-0.006-0.02-0.001-0.041-0.014-0.06l-3.714-5.218l-1.834-2.756h3.821L76.484,53.491z   M73.475,45.987c-0.006,0.004-0.005,0.013-0.01,0.018c-0.005,0.004-0.013,0.003-0.018,0.008l-0.176,0.199  c-0.005,0.005-0.002,0.013-0.006,0.019c-0.005,0.005-0.013,0.005-0.017,0.012l-0.136,0.229c-0.003,0.006,0,0.013-0.002,0.02  c-0.003,0.006-0.011,0.007-0.014,0.014l-0.09,0.25c-0.002,0.007,0.002,0.013,0.001,0.02c-0.002,0.007-0.01,0.01-0.011,0.017  l-0.041,0.262c-0.002,0.007,0.005,0.013,0.004,0.02c0,0.007-0.006,0.011-0.006,0.018l0.008,0.266c0,0.007,0.007,0.011,0.008,0.018  c0.001,0.007-0.005,0.013-0.004,0.02l0.03,0.135L71.979,46c-0.004-0.006-0.012-0.006-0.018-0.011  c-0.007-0.009-0.012-0.017-0.021-0.025h1.565L73.475,45.987z M74.485,45.563h-7.253H61.4h-1.227h-5.751h-5.551v-1.882h5.7  c0.01,0,0.02-0.001,0.029-0.002l0.18-0.027c0.002,0,0.002-0.002,0.004-0.002c0.007-0.001,0.014-0.001,0.021-0.003l0.175-0.049  c0.002,0,0.004-0.004,0.006-0.004c0.006-0.002,0.012-0.001,0.018-0.004l0.168-0.071c0.003-0.001,0.004-0.005,0.006-0.007  c0.006-0.002,0.012-0.001,0.016-0.004l0.156-0.091c0.004-0.002,0.004-0.008,0.008-0.01c0.004-0.003,0.01-0.002,0.014-0.005  l0.144-0.111c0.004-0.003,0.003-0.008,0.007-0.011c0.004-0.003,0.009-0.002,0.012-0.005l0.129-0.128  c0.004-0.003,0.002-0.009,0.006-0.013c0.002-0.003,0.008-0.002,0.011-0.005l0.111-0.143c0.003-0.005,0.001-0.011,0.005-0.016  c0.002-0.003,0.008-0.002,0.01-0.006l0.092-0.156c0.002-0.003,0-0.007,0.002-0.011c0.002-0.005,0.008-0.007,0.01-0.012l0.072-0.167  c0.001-0.004-0.002-0.008,0-0.012c0.002-0.005,0.006-0.007,0.008-0.012l0.05-0.175c0.001-0.004-0.003-0.008-0.001-0.012  c0-0.004,0.006-0.007,0.006-0.012l0.028-0.179c0.001-0.004-0.003-0.007-0.003-0.012h3.312l8.211,1.951l0.271,0.083  c0.012,0.004,0.025,0.004,0.037,0.006c0.002,0,0.003,0.002,0.004,0.002l0.283,0.024c0.006,0,0.012,0.001,0.017,0.001  c0.001,0,0.001,0,0.001,0c0.008,0,0.016,0,0.025-0.002l0.281-0.036c0.002,0,0.004-0.003,0.006-0.003  c0.012-0.002,0.023-0.002,0.035-0.006l0.268-0.095c0.006-0.002,0.007-0.009,0.012-0.011c0.009-0.004,0.019-0.002,0.026-0.007  l0.241-0.149c0.007-0.004,0.007-0.013,0.014-0.017c0.006-0.005,0.015-0.003,0.021-0.009l0.204-0.197  c0.008-0.006,0.006-0.017,0.011-0.024c0.005-0.005,0.013-0.003,0.017-0.009l0.158-0.236c0.004-0.005,0.001-0.011,0.004-0.017  c0.004-0.008,0.014-0.012,0.017-0.021l0.104-0.264c0.004-0.007-0.002-0.014,0-0.021c0.002-0.008,0.01-0.012,0.012-0.02l0.047-0.28  c0.002-0.008-0.006-0.014-0.005-0.022s0.008-0.013,0.007-0.021l-0.014-0.284c0-0.009-0.008-0.013-0.009-0.021  c-0.001-0.007,0.005-0.013,0.003-0.021l-0.073-0.274c0,0-0.001,0-0.001-0.001h4.87V45.563z M50.622,41.39  c0.01,0.023,0.009,0.049,0.027,0.068l0.103,0.104c0.002,0.002,0.005,0.001,0.007,0.003c0.002,0.001,0.001,0.004,0.003,0.006  l0.109,0.097c0.002,0.002,0.005,0.001,0.007,0.003c0.002,0.001,0.001,0.004,0.003,0.006l0.116,0.089  c0.003,0.002,0.005,0.001,0.008,0.002c0.002,0.002,0.002,0.004,0.004,0.006l0.122,0.081c0.002,0.001,0.004,0,0.007,0.002  c0.001,0.001,0.001,0.003,0.003,0.004l0.127,0.073c0.004,0.002,0.007,0.001,0.01,0.002c0.002,0.001,0.002,0.003,0.004,0.004  l0.131,0.063c0.004,0.001,0.006,0,0.01,0.002c0.001,0,0.002,0.003,0.003,0.003l0.136,0.054c0.003,0.001,0.006,0,0.01,0.001  c0.001,0.001,0.002,0.003,0.003,0.003l0.139,0.045c0.004,0.001,0.007,0,0.011,0.001c0.002,0,0.002,0.002,0.004,0.002l0.141,0.035  c0.004,0.001,0.008,0.001,0.012,0.001c0,0,0.001,0.001,0.002,0.001l0.144,0.025c0.004,0.001,0.009,0,0.013,0.001c0,0,0,0,0.001,0  l0.146,0.015c0.004,0.001,0.009,0.001,0.014,0.001l0,0c0.002,0,0.005,0,0.008,0v0l0.139,0.005c0.002,0,0.004,0,0.006,0h3.318  l-0.019,0.118l-0.042,0.148l-0.062,0.145l-0.078,0.134l-0.097,0.123l-0.11,0.11l-0.12,0.093l-0.138,0.08l-0.145,0.062l-0.148,0.042  l-0.15,0.022h-5.687v-1.873v-0.577h1.72v0.486C50.592,41.345,50.611,41.365,50.622,41.39z M50.99,40.431l0.014-0.11l0.038-0.135  l0.062-0.134l0.077-0.117l0.099-0.107l0.111-0.09l0.125-0.072l0.136-0.053l0.138-0.031l0.145-0.009l0.158,0.015  c0.007,0,0.014,0.001,0.02,0.001h5.521c0.002,0,0.004,0,0.006,0l0.154-0.005l0.139,0.016l0.137,0.036l0.127,0.054l0.121,0.075  l0.105,0.089l0.094,0.104l0.076,0.118l0.059,0.126l0.039,0.133l0.013,0.097H50.99z M58.904,40.831c0.001,0,0.002,0,0.002,0h0.299  v0.971h-3.327H52.35v0l-0.132-0.005l-0.132-0.014l-0.127-0.022L51.83,41.73l-0.131-0.043l-0.12-0.047l-0.117-0.056l-0.118-0.068  l-0.107-0.071l-0.104-0.081l-0.096-0.085l-0.044-0.045v-0.403H58.904z M44.128,38.339h28.553c0.005,0,0.008-0.005,0.013-0.005  c0.004,0.002,0.006,0.007,0.01,0.009c0.001,0,0.002,0,0.004,0.001c0.002,0.001,0.003,0.006,0.006,0.007c0.001,0,0.002,0,0.004,0.001  c0,0.001,0,0.002,0.001,0.003l0.013,0.011H44.128V38.339z M44.128,38.836v-0.069h28.847l0.389,0.854c0,0,0,0,0,0s0,0,0,0.001  l1.01,2.18h-5.08c-0.017,0-0.027,0.014-0.043,0.018c-0.017,0.004-0.033-0.004-0.048,0.004c-0.011,0.005-0.012,0.018-0.021,0.024  c-0.021,0.016-0.033,0.033-0.048,0.056c-0.014,0.023-0.024,0.042-0.028,0.068c-0.002,0.011-0.012,0.018-0.012,0.03  c0,0.017,0.014,0.028,0.018,0.044s-0.004,0.032,0.004,0.047l0.119,0.234l0.062,0.233l0.012,0.239l-0.039,0.237l-0.09,0.227  l-0.134,0.199l-0.175,0.168l-0.203,0.126l-0.229,0.081L68.2,43.869l-0.239-0.021l-0.252-0.078c-0.003,0-0.005,0.001-0.008,0  c-0.002,0-0.002-0.003-0.005-0.004l-8.091-1.923v-1.214c0-0.11-0.09-0.2-0.2-0.2h-0.299l-0.022-0.165  c-0.002-0.006-0.008-0.008-0.008-0.014c-0.002-0.005,0.002-0.01,0.001-0.015l-0.048-0.162c-0.001-0.005-0.008-0.007-0.01-0.012  c-0.002-0.005,0.002-0.01,0-0.015l-0.07-0.154c-0.003-0.005-0.01-0.006-0.012-0.011c-0.003-0.005,0-0.01-0.003-0.015l-0.093-0.142  c-0.002-0.004-0.009-0.004-0.012-0.008c-0.004-0.005-0.002-0.011-0.006-0.015l-0.111-0.127c-0.004-0.004-0.01-0.003-0.015-0.007  c-0.004-0.004-0.003-0.01-0.007-0.014l-0.129-0.109c-0.005-0.003-0.011-0.001-0.016-0.004c-0.004-0.003-0.004-0.01-0.009-0.013  l-0.144-0.089c-0.006-0.003-0.011,0-0.016-0.002s-0.006-0.009-0.011-0.011l-0.155-0.067c-0.006-0.002-0.011,0.001-0.016,0  c-0.006-0.001-0.008-0.008-0.013-0.009l-0.163-0.043c-0.006-0.001-0.01,0.003-0.016,0.002s-0.008-0.007-0.014-0.007l-0.168-0.019  c-0.006,0-0.009,0.004-0.014,0.004c-0.006,0-0.01-0.006-0.016-0.005l-0.162,0.006v0h-5.514l-0.164-0.015  c-0.006,0-0.009,0.005-0.015,0.005s-0.01-0.006-0.016-0.005l-0.175,0.011c-0.006,0-0.009,0.006-0.015,0.007  s-0.011-0.004-0.017-0.003l-0.17,0.038c-0.006,0.001-0.008,0.007-0.014,0.009c-0.005,0.001-0.011-0.003-0.016,0l-0.164,0.063  c-0.005,0.002-0.006,0.008-0.012,0.011c-0.004,0.002-0.01-0.001-0.016,0.002l-0.15,0.087c-0.006,0.003-0.006,0.01-0.011,0.013  c-0.005,0.003-0.011,0.001-0.015,0.004l-0.137,0.11c-0.004,0.004-0.004,0.01-0.008,0.014s-0.011,0.002-0.015,0.007l-0.118,0.129  c-0.004,0.004-0.002,0.011-0.006,0.016c-0.003,0.004-0.01,0.004-0.013,0.009l-0.097,0.146c-0.002,0.005,0,0.01-0.002,0.016  c-0.004,0.005-0.01,0.006-0.013,0.011l-0.073,0.159c-0.002,0.005,0.002,0.011,0,0.017c-0.002,0.005-0.008,0.007-0.01,0.012  l-0.047,0.168c-0.002,0.006,0.002,0.01,0.002,0.016c-0.002,0.006-0.008,0.009-0.009,0.015l-0.021,0.172h-1.916  c-0.11,0-0.2,0.09-0.2,0.2v0.577h-4.344V38.836z M28.578,38.339h15.149v0.228v0.069H28.578V38.339z M28.578,39.037h15.149v2.171  h-0.781h-4.829h-2.557h-4.829h-2.153V39.037z M42.746,41.608v0.247h-4.429v-0.247H42.746z M35.36,41.608v0.247h-4.429v-0.247H35.36z   M28.578,41.608h1.953v0.447c0,0.11,0.09,0.2,0.2,0.2h4.829c0.11,0,0.2-0.09,0.2-0.2v-0.447h2.156v0.447c0,0.11,0.09,0.2,0.2,0.2  h4.829c0.11,0,0.2-0.09,0.2-0.2v-0.447h0.781h4.544v1.873v2.199l-0.085,0.084l-0.155,0.121l-0.165,0.099l-0.178,0.079l-0.183,0.057  l-0.189,0.034l-0.194,0.011l-0.193-0.012l-0.19-0.036l-0.186-0.059l-0.175-0.079l-0.15-0.091l-0.136-0.148  c-0.001-0.002-0.004-0.001-0.006-0.003c-0.001-0.001,0-0.004-0.002-0.006l-0.165-0.158c-0.002-0.001-0.004-0.001-0.006-0.002  c-0.001-0.001-0.001-0.004-0.003-0.006l-0.175-0.147c-0.001-0.001-0.004,0-0.006-0.002s-0.001-0.004-0.003-0.006l-0.184-0.137  c-0.002-0.001-0.005,0-0.007-0.002c-0.001-0.001-0.001-0.004-0.003-0.005l-0.191-0.125c-0.002-0.001-0.004,0-0.006-0.001  c-0.002-0.001-0.002-0.004-0.004-0.005l-0.199-0.113c-0.002-0.001-0.004,0-0.006,0c-0.002-0.001-0.002-0.005-0.005-0.006l-0.206-0.1  c-0.002-0.001-0.004,0-0.007,0c-0.002-0.001-0.002-0.003-0.004-0.004l-0.211-0.087c-0.002-0.001-0.004,0.001-0.007,0  c-0.002-0.001-0.002-0.003-0.005-0.004l-0.216-0.074c-0.002,0-0.004,0.001-0.007,0c-0.002-0.001-0.002-0.003-0.005-0.004l-0.22-0.06  c-0.002,0-0.004,0.001-0.007,0.001c-0.002,0-0.003-0.003-0.005-0.004l-0.224-0.046c-0.002,0-0.004,0.001-0.006,0.001  c-0.002,0-0.003-0.003-0.006-0.003l-0.054-0.007v-0.524c0-0.11-0.09-0.2-0.2-0.2h-15.35V41.608z M28.578,44.299h15.149v0.297H28.578  V44.299z M26.993,43.698h-5.354v-1.349h5.354V43.698z M27.894,43.917h-0.5v-0.019v-1.75v-0.018h0.5V43.917z M27.894,41.73h-0.7  c-0.11,0-0.2,0.09-0.2,0.2v0.018h-5.344v-0.491h6.245V41.73z M15.849,42.221l0.061-0.008l0.148-0.021  c0.001,0,0.002-0.002,0.004-0.002c0.005-0.001,0.011-0.001,0.017-0.002l0.368-0.092c0.002,0,0.002-0.002,0.004-0.003  c0.005-0.001,0.011-0.001,0.016-0.003l0.357-0.129c0.002-0.001,0.003-0.004,0.005-0.005c0.005-0.002,0.009-0.001,0.014-0.003  l0.341-0.166c0.002-0.001,0.003-0.004,0.005-0.006c0.004-0.002,0.009-0.001,0.013-0.004l0.322-0.201  c0.003-0.002,0.003-0.006,0.006-0.008c0.003-0.002,0.008-0.001,0.011-0.004l0.3-0.233c0.003-0.002,0.002-0.007,0.005-0.009  c0.003-0.003,0.007-0.002,0.01-0.004l0.273-0.263c0.003-0.003,0.002-0.008,0.005-0.011c0.002-0.003,0.007-0.001,0.009-0.004  l0.245-0.29c0.003-0.003,0.001-0.008,0.004-0.012c0.002-0.003,0.007-0.002,0.009-0.005l0.213-0.314c0.002-0.002,0-0.006,0.002-0.009  c0.002-0.003,0.007-0.005,0.009-0.009l0.113-0.21v1.04c0,0.11,0.09,0.2,0.2,0.2s0.2-0.09,0.2-0.2v-1.854h8.755v1.684h-6.37  c-0.025-0.012-0.046-0.031-0.075-0.031c-0.11,0-0.2,0.09-0.2,0.2v0.031v0.744c-0.001,0.005-0.006,0.007-0.007,0.013  s0.004,0.01,0.004,0.015c0,0.006-0.006,0.009-0.006,0.015v0.104v1.685h-5.39V42.221z M10.079,42.349h5.369v1.349h-5.369V42.349z   M5.275,36.891H7.67v0.448v0.488c0,0.11,0.09,0.2,0.2,0.2c0.024,0,0.041-0.018,0.062-0.026l1.645,3.903H8.576l0.059-0.045  c0.009-0.007,0.008-0.019,0.015-0.026c0.006-0.006,0.016-0.004,0.021-0.011l0.108-0.141c0.004-0.006,0.001-0.014,0.005-0.02  c0.006-0.01,0.016-0.015,0.021-0.025l0.068-0.164c0.003-0.008-0.002-0.017,0-0.025c0.003-0.01,0.012-0.015,0.014-0.025l0.023-0.176  c0.001-0.01-0.007-0.017-0.007-0.026s0.008-0.016,0.007-0.026l-0.023-0.175c-0.001-0.009-0.011-0.014-0.014-0.023  c-0.002-0.01,0.004-0.019,0-0.028l-0.068-0.164c-0.003-0.009-0.014-0.011-0.019-0.019c-0.004-0.008-0.001-0.018-0.007-0.026  l-0.108-0.141c-0.006-0.008-0.016-0.007-0.023-0.013c-0.007-0.007-0.006-0.018-0.014-0.024l-0.14-0.108  c-0.008-0.006-0.018-0.002-0.027-0.007c-0.008-0.005-0.01-0.015-0.019-0.019L8.286,40.38c-0.009-0.004-0.018,0.002-0.027,0  c-0.009-0.002-0.014-0.012-0.023-0.013l-0.176-0.023c-0.005-0.001-0.008,0.004-0.013,0.003s-0.008-0.005-0.013-0.005H5.987  c-0.005,0-0.008,0.005-0.013,0.005s-0.008-0.004-0.013-0.003l-0.176,0.023c-0.01,0.001-0.014,0.011-0.023,0.013  c-0.009,0.003-0.018-0.003-0.027,0l-0.164,0.068c-0.009,0.004-0.011,0.014-0.019,0.019c-0.008,0.004-0.018,0.001-0.026,0.007  l-0.141,0.108c-0.008,0.006-0.007,0.017-0.014,0.023s-0.018,0.006-0.023,0.014l-0.073,0.096V36.891z M8.51,41.22l-0.016,0.124  l-0.047,0.114l-0.076,0.098l-0.099,0.077l-0.115,0.047l-0.135,0.018H5.999l-0.135-0.018l-0.116-0.048l-0.097-0.074l-0.077-0.1  l-0.047-0.114L5.511,41.22l0.016-0.124l0.047-0.114l0.077-0.1l0.098-0.075l0.114-0.047l0.135-0.018h2.024l0.135,0.018l0.113,0.047  l0.1,0.077l0.076,0.099l0.047,0.114L8.51,41.22z M5.275,41.727l0.073,0.095c0.005,0.007,0.016,0.004,0.022,0.011  c0.007,0.008,0.006,0.02,0.015,0.026l0.059,0.045H5.275V41.727z M5.275,42.304h4.403v1.529H7.584  c-0.037-0.051-0.087-0.09-0.155-0.09H5.275V42.304z M5.275,44.144h1.954v0.055v0.178H5.275V44.144z M3.516,42.349h1.359v1.349H3.516  V42.349z"/></svg>