<svg xmlns="http://www.w3.org/2000/svg" xmlns:xlink="http://www.w3.org/1999/xlink" version="1.1" x="0px" y="0px" enable-background="new 0 0 100 100" xml:space="preserve" viewBox="3.56 43.52 94.86 14.48"><path d="M3.563,49.279c0,0-0.001,0.001-0.001,0.001l0.004,0.159c0,0.001,0.001,0.001,0.001,0.002s-0.001,0.001-0.001,0.002  l0.006,0.127c0,0.001,0.002,0.002,0.002,0.004c0,0-0.001,0.001-0.001,0.002l0.007,0.089c0,0.005,0.005,0.007,0.006,0.012  c0,0.005-0.004,0.008-0.003,0.013l0.009,0.043c0.003,0.014,0.015,0.021,0.021,0.033c0.004,0.011-0.001,0.022,0.005,0.032  c0.004,0.006,0.014,0.004,0.019,0.01c0.029,0.041,0.071,0.065,0.123,0.073c0.003,0.001,0.003,0.003,0.006,0.004  c0.001,0,0.002,0,0.004,0c0.007,0.001,0.011,0.008,0.019,0.008l6.018,0.025h0.001c0.036,0,0.071-0.01,0.104-0.029l0.009-0.005  c0.005-0.003,0.004-0.009,0.009-0.012c0.006-0.004,0.013-0.006,0.019-0.011c0.001-0.001,0.001-0.001,0.001-0.002  c0.012-0.011,0.016-0.029,0.024-0.042l21.409,0.09v0.006c0,0,0,0,0,0s0,0,0,0l0.002,0.038c0,0.002,0.002,0.002,0.002,0.004  c0,0.001-0.001,0.002-0.001,0.004l0.003,0.032c0,0.001,0.001,0.001,0.001,0.002s0,0.001,0,0.001l0.003,0.026  c0,0.001,0.002,0.002,0.002,0.004c0,0.001-0.001,0.002-0.001,0.004l0.003,0.019c0,0.003,0.004,0.004,0.005,0.008  c0,0.003-0.003,0.006-0.002,0.01l0.003,0.012c0.004,0.016,0.018,0.023,0.024,0.037c0.001,0.003,0,0.008,0.002,0.011  c0,0,0,0.001,0,0.001c0.002,0.004-0.001,0.01,0.002,0.014c0.002,0.002,0.005,0.001,0.007,0.004c0.002,0.003,0,0.007,0.003,0.01  l0.004,0.005c0.003,0.003,0.007,0.001,0.01,0.004c0.005,0.006,0.01,0.011,0.016,0.016c0.012,0.01,0.026,0.011,0.041,0.018  c0.003,0.001,0.006,0.002,0.009,0.004c0.011,0.006,0.015,0.019,0.027,0.022c0.014,0.004,0.027,0.005,0.041,0.006  c0.005,0,0.007,0.005,0.012,0.005l0.349,0.001h0.001l15.046,0.743c0.003,0,0.007,0.001,0.01,0.001l7.302,0.361  c0.003,0,0.007,0,0.01,0c0.047,0,0.089-0.02,0.125-0.05c0.012-0.011,0.018-0.023,0.027-0.036c0.012-0.016,0.029-0.027,0.036-0.048  l0.003-0.009c0.001-0.002-0.001-0.004,0-0.006c0.001-0.004,0.004-0.005,0.005-0.008v-0.001l1.484,0.007l0.05,0.003l0.043,0.009  l0.04,0.014l0.037,0.018l0.035,0.023l0.032,0.029l0.029,0.033l0.021,0.031l0.021,0.044l0.012,0.034l0.008,0.042l0.002,0.039  c0,0,0,0,0,0.001l0,0l0.001,0.012c0.001,0.018,0.016,0.028,0.021,0.044c0.007,0.022,0.012,0.042,0.026,0.062  c0.007,0.008,0.007,0.019,0.014,0.025c0.014,0.014,0.033,0.014,0.05,0.022c0.014,0.009,0.021,0.024,0.037,0.028  c0.018,0.005,0.034,0.007,0.051,0.007v0.001l0.381,0.002l0.005,0.186l-0.007,0.398l0,0l-0.022,0.383c0,0-0.001,0-0.001,0.001  l-0.041,0.393l-0.06,0.397l0,0l-0.076,0.385l-0.058,0.24l-0.002,0.006v0.001l-0.07,0.241l-0.126,0.372l-0.144,0.37l-0.155,0.352  h-0.001l-0.179,0.361c-0.003,0.008,0.001,0.015-0.001,0.021c-0.003,0.007-0.011,0.009-0.013,0.016l-0.073,0.273  c-0.001,0.004,0.002,0.008,0.002,0.012c-0.001,0.004-0.005,0.005-0.006,0.009c-0.004,0.022,0.011,0.041,0.015,0.062  c0.005,0.026,0.004,0.053,0.019,0.075c0.014,0.021,0.037,0.03,0.059,0.045c0.02,0.014,0.03,0.035,0.054,0.041  c0.006,0.002,0.012,0.002,0.019,0.003c0.001,0,0.002,0.002,0.003,0.002l3.826,0.591c0.01,0.002,0.021,0.002,0.03,0.002  c0.042,0,0.083-0.014,0.117-0.039c0.002-0.002,0.004-0.004,0.007-0.006c0.011-0.009,0.015-0.023,0.023-0.035  c0.015-0.018,0.033-0.031,0.041-0.053l0.148-0.422c0-0.001,0-0.002,0-0.002c0-0.001,0.002-0.002,0.002-0.003l0.138-0.425  c0-0.001,0-0.002,0-0.002c0-0.002,0.002-0.002,0.002-0.004l0.125-0.428c0-0.002-0.001-0.002,0-0.003  c0-0.001,0.001-0.001,0.001-0.002l0.073-0.272c0-0.001,0-0.001,0-0.001c0-0.001,0-0.001,0-0.001l0.113-0.432  c0,0-0.001-0.002,0-0.003c0-0.001,0.001-0.001,0.001-0.002l0.102-0.435c0,0,0-0.001,0-0.002s0.002-0.002,0.002-0.004l0.09-0.438  c0,0-0.001-0.001-0.001-0.002c0.001-0.001,0.002-0.002,0.002-0.002l0.078-0.44c0-0.001-0.001-0.002-0.001-0.003  c0.001-0.001,0.002-0.002,0.002-0.003l0.065-0.442c0-0.001-0.001-0.002-0.001-0.003s0.001-0.001,0.001-0.002l0.054-0.443  c0-0.001-0.001-0.001-0.001-0.002s0.002-0.002,0.002-0.003l0.042-0.445c0-0.001-0.001-0.002-0.001-0.003s0.001-0.001,0.001-0.003  l0.027-0.412l0.449,0.002l0.004,0.082c0,0.007,0.007,0.011,0.008,0.018c0.001,0.005-0.004,0.01-0.003,0.015l0.028,0.134  c0.001,0.006,0.008,0.009,0.009,0.015c0.002,0.005-0.002,0.011,0,0.015l0.049,0.129c0.002,0.006,0.008,0.008,0.011,0.014  c0.002,0.005-0.001,0.01,0.002,0.014l0.068,0.12c0.003,0.005,0.01,0.003,0.013,0.007c0.003,0.006,0.001,0.014,0.005,0.019  l0.086,0.108c0.003,0.004,0.01,0.002,0.013,0.006c0.005,0.005,0.003,0.012,0.008,0.016l0.102,0.094  c0.005,0.005,0.011,0.003,0.016,0.007c0.005,0.003,0.004,0.01,0.009,0.013l0.115,0.077c0.005,0.003,0.012,0.002,0.017,0.005  c0.004,0.002,0.005,0.008,0.009,0.01l0.126,0.06c0.007,0.003,0.015,0.003,0.021,0.005c0.003,0.001,0.004,0.006,0.008,0.006  l0.133,0.04c0.008,0.003,0.017,0.002,0.024,0.004c0.002,0,0.003,0.002,0.005,0.003l0.138,0.019c0.009,0.001,0.019,0.002,0.027,0.002  c0.001,0,0.002,0,0.003,0l0.138-0.002l2.843,0.012l0.033,1.142l-0.011,0.115c-0.001,0.006,0.005,0.01,0.005,0.016  c0,0.005-0.005,0.009-0.005,0.014l0.008,0.13c0,0.006,0.006,0.009,0.007,0.015s-0.004,0.01-0.003,0.016l0.027,0.127  c0.001,0.006,0.008,0.009,0.009,0.015c0.002,0.005-0.002,0.01,0,0.015l0.047,0.121c0.002,0.007,0.009,0.01,0.012,0.016  c0.002,0.004,0,0.009,0.002,0.014l0.065,0.113c0.002,0.004,0.009,0.002,0.011,0.006c0.004,0.006,0.002,0.014,0.006,0.02l0.082,0.102  c0.004,0.004,0.01,0.002,0.014,0.006c0.004,0.005,0.002,0.012,0.007,0.016l0.097,0.09c0.005,0.004,0.012,0.002,0.017,0.006  s0.004,0.01,0.009,0.013l0.109,0.073c0.005,0.003,0.012,0.002,0.017,0.005c0.004,0.002,0.005,0.007,0.009,0.009l0.12,0.057  c0.007,0.003,0.014,0.002,0.021,0.005c0.004,0.001,0.005,0.005,0.008,0.006l0.126,0.037c0.009,0.003,0.018,0.003,0.026,0.004  c0.001,0,0.002,0.002,0.004,0.003l0.131,0.018c0.009,0,0.018,0.002,0.026,0.002c0.001,0,0.002,0,0.003,0l0.13-0.002l3.851,0.016  h0.001c0.05,0,0.094-0.021,0.13-0.054c0.005-0.005,0.01-0.007,0.014-0.011c0.002-0.002,0.005-0.002,0.007-0.004l1.095-1.243  l1.282,0.005l1.167,2.672c0.002,0.004,0.006,0.005,0.008,0.009c0.001,0.003,0,0.006,0.002,0.009c0.004,0.008,0.014,0.01,0.019,0.016  c0.022,0.03,0.05,0.053,0.084,0.066c0.007,0.002,0.009,0.01,0.016,0.012l0.368,0.107c0.004,0.001,0.009,0.001,0.013,0.002  c0.002,0,0.002,0.002,0.004,0.002l0.376,0.076c0.005,0,0.009,0,0.014,0.001c0.001,0,0.001,0.001,0.002,0.001l0.38,0.044  c0.008,0.001,0.016,0.001,0.023,0.001h0.001l0.376,0.012c0.002,0,0.004,0,0.006,0c0.004,0,0.007,0,0.011,0l0.382-0.021  c0,0,0,0,0.001,0c0.005-0.001,0.011-0.001,0.016-0.002l0.379-0.053c0.001,0,0.002-0.001,0.003-0.001  c0.005-0.001,0.01-0.001,0.015-0.002l0.372-0.085c0.001,0,0.002-0.002,0.003-0.002c0.005-0.002,0.009-0.001,0.013-0.002l0.363-0.116  c0.002-0.001,0.002-0.003,0.004-0.003c0.004-0.002,0.009-0.001,0.013-0.003l0.352-0.146c0.002-0.002,0.002-0.004,0.005-0.005  c0.003-0.002,0.007-0.001,0.011-0.003l0.337-0.176c0.002-0.001,0.002-0.004,0.005-0.006c0.003-0.001,0.007,0,0.01-0.002l0.32-0.203  c0.003-0.002,0.002-0.006,0.005-0.008c0.003-0.001,0.006,0,0.009-0.002l0.238-0.182l18.779,2.133  c0.008,0.002,0.015,0.002,0.021,0.002l0.43,0.002h0.001c0.049,0,0.093-0.021,0.129-0.054c0.013-0.011,0.017-0.024,0.026-0.038  c0.013-0.019,0.031-0.033,0.038-0.057l0.066-0.245c0.003-0.01-0.005-0.018-0.004-0.026c0.002-0.01,0.011-0.016,0.011-0.025  c0,0,0,0,0-0.001c0,0,0,0,0-0.001l-0.034-8.039c0-0.035-0.021-0.061-0.038-0.09c-0.009-0.016-0.008-0.038-0.021-0.05  c-0.022-0.022-0.056-0.026-0.085-0.036c-0.02-0.006-0.034-0.023-0.056-0.023l-0.431-0.002l-5.585-0.023l-0.007-1.55  c0-0.033-0.021-0.058-0.035-0.085c-0.01-0.018-0.01-0.041-0.023-0.055c-0.019-0.019-0.048-0.021-0.073-0.031  c-0.022-0.009-0.041-0.028-0.067-0.028l-8.085-0.034h-0.001h-0.001c-0.019,0-0.031,0.015-0.049,0.021  c-0.025,0.007-0.048,0.012-0.068,0.029c-0.007,0.005-0.018,0.004-0.023,0.01c-0.012,0.012-0.011,0.031-0.02,0.046  c-0.009,0.016-0.027,0.024-0.032,0.043l-0.104,0.389c-0.003,0.01,0.005,0.018,0.004,0.027c-0.002,0.009-0.011,0.016-0.011,0.025  l0.005,1.156l-8.566-0.036l-0.001-0.331l-0.003-0.677c0-0.013-0.011-0.02-0.014-0.032c-0.002-0.011,0.006-0.021,0.002-0.033  l-0.04-0.115c-0.001-0.003-0.006-0.004-0.007-0.008c-0.002-0.004,0.001-0.008-0.001-0.011l-0.052-0.11  c-0.002-0.004-0.007-0.004-0.009-0.008c-0.002-0.004,0-0.009-0.002-0.012l-0.064-0.104c-0.002-0.003-0.007-0.003-0.009-0.006  s-0.001-0.007-0.003-0.01l-0.074-0.097c-0.003-0.003-0.007-0.003-0.01-0.006c-0.003-0.003-0.002-0.008-0.005-0.012l-0.085-0.088  c-0.003-0.003-0.007-0.001-0.01-0.004c-0.003-0.003-0.002-0.008-0.005-0.01l-0.094-0.079c-0.003-0.003-0.008-0.001-0.011-0.003  c-0.004-0.002-0.003-0.007-0.007-0.01l-0.102-0.068c-0.004-0.002-0.008,0-0.012-0.002c-0.003-0.001-0.004-0.006-0.007-0.008  l-0.109-0.058c-0.004-0.002-0.008,0-0.011-0.001c-0.004-0.002-0.005-0.007-0.009-0.008l-0.114-0.045  c-0.004-0.001-0.007,0.001-0.011,0c-0.004-0.001-0.005-0.006-0.009-0.007l-0.118-0.033c-0.004-0.001-0.008,0.002-0.012,0.001  s-0.006-0.005-0.01-0.006l-0.121-0.02c-0.004,0-0.007,0.003-0.011,0.002c-0.005,0-0.007-0.005-0.011-0.005l-0.122-0.007  c-0.001,0-0.001,0.001-0.002,0.001s-0.001-0.001-0.002-0.001c-0.002,0-0.005,0-0.007,0c-0.02,0-0.032,0.015-0.05,0.02  c-0.024,0.007-0.045,0.011-0.065,0.026c-0.005,0.004-0.012,0.003-0.017,0.007l-6.949-0.029l-0.005-0.934l3.07,0.013h0.001  c0.016,0,0.032-0.002,0.049-0.006c0.019-0.005,0.026-0.022,0.042-0.031c0.017-0.009,0.038-0.009,0.051-0.022  c0.002-0.002,0.002-0.005,0.004-0.007c0.002-0.002,0.006-0.001,0.008-0.003c0.006-0.005,0.004-0.014,0.008-0.02  c0.007-0.01,0.009-0.019,0.014-0.03c0.012-0.021,0.03-0.037,0.034-0.062l0.012-0.077c0-0.003-0.002-0.004-0.002-0.007  c0.001-0.003,0.004-0.005,0.004-0.008l0.011-0.136c0-0.001-0.001-0.001-0.001-0.002c0-0.001,0.002-0.002,0.002-0.004l0.001-0.023  l2.801,0.012h0.001l1.937,0.299c0.01,0.001,0.02,0.002,0.029,0.002l7.727,0.032l0.706,0.641c0.013,0.012,0.03,0.01,0.044,0.017  c0.013,0.007,0.018,0.021,0.031,0.026c0.02,0.006,0.04,0.009,0.06,0.009c0.051,0,0.096-0.024,0.132-0.059  c0.005-0.004,0.012-0.002,0.017-0.007c0.008-0.009,0.005-0.021,0.011-0.03c0.011-0.016,0.026-0.026,0.032-0.044l0.019-0.06  c0.002-0.007-0.003-0.013-0.002-0.02c0.002-0.007,0.009-0.011,0.01-0.019l0.017-0.158c0-0.002-0.002-0.003-0.002-0.005  c0.001-0.001,0.002-0.002,0.002-0.003l0.016-0.244c0,0-0.001-0.001,0-0.001c0-0.001,0.001-0.002,0.001-0.003l0.013-0.314  c0-0.001-0.001-0.001-0.001-0.002c0-0.001,0.001-0.001,0.001-0.002l0.008-0.363c0,0-0.001-0.001-0.001-0.001  s0.001-0.001,0.001-0.001l0.003-0.387c0,0,0,0,0-0.001s0,0,0-0.001l-0.001-0.384c0,0-0.001-0.001-0.001-0.001  s0.001-0.001,0.001-0.001l-0.006-0.355c0,0-0.001,0-0.001-0.001c0,0,0.001-0.001,0.001-0.001l-0.01-0.303  c0-0.001-0.002-0.002-0.002-0.004c0-0.001,0.001-0.001,0.001-0.002l-0.015-0.229c0-0.001-0.002-0.002-0.002-0.003  c0-0.002,0.002-0.004,0.002-0.006l-0.016-0.14c-0.001-0.013-0.013-0.02-0.016-0.031c-0.003-0.01,0.003-0.02-0.001-0.029  l-0.019-0.041c-0.005-0.01-0.016-0.01-0.021-0.019c-0.005-0.009-0.002-0.02-0.009-0.028c-0.015-0.018-0.037-0.018-0.056-0.029  c-0.013-0.006-0.021-0.015-0.034-0.018c-0.065-0.023-0.136-0.024-0.191,0.023l-0.711,0.601l-7.729-0.033h-0.001  c-0.006,0-0.009,0.005-0.015,0.006c-0.005,0-0.008-0.004-0.014-0.003l-1.966,0.282l-2.773-0.012l-0.004-0.079  c0-0.002-0.002-0.002-0.002-0.004s0.001-0.002,0.001-0.003l-0.01-0.116c0-0.005-0.006-0.007-0.007-0.012  c0-0.005,0.004-0.009,0.003-0.014l-0.012-0.054c-0.005-0.02-0.022-0.03-0.032-0.047c-0.013-0.022-0.021-0.043-0.041-0.06  c-0.021-0.018-0.045-0.022-0.072-0.03c-0.018-0.005-0.029-0.021-0.049-0.021l-3.245-0.013l-0.621-0.003h-0.001  c-0.008,0-0.013,0.008-0.021,0.008c-0.008,0.001-0.014-0.005-0.021-0.003c-0.02,0.004-0.028,0.022-0.046,0.031  c-0.004,0.002-0.009,0.003-0.013,0.005c-0.013,0.007-0.027,0.007-0.038,0.016C65.69,43.996,65.69,44,65.688,44.003  c-0.003,0.002-0.007,0.001-0.009,0.003c-0.004,0.004-0.003,0.011-0.007,0.016c-0.007,0.01-0.008,0.02-0.013,0.031  c0,0,0,0.001,0,0.001c-0.006,0.011-0.014,0.019-0.018,0.03l-2.596-0.011c-0.005-0.018-0.021-0.027-0.028-0.043  c-0.012-0.02-0.019-0.04-0.037-0.055c-0.021-0.019-0.046-0.023-0.073-0.031c-0.019-0.005-0.031-0.021-0.051-0.021l-0.62-0.002  h-0.001c-0.008,0-0.013,0.008-0.021,0.009s-0.014-0.006-0.021-0.004c-0.02,0.004-0.029,0.022-0.046,0.031  c-0.006,0.003-0.013,0.004-0.019,0.008c-0.011,0.006-0.023,0.006-0.032,0.014c-0.003,0.002-0.003,0.006-0.006,0.009  c-0.003,0.002-0.007,0.001-0.009,0.004c-0.004,0.004-0.003,0.011-0.007,0.016c-0.007,0.01-0.008,0.021-0.013,0.031v0.001  c-0.003,0.005-0.006,0.009-0.008,0.014l-3.875-0.017l-0.011-0.116c0-0.005-0.006-0.007-0.006-0.012  c-0.001-0.004,0.003-0.008,0.002-0.013l-0.015-0.067c-0.005-0.021-0.023-0.031-0.033-0.048c-0.012-0.021-0.02-0.042-0.039-0.058  c-0.021-0.018-0.045-0.022-0.072-0.03c-0.018-0.005-0.03-0.021-0.05-0.021l-3.629-0.016h-0.001c-0.008,0-0.014,0.008-0.021,0.008  c-0.008,0.001-0.015-0.006-0.022-0.003c-0.02,0.004-0.029,0.022-0.046,0.032c-0.012,0.006-0.025,0.006-0.036,0.015  c-0.003,0.002-0.007,0.002-0.01,0.005c-0.002,0.001-0.005,0.001-0.007,0.002l-0.015,0.015c-0.004,0.004-0.002,0.01-0.006,0.015  c-0.006,0.008-0.006,0.016-0.01,0.025c-0.003,0.004-0.003,0.009-0.005,0.013c-0.012,0.02-0.031,0.034-0.035,0.058L54.1,43.934  c0,0.003,0.002,0.005,0.002,0.008s-0.004,0.005-0.004,0.008l-0.013,0.169c0,0,0.001,0.001,0.001,0.001  c0,0.001-0.002,0.002-0.002,0.003l-0.012,0.232c0,0.001,0.001,0.002,0.001,0.003c0,0-0.001,0.001-0.001,0.002l-0.008,0.278  c0,0,0.001,0.001,0.001,0.001s-0.001,0.001-0.001,0.001l-0.004,0.307c0,0,0,0,0,0.001s0,0,0,0.001l-0.001,0.313  c0,0,0.001,0.001,0.001,0.001c0,0.001-0.001,0.001-0.001,0.001l0.003,0.299c0,0,0.001,0.001,0.001,0.001  c0,0.001-0.001,0.001-0.001,0.002l0.007,0.264c0,0.001,0.001,0.001,0.001,0.002s-0.001,0.001-0.001,0.002l0.011,0.211  c0,0.001,0.002,0.002,0.002,0.004c0,0-0.001,0.001-0.001,0.002l0.012,0.144c0,0.005,0.006,0.008,0.007,0.013  c0,0.005-0.004,0.008-0.003,0.013l0.015,0.067c0.006,0.025,0.024,0.041,0.038,0.061c0.001,0.002,0.001,0.004,0.003,0.006  c0.006,0.009,0.005,0.023,0.013,0.031v0c0.003,0.003,0.008,0.002,0.011,0.004c0.034,0.031,0.077,0.05,0.125,0.052  c0.002,0,0.003,0.002,0.005,0.002l3.629,0.015h0.001c0.051,0,0.103-0.02,0.142-0.059l0.015-0.015  c0.011-0.01,0.007-0.025,0.015-0.037c0.016-0.023,0.036-0.044,0.041-0.074l0.015-0.095c0-0.003-0.002-0.004-0.002-0.007  c0.001-0.003,0.004-0.005,0.004-0.008l0.006-0.071l3.815,0.017v0.092c0,0,0,0,0,0l0.004,0.973l-0.116,0h-0.001  c-0.013,0-0.021,0.011-0.032,0.014c-0.008,0.001-0.014-0.004-0.021-0.002c-0.001,0-0.002,0.002-0.003,0.002  c-0.011,0.003-0.019,0.006-0.029,0.011c-0.014,0.007-0.023,0.016-0.036,0.025c-0.014,0.012-0.021,0.024-0.032,0.04  c-0.009,0.011-0.024,0.015-0.03,0.028l-0.002,0.003l-7.108-0.03c-0.001-0.009-0.009-0.013-0.01-0.021  c0-0.008,0.008-0.015,0.007-0.023c0-0.006-0.007-0.01-0.008-0.016c0-0.007,0.006-0.012,0.005-0.019  c-0.001-0.009-0.009-0.013-0.011-0.021c0-0.006,0.005-0.012,0.004-0.018c-0.001-0.005-0.006-0.007-0.008-0.012  c-0.001-0.004,0.003-0.009,0.002-0.013c-0.002-0.008-0.011-0.011-0.014-0.019c-0.006-0.017-0.018-0.026-0.028-0.041  c-0.011-0.015-0.018-0.028-0.031-0.04c-0.014-0.011-0.024-0.019-0.04-0.026c-0.006-0.003-0.007-0.011-0.014-0.013  c-0.012-0.004-0.023,0.003-0.036,0.001c-0.012-0.002-0.021-0.014-0.033-0.014l-22.355-0.098l-0.349-0.001h-0.001  c-0.013,0-0.021,0.011-0.033,0.014c-0.005,0.001-0.01-0.003-0.015-0.002c-0.008,0.002-0.011,0.011-0.019,0.014  c-0.015,0.005-0.03-0.001-0.044,0.007c-0.003,0.002-0.003,0.006-0.006,0.008c-0.003,0.001-0.006,0-0.009,0.002  c-0.003,0.002-0.003,0.007-0.006,0.01c-0.013,0.012-0.017,0.027-0.025,0.042c-0.006,0.008-0.011,0.014-0.015,0.023  c-0.004,0.008-0.013,0.013-0.016,0.022c-0.003,0.006-0.01,0.008-0.012,0.014c0,0,0,0.001,0,0.002s0,0.001,0,0.001  c-0.001,0.001-0.002,0.001-0.002,0.002l-0.044,0.162l-2.217-0.01c-0.008-0.018-0.019-0.028-0.03-0.043  c-0.008-0.01-0.014-0.018-0.022-0.025c-0.008-0.005-0.016-0.006-0.023-0.01c-0.001-0.001-0.003-0.001-0.004-0.002  c-0.017-0.01-0.026-0.029-0.046-0.034l-0.006-0.001c-0.009-0.002-0.016,0.005-0.024,0.003s-0.015-0.01-0.023-0.01l-2.285-0.008  c-0.001,0-0.001,0-0.001,0c-0.014,0-0.021,0.012-0.034,0.014c-0.021,0.003-0.042,0.002-0.062,0.013  c-0.014,0.007-0.021,0.017-0.033,0.026c-0.012,0.01-0.016,0.022-0.024,0.035c-0.011,0.014-0.028,0.02-0.035,0.037  c-0.002,0.004,0.002,0.008,0,0.013c-0.002,0.007-0.01,0.01-0.012,0.017l-0.006,0.026c-0.001,0.005,0.003,0.008,0.003,0.013  c-0.001,0.005-0.006,0.007-0.007,0.013l-0.003,0.035l-0.11,0h-0.001c-0.017,0-0.026,0.013-0.042,0.017  c-0.003,0.001-0.006,0.002-0.01,0.003c-0.019,0.005-0.035,0.004-0.051,0.014c-0.033,0.02-0.054,0.047-0.068,0.084  c-0.005,0.011-0.018,0.015-0.021,0.026l-0.03,0.105c-0.002,0.007,0.004,0.014,0.002,0.021c-0.001,0.007-0.008,0.011-0.009,0.019  L26.169,47.7l-0.014,0.069l-0.006,0.019l-0.034,0.076l-0.054,0.091l-0.053,0.069l-0.071,0.074l-0.074,0.062l-0.074,0.049  l-0.091,0.046l-0.04,0.015l-12.833-0.054l-0.45-1.145c0,0,0.001,0,0.001-0.001l0.005-0.053c0-0.001-0.001-0.002-0.001-0.003  c0-0.002,0.002-0.003,0.002-0.004l0.004-0.077c0-0.001-0.001-0.001-0.001-0.002c0-0.001,0.001-0.001,0.001-0.002l0.003-0.094  c0,0,0,0,0-0.001c0,0,0,0,0-0.001l0.002-0.106c0,0,0,0,0-0.001s0,0,0-0.001l0.001-0.11c0-0.001-0.001-0.001-0.001-0.002  s0.001-0.001,0.001-0.002l-0.001-0.107c0,0,0,0,0-0.001s0,0,0-0.001l-0.002-0.096c0-0.001-0.001-0.002-0.001-0.003  s0.001-0.002,0.001-0.003l-0.004-0.079c0-0.001-0.001-0.002-0.001-0.003c0,0,0,0,0-0.001l-0.004-0.057  c0-0.003-0.004-0.005-0.004-0.008c-0.001-0.003,0.003-0.006,0.002-0.01l-0.005-0.03c-0.002-0.009-0.011-0.012-0.014-0.021  c-0.006-0.024-0.019-0.04-0.033-0.059c-0.011-0.015-0.017-0.027-0.029-0.039c-0.006-0.004-0.013-0.004-0.019-0.008  c-0.012-0.008-0.015-0.022-0.028-0.028l-0.005-0.002c-0.013-0.005-0.024,0.003-0.037,0c-0.014-0.003-0.022-0.015-0.036-0.015  l-1.333-0.003c-0.001,0-0.001,0-0.001,0c-0.013,0-0.021,0.011-0.033,0.013c-0.023,0.004-0.044,0.004-0.065,0.016  c-0.013,0.007-0.021,0.015-0.031,0.024c-0.012,0.01-0.016,0.022-0.024,0.035c-0.01,0.014-0.027,0.02-0.034,0.037  c-0.002,0.005,0.002,0.011,0,0.017c-0.002,0.008-0.011,0.011-0.013,0.02l-0.005,0.026c-0.001,0.003,0.002,0.005,0.002,0.009  c-0.001,0.004-0.005,0.006-0.005,0.01l-0.005,0.054c0,0.001,0.001,0.002,0.001,0.003c0,0.002-0.002,0.002-0.002,0.004l-0.004,0.076  c0,0.001,0.001,0.001,0.001,0.002s-0.001,0.001-0.001,0.002l-0.003,0.095c0,0,0.001,0.001,0.001,0.001  c0,0.001-0.001,0.001-0.001,0.001l-0.002,0.105c0,0,0,0,0,0.001s0,0,0,0.001l-0.001,0.11c0,0,0.001,0.001,0.001,0.002  s-0.001,0.001-0.001,0.002l0.001,0.106c0,0,0,0,0,0.001s0,0,0,0.001l0.002,0.097c0,0,0.001,0.001,0.001,0.001  c0,0.001-0.001,0.001-0.001,0.002l0.003,0.079c0,0.002,0.002,0.003,0.002,0.005c0.001,0.001-0.001,0.002-0.001,0.004l0.005,0.057  c0,0.003,0.003,0.004,0.004,0.007c0,0.002-0.002,0.004-0.002,0.007l0.005,0.03c0.002,0.013,0.014,0.02,0.018,0.031  c0.006,0.016,0.009,0.029,0.018,0.043c0.001,0.001,0,0.004,0.001,0.005l0.005,1.023l-0.694-0.003  c-0.013-0.021-0.022-0.039-0.041-0.054c-0.005-0.003-0.01-0.004-0.015-0.006C9.892,48.122,9.86,48.1,9.819,48.1l-6.018-0.025H3.801  c-0.02,0-0.033,0.016-0.051,0.021c-0.019,0.004-0.037-0.002-0.054,0.008l-0.009,0.006c-0.002,0.001-0.002,0.004-0.004,0.006  c-0.006,0.004-0.009,0.009-0.015,0.014c-0.012,0.01-0.015,0.024-0.023,0.037c-0.003,0.005-0.006,0.01-0.009,0.015  c-0.013,0.02-0.031,0.034-0.036,0.057c-0.001,0.004-0.005,0.006-0.006,0.01L3.586,48.3c0,0.003,0.002,0.005,0.002,0.008  c0,0.003-0.004,0.005-0.004,0.008l-0.008,0.098c0,0.001,0.001,0.001,0.001,0.002c0,0.001-0.002,0.002-0.002,0.003l-0.007,0.135  c0,0.001,0.001,0.001,0.001,0.002c0,0-0.001,0.001-0.001,0.002l-0.005,0.164c0,0,0.001,0,0.001,0.001c0,0-0.001,0-0.001,0.001  l-0.003,0.181c0,0,0.001,0.001,0.001,0.001c0,0.001-0.001,0.001-0.001,0.002v0.186c0,0,0,0,0,0.001s0,0,0,0.001l0.002,0.179  C3.562,49.278,3.563,49.279,3.563,49.279z M97.971,49.703l0.032,7.639h-0.03l-0.032-7.639H97.971z M82.706,45.885  c0-0.001,0.002-0.002,0.002-0.004l0.008-0.134c0,0,0,0,0-0.001c0-0.001,0.001-0.001,0.001-0.003l0.007-0.173  c0,0-0.001-0.001-0.001-0.001c0-0.001,0.001-0.001,0.001-0.001l0.005-0.199c0,0-0.001-0.001-0.001-0.001s0.001-0.001,0.001-0.001  l0.002-0.212c0,0-0.001-0.001-0.001-0.001s0.001-0.001,0.001-0.001l-0.001-0.211c0,0,0,0,0-0.001s0,0,0-0.001l-0.003-0.195  c0-0.001-0.001-0.001-0.001-0.002s0.001-0.001,0.001-0.002l-0.006-0.166c0-0.001-0.002-0.002-0.002-0.003  c0,0,0.001-0.001,0.001-0.002l-0.008-0.126c0-0.002-0.002-0.003-0.002-0.005c-0.001-0.001,0-0.002,0-0.003l0.399-0.337l0.002,0.024  c0,0.001-0.001,0.001-0.001,0.001l0.01,0.303l0.006,0.352l0.001,0.38l-0.003,0.383l-0.008,0.359l-0.013,0.314  c0,0,0.001,0.001,0.001,0.001l-0.004,0.06l-0.396-0.358l0.003-0.023C82.708,45.889,82.706,45.888,82.706,45.885z M74.913,45.714  C74.913,45.713,74.913,45.713,74.913,45.714c0-0.002,0.001-0.003,0.001-0.004l0.007-0.172c0,0-0.001-0.001-0.001-0.001  c0-0.001,0.001-0.001,0.001-0.001l0.005-0.199c0,0-0.001-0.001-0.001-0.001s0.001-0.001,0.001-0.001l0.002-0.213  c0,0-0.001-0.001-0.001-0.001s0.001-0.001,0.001-0.001l-0.001-0.211c0,0,0,0,0-0.001s0,0,0-0.001l-0.003-0.195  c0,0-0.001-0.001-0.001-0.001c0-0.001,0.001-0.002,0.001-0.002l-0.006-0.166c0-0.001-0.002-0.002-0.002-0.003  s0.001-0.001,0.001-0.002l-0.001-0.012l7.403,0.031l0.002,0.032c0,0-0.001,0.001-0.001,0.001l0.006,0.166l0.003,0.191l0.001,0.208  l-0.002,0.208l-0.005,0.196c0,0,0,0,0,0l-0.007,0.173c0,0,0.001,0.001,0.001,0.001l-0.004,0.06l-7.403-0.031L74.913,45.714z   M72.938,45.479l0.004-0.115c0,0,0-0.001,0-0.001s0,0,0-0.001l0.003-0.131c0,0-0.001-0.001-0.001-0.001s0.001-0.001,0.001-0.001  l0.001-0.137c0,0-0.001-0.001-0.001-0.001s0.001-0.001,0.001-0.001l-0.001-0.135c0,0-0.001-0.001-0.001-0.001  c0-0.001,0.001-0.001,0.001-0.001l-0.002-0.1c0-0.001-0.001-0.001-0.001-0.002s0.001-0.001,0.001-0.002l-0.001-0.022c0,0,0,0,0,0  l-0.002-0.049l1.578-0.226l0.001,0.004c0,0-0.001,0.001-0.001,0.001l0.006,0.166l0.003,0.191l0.001,0.207l-0.002,0.209l-0.005,0.196  c0,0,0,0,0,0l-0.007,0.172c0,0.001,0.001,0.001,0.001,0.002l-0.002,0.03l-1.575-0.243v-0.001c0-0.001-0.001-0.001-0.001-0.002  C72.937,45.479,72.938,45.479,72.938,45.479z M69.936,44.946c0-0.001,0.001-0.001,0.001-0.002l-0.002-0.151l2.605,0.01l0.001,0.033  c0,0.004,0.005,0.007,0.005,0.011c0,0.003-0.004,0.006-0.004,0.01v0.004c0,0,0,0,0,0v0l0.002,0.094l0.001,0.131l-0.001,0.133  l-0.003,0.128l-0.004,0.104l-2.605-0.011l0.004-0.241c0,0,0,0,0-0.001s0,0,0-0.001l0.001-0.252  C69.937,44.947,69.936,44.947,69.936,44.946z M69.535,45.196l-0.004,0.245l-0.005,0.194l-0.001,0.026l-0.009,0.187  c0,0,0,0.001,0,0.001l-0.001,0.021l-2.821-0.012l-0.003-0.723l2.844,0.012V45.196z M69.521,44.352l0.007,0.151c0,0,0,0,0,0  l0.003,0.095l0.003,0.113v0.035l-2.845-0.012V44.69c0-0.001-0.001-0.001-0.001-0.002s0.001-0.001,0.001-0.002l-0.006-0.212  c0,0-0.001-0.001-0.001-0.002s0.001-0.001,0.001-0.002l-0.006-0.13L69.521,44.352z M57.802,45.166l-0.005,0.305l-0.008,0.274  l-0.007,0.146c0,0,0,0,0,0l-0.004,0.086c0,0,0,0,0,0.001l-0.007,0.086l-3.229-0.014l0.005-0.064c0,0-0.001-0.001-0.001-0.002  c0.001-0.001,0.002-0.002,0.002-0.003l0.012-0.232c0-0.001-0.001-0.001-0.001-0.002s0.001-0.001,0.001-0.002l0.008-0.278  c0,0-0.001-0.001-0.001-0.001s0.001-0.001,0.001-0.001l0.004-0.307c0,0,0,0,0-0.001s0,0,0-0.001l0.001-0.313  c0,0-0.001,0-0.001-0.001c0,0,0.001,0,0.001-0.001L54.57,44.54c0,0-0.001-0.001-0.001-0.002c0,0,0.001-0.001,0.001-0.001  l-0.007-0.264c0-0.001-0.001-0.001-0.001-0.002c0-0.001,0.001-0.002,0.001-0.003l-0.011-0.211l3.228,0.014l0.002,0.02c0,0,0,0,0,0  l0.007,0.154c0,0,0,0,0,0c0,0,0,0.001,0,0.001l0.003,0.057v0l0.007,0.259l0.003,0.295V45.166z M60.766,51.523L60.766,51.523  l-0.006,0.155c0,0.001,0,0.001,0,0.001l-0.028,0.433c0,0.001,0,0.001,0,0.001l-0.042,0.445l0,0l-0.052,0.431  c0,0.001-0.001,0.001-0.001,0.001l-0.065,0.44l-0.077,0.435l-0.089,0.434c0,0.001,0,0.002,0,0.002l-0.099,0.422l0,0l-0.113,0.431  c0,0,0,0,0,0.001l-0.007,0.025l-0.115,0.393c0,0-0.001,0-0.001,0.001l-0.137,0.425l-0.092,0.26l-3.392-0.523l0.058-0.117  c0.001-0.001,0-0.003,0-0.004c0.001-0.002,0.002-0.002,0.003-0.004l0.163-0.369c0.001-0.001,0-0.002,0-0.004  c0.001-0.002,0.003-0.002,0.004-0.004l0.146-0.375c0.001-0.002-0.001-0.003,0-0.004c0.001-0.002,0.002-0.003,0.003-0.004l0.13-0.383  c0.001-0.001-0.001-0.002,0-0.004c0-0.002,0.002-0.002,0.003-0.004l0.07-0.242l0,0l0.042-0.145c0.001-0.002-0.001-0.004-0.001-0.006  c0.001-0.001,0.003-0.002,0.003-0.004l0.095-0.391c0-0.002-0.001-0.003-0.001-0.004c0.001-0.002,0.003-0.003,0.003-0.004  l0.077-0.396c0-0.002-0.001-0.003-0.001-0.005c0-0.001,0.002-0.002,0.002-0.004l0.061-0.398c0-0.001-0.001-0.002-0.001-0.003  c0-0.003,0.003-0.004,0.003-0.006l0.042-0.4c0-0.002-0.002-0.003-0.002-0.005c0.001-0.002,0.002-0.002,0.002-0.004l0.024-0.402  c0-0.002-0.001-0.002-0.001-0.004s0.002-0.003,0.002-0.005l0.007-0.402c0-0.002-0.002-0.003-0.002-0.005  c0-0.001,0.002-0.002,0.002-0.004l-0.005-0.196l3.39,0.014L60.766,51.523z M62.608,51.638l-0.008,0.019l-0.007,0.008l-0.017,0.014  l-0.012,0.004l-0.021,0.003l-0.016-0.002l-0.018-0.007l-0.014-0.011l-0.009-0.012l-0.008-0.017l-0.002-0.014l0.003-0.017  l0.005-0.013l0.011-0.014l0.012-0.01l0.016-0.006l0.017-0.002l0.019,0.002l0.018,0.008l0.014,0.01l0.008,0.012l0.008,0.017  l0.002,0.017L62.608,51.638z M70.516,54.33l-3.661-0.016h-0.001c-0.001,0-0.002,0-0.003,0l-0.102,0.002l-0.066-0.01l-0.063-0.019  l-0.062-0.028l-0.055-0.036l-0.045-0.042l-0.047-0.058l-0.028-0.05l-0.026-0.066l-0.014-0.063l-0.004-0.058l0.012-0.113  c0.001-0.005-0.004-0.008-0.004-0.013s0.005-0.009,0.005-0.013l-0.023-0.783l4.23,0.018l0.086,0.015l0.101,0.026l0.093,0.035  l0.095,0.046l0.086,0.054l0.081,0.062l0.072,0.067l0.071,0.081l0.054,0.074L70.516,54.33z M91.749,47.929l0.006,1.277l-3.024-0.012  l-0.004-0.867c0-0.033-0.021-0.057-0.035-0.084c-0.01-0.019-0.01-0.042-0.023-0.056c-0.019-0.019-0.048-0.021-0.073-0.031  c-0.022-0.009-0.041-0.028-0.067-0.028l-0.966-0.004h-0.001c-0.02,0-0.031,0.015-0.049,0.021c-0.026,0.007-0.049,0.012-0.07,0.029  c-0.02,0.016-0.029,0.035-0.042,0.058c-0.01,0.016-0.027,0.024-0.032,0.043l-0.006,0.022c-0.002,0.007,0.004,0.012,0.003,0.018  c0,0.003-0.004,0.005-0.004,0.009c0,0.002,0.002,0.003,0.002,0.005c-0.001,0.007-0.008,0.012-0.008,0.019l0.002,0.39v0.017  c0,0,0,0,0,0s0,0,0,0l0.002,0.433l-3.288-0.014l-0.006-1.277L91.749,47.929z M88.717,50.623l3.865,0.017l-0.51,0.552h-0.001  l-0.002,0.002c-0.015,0.017-0.013,0.039-0.021,0.058c-0.013,0.027-0.033,0.051-0.032,0.083l0.002,0.094c0,0,0,0,0,0.001  c0,0,0,0,0,0.001l0.072,2.383c0.001,0.028,0.021,0.047,0.031,0.071c0.01,0.021,0.008,0.043,0.023,0.06l0.665,0.703l-0.566,0.406  l-2.531-0.011l-0.999-0.54l-0.01-2.299l0.013-0.047c0.003-0.01-0.005-0.018-0.004-0.026c0.002-0.01,0.011-0.016,0.011-0.024  c0-0.001,0-0.001,0-0.002l0,0L88.717,50.623z M93.036,50.833l0.582,0.003l0.016,3.613l-0.462-0.002l-0.684-0.723l-0.068-2.227  L93.036,50.833z M87.301,52.434c0.007,0.025,0.012,0.046,0.027,0.066c0.006,0.008,0.005,0.019,0.011,0.025  c0.013,0.013,0.033,0.012,0.049,0.021s0.023,0.026,0.041,0.032c0.017,0.004,0.034,0.006,0.051,0.006l0,0l0.788,0.004l0.008,1.839  l-10.832-0.045l-1.484-1.141l-0.004-0.917l1.386-0.68l7.334,0.03l1.263,0.604c0.008,0.004,0.017,0.004,0.024,0.006  c0.004,0.002,0.006,0.007,0.01,0.008c0.017,0.004,0.034,0.007,0.051,0.007l1.258,0.005v0.08  C87.28,52.404,87.296,52.416,87.301,52.434z M87.756,51.9V51.84l-0.009-2.199l0.565,0.003l0.002,0.726c0,0,0.001,0.001,0.001,0.001  s-0.001,0.001-0.001,0.001l0.001,0.054l0.006,1.478L87.756,51.9z M87.765,49.167l-0.002-0.415v-0.017c0,0,0,0,0,0s0,0,0,0  l-0.001-0.21l0.565,0.003l0.003,0.643L87.765,49.167z M74.795,51.182L74.795,51.182c0.051,0,0.094-0.022,0.131-0.055  c0.012-0.01,0.016-0.023,0.024-0.036c0.014-0.019,0.032-0.033,0.039-0.058l0.009-0.031c0.002-0.007-0.004-0.012-0.003-0.019  c0-0.001,0.001-0.001,0.001-0.001c0-0.002-0.002-0.003-0.002-0.004c0-0.002,0-0.002,0-0.003c0.002-0.01,0.011-0.016,0.011-0.026l0,0  c0-0.001,0-0.001,0-0.002l-0.006-1.34l8.765,0.036l0.087,0l3.49,0.015l0.009,2.001l-1.216-0.005l-1.263-0.604  c-0.006-0.003-0.013,0.001-0.019-0.001c-0.007-0.003-0.009-0.01-0.016-0.012c-0.01-0.003-0.017,0.004-0.026,0.003  c-0.009-0.001-0.015-0.011-0.024-0.011l-7.425-0.031H77.36c-0.017,0-0.027,0.015-0.043,0.019c-0.016,0.003-0.03-0.005-0.045,0.003  l-0.014,0.006c0,0,0,0-0.001,0l-1.593,0.781c-0.011,0.006-0.013,0.02-0.022,0.026c-0.021,0.015-0.035,0.032-0.049,0.055  c-0.015,0.022-0.023,0.042-0.028,0.068c-0.002,0.012-0.013,0.02-0.013,0.032l0.001,0.213l0.005,1.141  c0,0.005,0.005,0.008,0.006,0.013c0.001,0.024,0.017,0.044,0.027,0.066c0.012,0.024,0.018,0.049,0.038,0.066  c0.004,0.003,0.003,0.009,0.007,0.012l1.616,1.241c0.034,0.026,0.076,0.039,0.117,0.04c0.001,0,0.002,0.001,0.004,0.001  l11.102,0.047h0.001l1.09,0.59c0.029,0.016,0.062,0.023,0.093,0.023c0.001,0,0.001,0.001,0.002,0.001l2.645,0.011h0.001  c0.04,0,0.081-0.012,0.116-0.037l0.792-0.567l0.619,0.002l0.583,0.003l0.842,0.004h0.001c0.051,0,0.102-0.02,0.141-0.059  l0.834-0.822l0.066-0.064c0-0.001,0-0.002,0.001-0.002c0.017-0.017,0.017-0.043,0.027-0.065c0.011-0.025,0.03-0.048,0.03-0.075  c0,0,0.001-0.001,0.001-0.002l-0.011-2.477c0-0.019-0.016-0.031-0.021-0.049c-0.007-0.025-0.012-0.046-0.028-0.066  c-0.005-0.008-0.004-0.02-0.011-0.025v-0.001l-0.908-0.895c-0.014-0.013-0.032-0.011-0.048-0.019  c-0.016-0.009-0.023-0.027-0.041-0.032c-0.01-0.002-0.017,0.004-0.026,0.003c-0.009-0.001-0.015-0.01-0.024-0.01l-2.189-0.009  l-4.339-0.018l-0.001-0.505l3.224,0.014l5.604,0.023l0.032,7.615L78.942,55.2c0,0,0,0-0.001,0l-0.004-0.001  c-0.025-0.002-0.042,0.014-0.064,0.019c-0.022,0.006-0.044,0.005-0.063,0.018c-0.005,0.003-0.011,0-0.016,0.004l-0.001,0.001  c-0.003,0.002-0.006,0.004-0.008,0.006l-0.289,0.221l-0.3,0.189l-0.326,0.169l-0.338,0.141l-0.344,0.11l-0.354,0.08l-0.365,0.051  l-0.366,0.021l-0.36-0.011l-0.364-0.042l-0.365-0.073l-0.265-0.077l-1.183-2.706c-0.002-0.004-0.007-0.004-0.009-0.008  c-0.006-0.012-0.015-0.018-0.022-0.028c-0.014-0.018-0.029-0.027-0.048-0.04c-0.016-0.011-0.026-0.023-0.043-0.029  c-0.005-0.002-0.006-0.006-0.01-0.008c-0.01-0.002-0.017,0.005-0.026,0.004c-0.009-0.002-0.015-0.01-0.024-0.01l-1.346-0.006  c-0.001-0.003-0.005-0.004-0.006-0.007s0.002-0.007,0-0.011l-0.059-0.131c-0.002-0.004-0.006-0.004-0.008-0.007  c-0.001-0.003,0.001-0.007-0.001-0.011l-0.071-0.125c-0.002-0.004-0.007-0.004-0.01-0.007c-0.002-0.003,0-0.008-0.002-0.011  l-0.084-0.117c-0.002-0.002-0.006-0.002-0.009-0.005c-0.002-0.003,0-0.007-0.003-0.01l-0.095-0.108  c-0.002-0.003-0.007-0.002-0.009-0.004c-0.003-0.004-0.002-0.008-0.005-0.011l-0.105-0.099c-0.003-0.002-0.007-0.001-0.01-0.003  c-0.003-0.003-0.002-0.007-0.005-0.009l-0.114-0.088c-0.003-0.002-0.007-0.001-0.011-0.003c-0.003-0.002-0.003-0.007-0.006-0.009  l-0.123-0.076c-0.003-0.002-0.007,0-0.011-0.001c-0.003-0.002-0.003-0.007-0.007-0.009l-0.13-0.062  c-0.003-0.002-0.007,0-0.011-0.001c-0.003-0.001-0.004-0.006-0.007-0.007l-0.135-0.051c-0.004-0.002-0.007,0.002-0.011,0  c-0.004-0.001-0.005-0.006-0.009-0.006l-0.126-0.033l-0.004-1.009L74.795,51.182z M94.018,50.667l0.037-0.003l0.071-0.001  c0,0,0,0,0.001,0l0.059,0.001l0.016,0.002l0.016,3.785h-0.183L94.018,50.667z M94.603,50.84l0.49,0.002l0.791,0.78l0.01,2.129  l-0.716,0.705l-0.561-0.003L94.603,50.84z M66.293,45.685l-0.22-0.001l-0.002-0.552l0.22,0.001L66.293,45.685z M66.275,44.338  l0.007,0.15c0,0,0,0,0,0l0.006,0.208v0.035l-0.22-0.001l-0.001-0.044c0,0-0.001-0.001-0.001-0.001s0.001-0.001,0.001-0.001  l-0.006-0.212c0-0.001-0.001-0.001-0.001-0.002c0,0,0.001-0.001,0.001-0.002l-0.006-0.13L66.275,44.338z M66.212,46.396l0.004,0.805  L65.995,47.2l-0.003-0.805L66.212,46.396z M65.651,44.485l0.005,0.113l0.005,0.18l0.002,0.201l-0.001,0.21l-0.003,0.205  l-0.006,0.184l-0.007,0.138l-2.55-0.011l-0.003-0.788c0,0,0,0,0-0.001c0,0,0,0,0,0l-0.003-0.241c0,0,0,0,0-0.001c0,0,0,0,0-0.001  l-0.005-0.199L65.651,44.485z M63.042,46.104l2.54,0.011l0.005,1.083l-2.568-0.011l-0.004-0.98L63.042,46.104z M62.696,45.67  l-0.22-0.001l-0.002-0.553l0.22,0.001L62.696,45.67z M62.679,44.323l0.007,0.15l0.005,0.208v0.035l-0.219-0.001l-0.001-0.044  c0,0-0.001-0.001-0.001-0.001s0.001-0.001,0.001-0.001l-0.006-0.213c0-0.001-0.001-0.001-0.001-0.002c0,0,0.001-0.001,0.001-0.002  l-0.006-0.13L62.679,44.323z M62.615,46.38l0.003,0.806l-0.22-0.001l-0.003-0.806L62.615,46.38z M62.087,47.853l11.61,0.049h0.001  c0.056,0,0.105-0.022,0.142-0.059c0.013-0.013,0.013-0.036,0.021-0.052c0.016-0.028,0.037-0.054,0.037-0.088c0,0,0,0,0,0s0,0,0,0  V47.66c0-0.001-0.001-0.001-0.001-0.002s0.001-0.001,0.001-0.002l-0.001-0.04c0,0,0,0,0,0v-0.013l0.101,0.028l0.094,0.037  l0.082,0.043l0.09,0.06l0.08,0.067l0.069,0.072l0.057,0.073l0.056,0.09l0.043,0.09l0.024,0.07l0.002,0.443l-4.533-0.019  l-0.018-0.014c-0.019-0.014-0.04-0.009-0.061-0.016c-0.021-0.007-0.036-0.025-0.059-0.025l-2.581-0.011l-0.428-0.44  c0,0-0.001,0-0.001,0c-0.024-0.025-0.062-0.032-0.098-0.042c-0.015-0.004-0.026-0.018-0.042-0.018c-0.001,0-0.001-0.001-0.002-0.001  l-4.687-0.02V47.853z M70.072,49.397l-0.016,0.123l-0.048,0.115l-0.076,0.099l-0.102,0.077l-0.117,0.047l-0.129,0.017l-0.127-0.017  L69.313,49.8c-0.004-0.001-0.007,0.001-0.011,0s-0.004-0.005-0.008-0.006l-0.005-0.001l-2.27-0.68l-0.45-0.464c0,0-0.001,0-0.001,0  c-0.013-0.013-0.033-0.012-0.049-0.021s-0.023-0.027-0.041-0.032c-0.009-0.003-0.017,0.004-0.026,0.003  c-0.009-0.001-0.015-0.009-0.023-0.01c-0.001,0-0.001,0-0.002,0l-4.324-0.018v-0.099l4.584,0.019l0.428,0.44c0,0,0.001,0,0.001,0  c0.036,0.037,0.086,0.061,0.142,0.061l2.6,0.011l0.018,0.014l0.052,0.039l0.08,0.102l0.049,0.114L70.072,49.397z M58.191,45.701  l0.006-0.219c0,0,0,0,0-0.001s0,0,0-0.001l0.005-0.307c0-0.001-0.001-0.001-0.001-0.002c0,0,0.001-0.001,0.001-0.001v-0.313  c0,0,0,0,0-0.001s0,0,0-0.001l-0.003-0.299c0,0-0.001-0.001-0.001-0.001c0-0.001,0.001-0.001,0.001-0.002l-0.003-0.115l3.859,0.016  l0.002,0.031c0,0-0.001,0.001-0.001,0.001l0.006,0.168l0.003,0.194l0.001,0.21l-0.002,0.213l-0.004,0.199c0,0,0,0,0,0l-0.007,0.177  c0,0,0.001,0.001,0.001,0.001l-0.005,0.068L58.191,45.701z M61.881,49.022L61.881,49.022h0.002h0.007l4.438,0.019l0.428,0.44  c0.013,0.013,0.031,0.011,0.046,0.02c0.015,0.01,0.022,0.027,0.04,0.033l0.005,0.001l2.308,0.691l0.161,0.066  c0.014,0.005,0.027,0.005,0.041,0.008c0.004,0,0.005,0.004,0.009,0.005l0.18,0.024c0.009,0.001,0.018,0.002,0.026,0.002  c0.008,0,0.017,0,0.025-0.002l0.18-0.023c0.004,0,0.005-0.004,0.009-0.005c0.014-0.002,0.027-0.003,0.041-0.008l0.167-0.068  c0.008-0.003,0.009-0.012,0.016-0.016c0.01-0.005,0.021-0.003,0.03-0.01l0.143-0.108c0.009-0.006,0.008-0.019,0.016-0.026  c0.006-0.006,0.017-0.003,0.021-0.011l0.109-0.142c0.005-0.006,0.002-0.014,0.006-0.02c0.006-0.01,0.017-0.015,0.021-0.025  l0.068-0.165c0.002-0.004-0.001-0.008,0-0.012c0.002-0.005,0.007-0.007,0.008-0.012l0.015-0.053  c0.001-0.005-0.003-0.009-0.002-0.014c0.001-0.005,0.007-0.008,0.008-0.014l0.022-0.177c0.001-0.01-0.007-0.017-0.007-0.025  c0-0.01,0.008-0.017,0.007-0.027l-0.024-0.177c-0.001-0.01-0.012-0.015-0.015-0.024c-0.002-0.01,0.004-0.019,0-0.027l-0.035-0.082  l4.198,0.018l0.001,0.331l0.006,1.341l-3.95-0.018h-0.001c-0.056,0-0.105,0.023-0.142,0.059c-0.013,0.014-0.013,0.036-0.021,0.053  c-0.016,0.028-0.037,0.054-0.037,0.088c0,0.001,0,0.001,0,0.001s0,0,0,0.001v0.032c0,0,0,0,0,0.001l0,0l0.005,1.141l-4.557-0.02  l-3.022-0.012h-0.001c-0.001,0-0.002,0-0.003,0l-0.124,0.001l-0.039-0.005l0.04-0.017c0.008-0.003,0.009-0.013,0.017-0.017  c0.009-0.004,0.02-0.003,0.028-0.01l0.055-0.041c0.009-0.007,0.008-0.019,0.015-0.025s0.017-0.004,0.022-0.012l0.042-0.054  c0.005-0.006,0.002-0.015,0.006-0.021c0.006-0.01,0.016-0.015,0.021-0.025l0.026-0.063c0.001-0.002-0.001-0.004,0-0.005l0.002-0.006  c0.004-0.008-0.002-0.017,0-0.025c0.004-0.012,0.015-0.02,0.017-0.031l0.009-0.068c0.001-0.01-0.007-0.018-0.007-0.026  c0-0.011,0.009-0.018,0.007-0.028L63,51.528c-0.002-0.011-0.012-0.016-0.015-0.026c-0.002-0.008,0.004-0.016,0-0.024l-0.027-0.063  c-0.004-0.009-0.015-0.011-0.019-0.019c-0.005-0.007-0.001-0.017-0.007-0.024l-0.042-0.055c-0.006-0.008-0.017-0.006-0.023-0.014  c-0.007-0.007-0.007-0.018-0.015-0.023l-0.056-0.043c-0.008-0.005-0.018-0.002-0.025-0.006c-0.008-0.005-0.01-0.016-0.019-0.02  l-0.064-0.025c-0.009-0.004-0.018,0.002-0.026,0c-0.009-0.003-0.013-0.013-0.022-0.014l-0.068-0.01c-0.01,0-0.017,0.007-0.025,0.008  c-0.011,0-0.017-0.01-0.027-0.008l-0.069,0.01c-0.01,0.001-0.014,0.01-0.022,0.013c-0.009,0.002-0.018-0.004-0.026-0.001  l-0.064,0.026c-0.009,0.004-0.012,0.015-0.02,0.019c-0.009,0.006-0.02,0.002-0.027,0.008l-0.055,0.041  c-0.008,0.006-0.007,0.017-0.014,0.023s-0.018,0.006-0.023,0.014l-0.042,0.055c-0.006,0.008-0.003,0.018-0.007,0.025  c-0.005,0.009-0.016,0.011-0.02,0.02l-0.026,0.064c-0.002,0.004,0.001,0.008,0,0.012c-0.001,0.002-0.004,0.003-0.005,0.006  l-0.005-0.02l-0.005-0.112l0.012-0.12c0-0.003-0.003-0.006-0.003-0.01c0-0.003,0.004-0.005,0.004-0.009  c0-0.02-0.016-0.032-0.021-0.05c-0.006-0.021-0.007-0.043-0.02-0.062c-0.006-0.008-0.008-0.015-0.015-0.021  c-0.014-0.017-0.034-0.02-0.052-0.03c-0.016-0.01-0.023-0.027-0.042-0.032c-0.006-0.002-0.011,0.003-0.017,0.002  s-0.009-0.008-0.015-0.008c-0.003,0-0.006,0.003-0.01,0.003s-0.006-0.004-0.01-0.004l-5.12-0.021l-0.021-0.062  c-0.002-0.005-0.008-0.007-0.01-0.012s0.001-0.009-0.001-0.014l-0.03-0.062c-0.002-0.004-0.008-0.004-0.01-0.008  c-0.003-0.005,0-0.01-0.003-0.015l-0.038-0.057c-0.003-0.004-0.009-0.004-0.012-0.008c-0.003-0.003-0.001-0.009-0.004-0.013  l-0.045-0.051c-0.003-0.004-0.009-0.003-0.013-0.006c-0.003-0.004-0.002-0.01-0.006-0.013l-0.052-0.046  c-0.004-0.003-0.01-0.001-0.014-0.004c-0.004-0.004-0.004-0.01-0.008-0.012l-0.058-0.039c-0.004-0.002-0.01,0-0.014-0.002  s-0.005-0.008-0.009-0.01l-0.062-0.031c-0.004-0.002-0.009,0.002-0.014,0c-0.004-0.002-0.005-0.008-0.01-0.01l-0.064-0.021  c-0.005-0.002-0.009,0.002-0.014,0.001s-0.006-0.007-0.011-0.007l-0.067-0.014c-0.005-0.001-0.009,0.003-0.014,0.002  s-0.008-0.006-0.013-0.006L56.1,50.481c-0.002,0-0.004,0.002-0.006,0.002c-0.003,0-0.004-0.003-0.007-0.003l-1.489-0.006  l0.001-0.066c0,0-0.001,0-0.001-0.001c0,0,0.001,0,0.001-0.001v-0.075v-0.075c0,0,0,0,0,0s0,0,0,0l-0.005-1.264L61.881,49.022z   M61.677,47.704l0.004,0.917l-7.089-0.03l-0.004-0.917L61.677,47.704z M54.183,47.397L54.183,47.397l0.002,0.056l-10.683-0.118  l10.68,0.047L54.183,47.397z M41.218,47.813l2.042,0.022v0.073l-2.043-0.022L41.218,47.813z M37.114,47.768l1.833,0.021  l-0.001,0.073l-1.832-0.021V47.768z M33.358,47.727l1.824,0.02v0.073l-1.824-0.02V47.727z M32.959,47.618l-0.002,0.377v0.001  c0,0.026,0.019,0.044,0.027,0.068c0.011,0.025,0.012,0.054,0.03,0.073c0.022,0.023,0.057,0.027,0.088,0.037  c0.019,0.006,0.032,0.022,0.053,0.023l2.223,0.024l0.027,0c0.001,0,0.002,0,0.003,0h0.001c0.11,0,0.199-0.089,0.2-0.199l0.001-0.162  v-0.002c0,0,0,0,0,0l0.001-0.21l1.104,0.012l-0.002,0.376v0.001c0,0.033,0.021,0.057,0.034,0.084  c0.01,0.019,0.009,0.042,0.023,0.057c0.023,0.023,0.058,0.029,0.091,0.039c0.018,0.006,0.03,0.021,0.05,0.021l2.233,0.025  c0.001,0,0.001,0,0.002,0h0.025c0.001,0,0.001,0,0.001,0c0.11,0,0.199-0.089,0.2-0.2l0.001-0.375l1.443,0.017l-0.001,0.376v0.002  c0,0.033,0.021,0.058,0.035,0.086c0.01,0.018,0.009,0.041,0.022,0.055c0.018,0.018,0.045,0.019,0.067,0.029  c0.024,0.011,0.045,0.031,0.073,0.031l2.442,0.027h0.001h0.001h0.026c0.001,0,0.001,0,0.001,0c0.11,0,0.199-0.089,0.2-0.2  l0.001-0.375l10.501,0.116l0.004,0.938l0.005,1.256l-19.16-0.818l1.574,0.019h0.001h0.001c0.004,0,0.007,0,0.011,0l0.027-0.001  c0.02-0.001,0.029-0.017,0.046-0.023c0.079-0.026,0.143-0.088,0.144-0.176l0.002-0.597v-0.002c0-0.019-0.016-0.032-0.021-0.049  c-0.007-0.025-0.012-0.046-0.027-0.067c-0.005-0.007-0.004-0.018-0.01-0.024c-0.013-0.013-0.033-0.012-0.05-0.021  c-0.015-0.009-0.022-0.027-0.041-0.032c-0.01-0.002-0.017,0.004-0.026,0.003c-0.009-0.001-0.014-0.01-0.023-0.01l-2.252-0.025  c0,0-0.001,0-0.002,0c-0.055,0-0.104,0.022-0.141,0.059c-0.01,0.009-0.009,0.026-0.017,0.038c-0.021,0.031-0.043,0.062-0.043,0.102  c0,0,0.001,0.001,0.001,0.001c0,0.001-0.001,0.001-0.001,0.001v0.103l-0.002,0.494v0.001c0,0.025,0.019,0.042,0.026,0.064  c0.01,0.026,0.012,0.057,0.031,0.077c0.022,0.023,0.057,0.028,0.089,0.038l-2.101-0.09l-0.006-1.499L32.959,47.618z M34.59,48.824  v-0.095l1.824,0.02v0.097L34.59,48.824z M32.23,49.585c0-0.001-0.001-0.002-0.001-0.003c0-0.002,0.002-0.003,0.002-0.005  l0.001-0.049l0.001-0.019l21.964,0.938v0.028l-0.002,0.072c0,0.001,0,0.001,0,0.001c0,0.001,0,0.001,0,0.002l-0.001,0.064  l-0.002,0.051c0,0.002,0.001,0.002,0.001,0.004c0,0.001-0.001,0.002-0.001,0.003c0,0,0,0,0,0.001l0,0v0.003l-0.002,0.038  l-21.964-1.089c0-0.006-0.006-0.01-0.007-0.017C32.222,49.6,32.23,49.594,32.23,49.585z M29.235,47.756c0,0,0.001-0.001,0.001-0.002  v-0.11c0,0,0,0,0-0.001s0,0,0-0.001v-0.046l2.201,0.009v0.002l0.001,0.073l-0.001,0.076L31.437,47.8l-2.201-0.009l0.001-0.033  C29.236,47.758,29.235,47.757,29.235,47.756z M29.147,48.257c0.013-0.011,0.017-0.027,0.026-0.042  c0.005-0.008,0.011-0.016,0.015-0.024L31.37,48.2v0.092l-2.272-0.009C29.115,48.275,29.133,48.271,29.147,48.257z M26.943,47.856  C26.943,47.856,26.943,47.856,26.943,47.856c0-0.001,0-0.001,0-0.001l0.002-0.106c0-0.001-0.001-0.001-0.001-0.002  s0.001-0.001,0.001-0.002v-0.11v-0.107c0-0.001-0.001-0.001-0.001-0.002s0.001-0.001,0.001-0.002l-0.001-0.058l1.89,0.007  l0.001,0.068l0.001,0.105v0.104l-0.002,0.104l-0.002,0.056l-1.89-0.008L26.943,47.856z M12.239,48.175l0.001-0.354l0.157,0.399  l-0.177,0C12.225,48.204,12.239,48.192,12.239,48.175z M11.051,46.828C11.051,46.828,11.051,46.827,11.051,46.828  c0-0.002,0-0.002,0-0.002l0.002-0.106c0,0,0-0.001,0-0.001c0,0,0,0,0-0.001l0.001-0.11c0,0-0.001-0.001-0.001-0.002  s0.001-0.001,0.001-0.002l-0.001-0.107c0,0,0,0,0-0.001c0,0,0,0,0-0.001l-0.001-0.058l0.938,0.002l0.001,0.068l0.001,0.103  l-0.001,0.106l-0.002,0.104l-0.002,0.062c-0.042,0.054-0.066,0.119-0.04,0.188l0.03,0.079c0,0.001,0,0.001,0,0.002l0.103,0.261  c-0.005-0.001-0.009,0.002-0.014,0.002c-0.009-0.001-0.015-0.01-0.024-0.01L11.109,47.4c-0.001,0-0.001,0-0.002,0h-0.001  c-0.008,0-0.013,0.007-0.02,0.008l-0.002-0.416c0-0.034-0.021-0.059-0.036-0.087L11.051,46.828z M11.822,47.867v0.106l-0.518-0.002  l0.001-0.106L11.822,47.867z M10.042,49.268c0-0.001,0.001-0.001,0.001-0.002l0.002-0.181c0,0,0,0,0,0s0,0,0,0l0.001-0.187  c0,0-0.001-0.001-0.001-0.001s0.001-0.001,0.001-0.001l-0.002-0.178c0,0-0.001-0.001-0.001-0.001c0-0.001,0.001-0.001,0.001-0.002  l-0.003-0.109l0.831,0.003c0.007,0.001,0.011,0.007,0.018,0.007l1.8,0.008h0.001c0.016,0,0.032-0.002,0.049-0.006  c0.001,0,0.001-0.001,0.002-0.001l12.744,0.053c0.029,0.016,0.06,0.032,0.094,0.032c0.016,0,0.032-0.002,0.048-0.006l0.089-0.022  c0.006-0.001,0.008-0.008,0.014-0.01c0.011-0.002,0.021-0.002,0.032-0.006l0.001,0h0.001c0,0,0,0,0,0l0.085-0.031  c0.003-0.001,0.003-0.004,0.006-0.005c0.005-0.002,0.01-0.001,0.015-0.003l0.106-0.054c0.003-0.001,0.004-0.006,0.007-0.008  c0.004-0.002,0.009-0.001,0.013-0.004l0.1-0.065c0.003-0.002,0.003-0.006,0.006-0.008c0.004-0.003,0.009-0.002,0.013-0.005  l0.091-0.076c0.003-0.002,0.003-0.007,0.006-0.01s0.008-0.002,0.011-0.005l0.082-0.085c0.004-0.003,0.002-0.009,0.005-0.013  c0.003-0.003,0.008-0.002,0.01-0.005l0.071-0.094c0.003-0.004,0.001-0.009,0.003-0.013c0.003-0.003,0.008-0.002,0.01-0.005  l0.061-0.102c0.002-0.003,0-0.007,0.002-0.011s0.006-0.005,0.008-0.009l0.049-0.107c0.005-0.01-0.002-0.021,0.001-0.032  c0.004-0.008,0.013-0.013,0.016-0.021c0-0.002,0.002-0.002,0.003-0.004c0,0,0.001,0,0.001-0.001v0.045v0.179c0,0,0,0,0,0s0,0,0,0  l0.002,0.372v0.029c0,0.11,0.09,0.185,0.2,0.185c0.012,0,0.02-0.012,0.031-0.015l4.679,0.02v0.004l0.004,0.125l0.002,0.145v0.153  l-0.002,0.153l-0.004,0.142l-0.004,0.091l-21.41-0.09l0.004-0.147C10.043,49.269,10.042,49.269,10.042,49.268z M4.019,49.41  c0,0,0.001-0.001,0.001-0.001l0.005-0.164c0,0-0.001-0.001-0.001-0.001c0-0.001,0.001-0.001,0.001-0.001l0.003-0.181  c0,0,0-0.001,0-0.001c0-0.001,0-0.001,0-0.001l0.001-0.186c0,0-0.001-0.001-0.001-0.001s0.001-0.001,0.001-0.001l-0.002-0.178  c0,0-0.001-0.001-0.001-0.001s0.001-0.001,0.001-0.001l-0.004-0.159c0-0.001-0.001-0.001-0.001-0.002s0.001-0.001,0.001-0.002  l-0.002-0.049l5.616,0.023l0.003,0.069l0.004,0.154l0.002,0.174l-0.001,0.184l-0.002,0.177l-0.005,0.159l-0.005,0.102l-5.617-0.024  l0.004-0.083C4.02,49.411,4.019,49.41,4.019,49.41z"/><path d="M38.002,49.203c0.025,0.025,0.062,0.032,0.098,0.042c0.016,0.004,0.026,0.018,0.043,0.019l2.277,0.026h0.001h0.001  c0.002,0,0.005,0,0.007,0l0.019-0.001c0.001,0,0.001,0,0.001,0c0.001,0,0.001,0,0.001,0s0,0,0.001,0h0.006  c0.016,0,0.023-0.014,0.037-0.018c0.086-0.022,0.155-0.088,0.156-0.182l0.002-0.597V48.49c0-0.019-0.015-0.031-0.021-0.049  c-0.007-0.026-0.012-0.047-0.027-0.068c-0.005-0.007-0.004-0.018-0.01-0.023c-0.013-0.013-0.033-0.012-0.049-0.021  c-0.016-0.009-0.023-0.027-0.042-0.032c-0.01-0.002-0.017,0.004-0.026,0.003c-0.009-0.001-0.014-0.01-0.023-0.01l-2.305-0.025  c-0.001,0-0.001,0-0.002,0c-0.055,0-0.104,0.022-0.141,0.059c-0.01,0.009-0.009,0.026-0.017,0.038  c-0.021,0.031-0.043,0.062-0.043,0.102c0,0,0.001,0.001,0.001,0.001c0,0.001-0.001,0.001-0.001,0.001v0.102l-0.002,0.494v0.001  c0,0.035,0.021,0.062,0.037,0.09C37.99,49.168,37.989,49.19,38.002,49.203z M38.346,48.77l1.877,0.021v0.096l-1.877-0.021V48.77z"/><path d="M42.105,49.249c0.018,0.017,0.045,0.019,0.067,0.029c0.024,0.011,0.045,0.031,0.073,0.031l2.442,0.028h0.001h0.001h0.026  c0.001,0,0.001,0,0.001,0c0.11,0,0.199-0.089,0.2-0.2l0.002-0.597v-0.002c0-0.019-0.016-0.032-0.021-0.049  c-0.007-0.025-0.012-0.047-0.027-0.067c-0.005-0.007-0.004-0.018-0.01-0.024c-0.013-0.013-0.033-0.012-0.049-0.021  c-0.016-0.01-0.023-0.027-0.042-0.032c-0.01-0.002-0.017,0.004-0.025,0.003c-0.01-0.001-0.015-0.01-0.024-0.01l-2.47-0.027  c-0.092,0.001-0.201,0.087-0.202,0.198c0,0,0,0,0,0l-0.001,0.103v0c0,0,0,0,0,0c0,0,0,0.001,0,0.001l-0.001,0.494v0.002  c0,0.034,0.021,0.058,0.035,0.086C42.093,49.211,42.092,49.234,42.105,49.249z M42.449,48.815l2.042,0.022v0.096l-2.043-0.023  L42.449,48.815z"/></svg>