<svg xmlns="http://www.w3.org/2000/svg" xmlns:xlink="http://www.w3.org/1999/xlink" version="1.1" x="0px" y="0px" enable-background="new 0 0 100 100" xml:space="preserve" viewBox="2.78 34.4 94.85 31.58"><path d="M2.982,43.964l5.679,0.01c0,0,0,0,0,0c0.055,0,0.105-0.022,0.142-0.059c0.01-0.011,0.009-0.028,0.017-0.041  c0.02-0.031,0.042-0.061,0.042-0.101c0,0,0,0,0,0v-0.033l12.562,0.023l-0.001,0.739l-0.001,0.759c0,0.11,0.089,0.2,0.2,0.201  l3.187,0.006l0.439,0.309c0.001,0.001,0.004,0.001,0.005,0.002c0.002,0.001,0.001,0.003,0.003,0.004l0.509,0.317  c0.002,0.001,0.005,0,0.007,0.002c0.001,0.001,0.001,0.002,0.002,0.003l0.526,0.289c0.002,0.001,0.004,0,0.006,0.002  c0.001,0,0.001,0.002,0.003,0.003l0.541,0.261c0.002,0.001,0.005,0.001,0.008,0.002c0.001,0,0.001,0.002,0.002,0.002l0.555,0.23  c0.002,0.001,0.005,0,0.008,0.001c0.001,0,0.001,0.002,0.002,0.002l0.566,0.2c0.002,0.001,0.005,0,0.008,0.001  c0.001,0,0.001,0.002,0.002,0.002l0.576,0.168c0.003,0,0.005,0,0.008,0.001c0.001,0,0.001,0.001,0.002,0.001l0.585,0.137  c0.003,0,0.006,0,0.009,0.001c0,0,0.001,0.001,0.001,0.001l0.591,0.105c0.003,0.001,0.006,0,0.009,0.001  c0.001,0,0.001,0.001,0.002,0.001l0.596,0.072c0.003,0,0.007,0,0.01,0c0,0,0,0,0.001,0l0.412,0.027l-0.002,0.652l-0.596-0.001h0  c-0.11,0-0.2,0.089-0.2,0.2l-0.033,13.303c0,0.11,0.089,0.2,0.2,0.2l3.386,0.009h0c0.11,0,0.2-0.089,0.2-0.2l0.033-13.302  c0-0.11-0.089-0.2-0.2-0.201l-0.596-0.001L33,47.639l6.722,0.017l11.054,14.591c0,0.001,0.002,0,0.003,0.002  c0.001,0.001,0.001,0.003,0.001,0.004l0.131,0.16c0.002,0.002,0.006,0.001,0.008,0.003s0,0.006,0.002,0.008l0.143,0.149  c0.002,0.002,0.006,0.001,0.008,0.004c0.002,0.002,0.002,0.005,0.004,0.007l0.154,0.138c0.002,0.002,0.005,0.001,0.008,0.003  c0.002,0.002,0.001,0.005,0.004,0.007l0.163,0.125c0.003,0.002,0.005,0.001,0.008,0.003c0.003,0.001,0.002,0.005,0.005,0.006  l0.172,0.112c0.004,0.002,0.007,0.002,0.01,0.003c0.002,0.001,0.002,0.005,0.004,0.005l0.182,0.1  c0.002,0.002,0.006,0.001,0.01,0.002c0.001,0.002,0.002,0.004,0.004,0.005l0.188,0.085c0.004,0.002,0.007,0.001,0.01,0.002  c0.002,0.001,0.002,0.003,0.004,0.004l0.194,0.07c0.004,0.002,0.008,0.001,0.012,0.002c0.001,0,0.002,0.002,0.003,0.003l0.199,0.055  c0.004,0.001,0.008,0.001,0.012,0.002c0.002,0,0.002,0.001,0.003,0.001l0.202,0.041c0.005,0,0.01,0,0.014,0.001  c0.002,0,0.002,0.001,0.002,0.001l0.205,0.023c0.006,0.001,0.011,0.001,0.016,0.002h0.002c0.002,0,0.004,0,0.006,0h0.001  l0.197,0.008c0.003,0,0.005,0,0.007,0l9.988,0.019l0,0c0.011,0,0.02-0.001,0.029-0.003l0.142-0.021c0.002,0,0.003-0.003,0.005-0.003  c0.008-0.002,0.017-0.001,0.025-0.004l0.137-0.043c0.004,0,0.004-0.005,0.008-0.006c0.007-0.002,0.014-0.002,0.021-0.005  l0.128-0.063c0.005-0.002,0.006-0.008,0.01-0.01c0.006-0.004,0.013-0.002,0.018-0.006l0.117-0.082  c0.006-0.004,0.005-0.011,0.01-0.015c0.004-0.003,0.01-0.002,0.015-0.006l0.103-0.1c0.004-0.005,0.003-0.011,0.007-0.016  c0.003-0.005,0.01-0.003,0.013-0.007l0.087-0.113c0.003-0.004,0.001-0.009,0.003-0.013c0.004-0.006,0.011-0.009,0.014-0.015  l0.068-0.127c0.002-0.004-0.001-0.009,0.001-0.013c0.003-0.006,0.009-0.009,0.011-0.015l0.048-0.136  c0.002-0.005-0.003-0.01-0.001-0.016s0.008-0.009,0.009-0.015l0.025-0.141c0.001-0.006-0.004-0.01-0.003-0.016  c0-0.006,0.006-0.01,0.006-0.016l0.004-0.143c0-0.006-0.006-0.009-0.006-0.015s0.005-0.01,0.004-0.016l-0.019-0.142  c-0.001-0.006-0.007-0.009-0.009-0.015c0-0.005,0.004-0.011,0.002-0.017l-0.039-0.137c-0.002-0.003-0.005-0.004-0.006-0.007  s0.001-0.006,0-0.009l-0.371-0.965c-0.001-0.002-0.003-0.002-0.004-0.004c0-0.002,0.001-0.003,0-0.005l-0.416-0.946  c-0.001-0.002-0.004-0.002-0.004-0.004c-0.001-0.001,0-0.003,0-0.004l-0.461-0.927c-0.001-0.002-0.003-0.002-0.004-0.003  c-0.001-0.002,0-0.004,0-0.006l-0.504-0.902c-0.001-0.002-0.003-0.002-0.004-0.003c-0.001-0.002,0-0.004-0.001-0.005l-0.546-0.879  c0-0.002-0.003-0.002-0.004-0.004c-0.001-0.001,0-0.003-0.001-0.004l-0.586-0.852c-0.001-0.002-0.003-0.002-0.004-0.003  c-0.001-0.002-0.001-0.004-0.001-0.005l-0.626-0.824c-0.001-0.002-0.003-0.001-0.005-0.002c0-0.002,0-0.004-0.001-0.006  l-0.663-0.793c-0.002-0.002-0.004-0.001-0.006-0.002c0-0.002,0-0.004-0.001-0.005l-0.7-0.761c0-0.001-0.003-0.001-0.004-0.002  c-0.001-0.002,0-0.004-0.002-0.005l-0.734-0.728c-0.002-0.001-0.004-0.001-0.006-0.002c0-0.001,0-0.003-0.002-0.004l-0.768-0.693  c-0.001,0-0.003,0-0.004-0.001c-0.002-0.001-0.002-0.004-0.003-0.005l-0.8-0.655c-0.003-0.002-0.006-0.001-0.01-0.003  c-0.002-0.002-0.002-0.006-0.004-0.008l-0.109-0.074l-0.09-0.081l-0.076-0.092l-0.062-0.1l-0.049-0.113l-0.031-0.11l-0.016-0.109  l0.05-0.453l0.11-0.453l0.167-0.439l0.222-0.413l0.271-0.38l0.318-0.345l0.358-0.3l0.395-0.253l0.425-0.202l0.442-0.145l0.459-0.088  l0.475-0.029l2.281,0.004l2.484,0.78l0,0l2.464,0.889l0.327,0.134l0.007,0.121c0,0.004,0.005,0.007,0.005,0.011  s-0.003,0.007-0.002,0.012l0.041,0.245c0,0.004,0.005,0.007,0.006,0.011c0,0.004-0.002,0.007-0.002,0.011l0.068,0.238  c0.002,0.004,0.007,0.007,0.008,0.011c0.002,0.003-0.001,0.007,0,0.01l0.096,0.229c0.002,0.005,0.007,0.007,0.009,0.011  c0.002,0.003-0.001,0.007,0.001,0.01l0.121,0.216c0.002,0.003,0.007,0.002,0.009,0.005c0.003,0.004,0.001,0.01,0.003,0.014  l0.145,0.201c0.003,0.004,0.008,0.002,0.011,0.006s0.001,0.009,0.005,0.012l0.166,0.184c0.003,0.004,0.008,0.002,0.011,0.006  c0.003,0.003,0.003,0.008,0.006,0.012l0.187,0.162c0.004,0.004,0.009,0.002,0.012,0.005c0.004,0.003,0.003,0.007,0.006,0.009  l0.204,0.142c0.004,0.003,0.009,0.002,0.013,0.004s0.004,0.006,0.007,0.008l0.219,0.116c0.005,0.003,0.01,0.002,0.015,0.004  c0.003,0.002,0.004,0.005,0.006,0.006l0.23,0.092c0.006,0.002,0.012,0.001,0.017,0.003c0.003,0.001,0.003,0.003,0.005,0.004  l0.109,0.029l0.119,0.962l0.078,1.096l0.022,1.104v0.001l-0.034,1.091l-0.092,1.094l-0.146,1.088l-0.204,1.09l0,0l-0.255,1.058  l-0.316,1.063l0,0l-0.363,1.026l-0.346,0.837c-0.096-0.036-0.204,0.002-0.248,0.096l-0.477,1.002  c-0.047,0.1-0.004,0.219,0.096,0.266c0,0,0,0,0,0.001l0.176,0.083c0.014,0.006,0.027,0.006,0.041,0.01  c0.005,0.001,0.007,0.006,0.012,0.007l7.822,1.308l0.084,0.035c0.025,0.01,0.052,0.016,0.078,0.016c0.078,0,0.152-0.047,0.184-0.123  l0.428-1.022c0.031-0.074,0.002-0.146-0.048-0.202l0.329-0.889c0-0.002-0.001-0.003,0-0.004c0-0.002,0.002-0.003,0.002-0.004  l0.341-1.055c0.001-0.002-0.001-0.003-0.001-0.005c0.001-0.001,0.003-0.002,0.004-0.004l0.295-1.067c0.001-0.002,0-0.003,0-0.004  c0-0.002,0.002-0.003,0.002-0.004l0.252-1.08c0-0.001-0.002-0.002-0.001-0.004c0-0.002,0.001-0.002,0.002-0.004l0.206-1.089  c0-0.001-0.002-0.003-0.002-0.004c0.001-0.002,0.003-0.003,0.003-0.005l0.159-1.096c0.001-0.002-0.001-0.003,0-0.005  c0-0.001,0.002-0.002,0.002-0.004l0.113-1.103c0-0.001-0.002-0.002-0.001-0.004c0-0.001,0.002-0.002,0.002-0.004l0.067-1.106  c0-0.001-0.002-0.003-0.002-0.004c0-0.002,0.002-0.003,0.002-0.005l0.021-1.107c0-0.002-0.002-0.002-0.002-0.004  s0.002-0.002,0.002-0.004l-0.025-1.107c0-0.002-0.002-0.003-0.002-0.004c0-0.002,0.002-0.004,0.002-0.006l-0.057-0.855l0.855,0.137  l2.141,1.421l2.119,1.538c0.001,0.001,0.001,0,0.001,0.001l2.046,1.619l1.975,1.7l1.799,1.685l-0.531,0.96  c-0.001,0.002,0.001,0.006,0,0.01c-0.002,0.002-0.006,0.002-0.007,0.006l-0.052,0.116c-0.002,0.006,0.002,0.012,0,0.018  s-0.01,0.009-0.012,0.015l-0.031,0.123c-0.001,0.007,0.004,0.013,0.003,0.02c-0.001,0.006-0.008,0.01-0.009,0.016l-0.008,0.128  c-0.001,0.007,0.005,0.011,0.005,0.017s-0.005,0.011-0.005,0.018l0.013,0.127c0.001,0.007,0.007,0.01,0.009,0.017  c0.001,0.006-0.004,0.011-0.002,0.017l0.033,0.123c0.002,0.007,0.01,0.011,0.012,0.018c0.002,0.005-0.001,0.01,0.002,0.016  l0.055,0.115c0.003,0.006,0.01,0.009,0.014,0.016c0.003,0.004,0,0.009,0.004,0.014l0.073,0.104c0.003,0.005,0.011,0.003,0.015,0.008  c0.004,0.006,0.002,0.014,0.008,0.019l0.091,0.09c0.005,0.005,0.012,0.003,0.017,0.007c0.006,0.004,0.005,0.012,0.01,0.016  l0.105,0.072c0.006,0.005,0.014,0.003,0.02,0.007c0.005,0.003,0.006,0.009,0.01,0.011l0.117,0.054  c0.008,0.004,0.016,0.003,0.023,0.005c0.004,0.002,0.004,0.006,0.008,0.006l0.123,0.033c0.01,0.004,0.021,0.004,0.031,0.005  c0.001,0,0.002,0.002,0.004,0.002l0.127,0.011c0.006,0.001,0.012,0.002,0.018,0.002l7.117,0.012c0.001,0,0.001,0,0.001,0  c0.054,0,0.102-0.021,0.138-0.057c0.013-0.012,0.014-0.031,0.022-0.047c0.017-0.026,0.037-0.05,0.04-0.082l1.245-18.478l0.161-2.393  c0.001-0.018-0.013-0.03-0.016-0.047c-0.005-0.026-0.01-0.047-0.023-0.069c-0.015-0.022-0.031-0.035-0.054-0.051  c-0.014-0.01-0.019-0.027-0.035-0.033l-3.952-1.515c-0.012-0.005-0.023,0.003-0.036,0.001c-0.013-0.003-0.021-0.015-0.034-0.015  l-43.47-0.08l0.066-0.217l0.18-0.441l0.227-0.437l0.261-0.406l0.298-0.382l0.332-0.353l0.361-0.319l0.395-0.289l0.412-0.248  l0.122-0.058l1.192,0.002h0.001c0.003,0,0.003-0.002,0.006-0.002l1.495,0.267c0.012,0.002,0.023,0.003,0.035,0.003l7.201,0.014  c0.001,0,0.001,0,0.001,0c0.11,0,0.2-0.089,0.2-0.2l0.006-2.926c0-0.111-0.09-0.2-0.2-0.201l-7.202-0.013l0,0  c-0.006,0-0.01,0.006-0.017,0.007s-0.011-0.005-0.017-0.004l-1.521,0.26L41.99,34.64c0,0,0,0,0,0c-0.11,0-0.2,0.089-0.2,0.2  l-0.003,1.834l-3.617,2.13l-0.3,0.177l-0.293,0.173l-2.417,1.424l-13.527-0.025c0,0,0,0,0,0c-0.11,0-0.2,0.089-0.2,0.2v0.095  L8.868,40.825v-0.033c0-0.11-0.089-0.2-0.2-0.201l-5.679-0.01c0,0,0,0,0,0c-0.11,0-0.2,0.089-0.2,0.2l-0.005,2.983  C2.783,43.874,2.872,43.964,2.982,43.964z M55.594,34.8l6.802,0.012l-0.005,2.525l-6.801-0.013L55.594,34.8z M54.057,35.066v-0.036  l1.137-0.194l-0.004,2.449l-1.136-0.203L54.057,35.066z M33.393,48.68l-0.032,12.902l-2.986-0.007l0.032-12.902l0.596,0.001  l1.793,0.004L33.393,48.68z M31.205,48.274l0.002-0.64l1.393,0.003l-0.001,0.64L31.205,48.274z M58.07,47.8  c-0.004,0.002-0.004,0.007-0.008,0.01c-0.005,0.002-0.01,0-0.014,0.002l-0.416,0.267c-0.004,0.003-0.004,0.008-0.008,0.011  c-0.004,0.002-0.008,0.001-0.012,0.004l-0.379,0.317c-0.004,0.003-0.004,0.009-0.007,0.012c-0.003,0.003-0.009,0.002-0.013,0.006  l-0.334,0.363c-0.004,0.003-0.002,0.009-0.006,0.013c-0.002,0.004-0.008,0.003-0.011,0.007l-0.286,0.402  c-0.003,0.004,0,0.009-0.003,0.013s-0.008,0.004-0.011,0.008l-0.232,0.435c-0.003,0.004,0,0.009-0.002,0.014  c-0.002,0.004-0.008,0.005-0.01,0.01l-0.176,0.461c-0.002,0.004,0.002,0.009,0.001,0.014s-0.007,0.006-0.008,0.011l-0.116,0.479  c-0.001,0.006,0.003,0.01,0.002,0.014c0,0.005-0.006,0.007-0.006,0.012l-0.055,0.491c-0.002,0.009,0.006,0.016,0.007,0.024  c0,0.01-0.009,0.016-0.007,0.025l0.021,0.146c0.001,0.005,0.007,0.009,0.007,0.014c0.002,0.005-0.002,0.009-0.001,0.013l0.04,0.142  c0.002,0.005,0.007,0.008,0.009,0.013s-0.001,0.01,0.001,0.014l0.059,0.135c0.003,0.006,0.009,0.008,0.012,0.014  c0.002,0.004,0,0.008,0.002,0.012l0.078,0.125c0.002,0.004,0.008,0.002,0.011,0.006c0.003,0.005,0.001,0.012,0.005,0.016  l0.094,0.113c0.004,0.004,0.01,0.003,0.014,0.006c0.004,0.005,0.002,0.012,0.006,0.016l0.109,0.098  c0.004,0.004,0.01,0.003,0.014,0.006s0.004,0.009,0.008,0.012l0.111,0.076l0.796,0.651c0,0,0,0,0.001,0l0.756,0.682l0.732,0.725  l0.688,0.748l0.66,0.79l0.623,0.82l0.574,0.836l0.543,0.875l0.499,0.894l0.456,0.918l0.415,0.942l0.364,0.947l0.034,0.115  l0.015,0.113l-0.002,0.108l-0.021,0.11l-0.038,0.108l-0.051,0.097l-0.068,0.09l-0.08,0.077l-0.092,0.065l-0.101,0.049l-0.107,0.033  l-0.108,0.017l-9.975-0.019c-0.001,0-0.001,0-0.001,0s0,0.001-0.001,0.001l-0.188-0.008l-0.191-0.022l-0.188-0.037l-0.186-0.051  l-0.18-0.065l-0.172-0.078l-0.168-0.091l-0.162-0.106l-0.15-0.115l-0.141-0.126l-0.135-0.141L51.09,62L40.223,47.656l2.991,0.005  l-0.127,0.102c-0.003,0.003-0.003,0.008-0.006,0.011c-0.003,0.003-0.008,0.002-0.011,0.005l-0.152,0.155  c-0.003,0.003-0.002,0.009-0.005,0.012c-0.003,0.004-0.009,0.003-0.012,0.007l-0.131,0.172c-0.003,0.003-0.001,0.008-0.003,0.012  s-0.007,0.004-0.01,0.008l-0.109,0.187c-0.002,0.004,0,0.009-0.002,0.014c-0.002,0.004-0.007,0.004-0.009,0.009l-0.085,0.199  c-0.002,0.004,0.001,0.008,0,0.013c-0.002,0.004-0.007,0.005-0.008,0.01l-0.061,0.208c-0.001,0.005,0.002,0.009,0.001,0.013  s-0.006,0.006-0.007,0.011l-0.034,0.214c0,0.001,0,0.001,0,0.002c-0.004,0.025,0.011,0.049,0.018,0.075  c0.006,0.025,0.004,0.053,0.019,0.074c0,0,0,0.001,0,0.001l9.4,12.497c0.001,0.001,0.003,0.001,0.004,0.001  c0,0.002,0,0.004,0.001,0.006l0.077,0.094c0.002,0.003,0.006,0.002,0.008,0.004s0,0.006,0.002,0.008l0.084,0.088  c0.002,0.002,0.006,0.002,0.008,0.004s0.001,0.006,0.004,0.008l0.09,0.082c0.003,0.002,0.007,0.001,0.01,0.003  c0.002,0.002,0.001,0.005,0.004,0.007l0.096,0.074c0.003,0.002,0.006,0.001,0.008,0.003c0.002,0.001,0.002,0.004,0.004,0.005  l0.104,0.068c0.002,0.002,0.006,0,0.009,0.002c0.002,0.002,0.002,0.005,0.005,0.006l0.106,0.059c0.003,0.002,0.007,0.001,0.01,0.002  c0.002,0.002,0.002,0.004,0.004,0.005l0.111,0.05c0.003,0.002,0.007,0.002,0.011,0.003c0.001,0.001,0.002,0.003,0.004,0.003  l0.115,0.043c0.003,0.001,0.007,0,0.01,0.002c0.002,0,0.003,0.002,0.004,0.002l0.118,0.033c0.005,0.001,0.009,0.001,0.013,0.002  c0.001,0,0.002,0.001,0.002,0.002l0.12,0.023c0.005,0,0.009,0,0.013,0.001c0.001,0,0.001,0.001,0.002,0.001l0.121,0.015  c0.009,0.001,0.017,0.001,0.024,0.001c0,0,0,0,0.001,0l0.113,0.005c0.002,0,0.005,0,0.008,0.001l3.746,0.006  c0.001,0,0.001,0,0.001,0c0.021,0,0.04-0.002,0.06-0.009l0.18-0.056c0.004-0.002,0.004-0.006,0.008-0.008  c0.008-0.002,0.015-0.002,0.021-0.005l0.168-0.084c0.004-0.003,0.005-0.009,0.01-0.011c0.005-0.004,0.012-0.002,0.018-0.006  l0.15-0.11c0.006-0.004,0.005-0.011,0.01-0.015c0.004-0.004,0.012-0.002,0.016-0.007l0.131-0.134  c0.006-0.004,0.004-0.012,0.008-0.018c0.004-0.004,0.01-0.002,0.014-0.007l0.107-0.153c0.004-0.004,0.001-0.009,0.004-0.013  c0.003-0.006,0.01-0.009,0.013-0.015l0.082-0.168c0.003-0.006-0.001-0.011,0.001-0.016c0.002-0.006,0.01-0.01,0.012-0.016  l0.053-0.18c0.001-0.006-0.004-0.011-0.002-0.017c0.001-0.006,0.007-0.009,0.008-0.015l0.023-0.186  c0.001-0.007-0.005-0.011-0.004-0.018c0-0.006,0.006-0.01,0.006-0.016l-0.008-0.188c0-0.006-0.006-0.01-0.007-0.016  s0.004-0.01,0.003-0.016l-0.037-0.184c-0.002-0.006-0.008-0.008-0.01-0.014s0.003-0.012,0-0.018l-0.066-0.175  c-0.002-0.006-0.01-0.007-0.012-0.013c-0.003-0.005,0-0.012-0.002-0.017l-0.095-0.161c-0.001-0.002-0.003-0.002-0.003-0.003  c-0.001-0.001,0-0.003-0.001-0.004l-6.181-9.793c-0.004-0.007-0.013-0.007-0.018-0.013c-0.018-0.021-0.038-0.03-0.062-0.043  c-0.023-0.012-0.042-0.025-0.067-0.028c-0.008-0.001-0.014-0.009-0.021-0.009l-1.641-0.003l0.001-0.561l0.004-2.184l8.38,0.016  L58.07,47.8z M48.048,49.011c0.001-0.003,0.005-0.005,0.006-0.009l0.057-0.208c0.001-0.003-0.002-0.007-0.001-0.01  c0.001-0.004,0.005-0.006,0.006-0.01l0.035-0.213c0-0.003-0.003-0.006-0.002-0.01s0.005-0.006,0.005-0.01l0.014-0.215  c0-0.004-0.003-0.006-0.003-0.01c0-0.003,0.003-0.006,0.003-0.009L48.16,48.09c0-0.004-0.004-0.006-0.004-0.01  c0-0.004,0.003-0.007,0.003-0.011l-0.029-0.214c0-0.004-0.005-0.005-0.005-0.009c-0.001-0.004,0.002-0.007,0.001-0.01l-0.04-0.166  l1.439,0.002l-0.003,1.983l-1.792-0.003l0.003-0.004c0.003-0.003,0.001-0.008,0.003-0.012c0.001-0.003,0.006-0.001,0.008-0.004  l0.115-0.182c0.001-0.003,0-0.006,0.001-0.009c0.002-0.004,0.007-0.005,0.009-0.009l0.096-0.193c0.001-0.002,0-0.005,0-0.008  c0.002-0.004,0.006-0.005,0.007-0.009l0.077-0.202C48.05,49.018,48.047,49.014,48.048,49.011z M47.754,48.507l-0.032,0.192  l-0.051,0.187l-0.071,0.186l-0.087,0.175l-0.104,0.164l-0.122,0.156l-0.138,0.145c0,0,0,0,0,0l-0.003,0.003  c-0.017,0.017-0.015,0.041-0.024,0.062c-0.012,0.025-0.032,0.046-0.032,0.076c0,0.001,0.001,0.001,0.001,0.002  c0,0.024,0.019,0.044,0.028,0.067c0.01,0.025,0.013,0.054,0.032,0.073c0,0,0,0.001,0.001,0.002c0.035,0.034,0.081,0.047,0.125,0.051  c0.005,0,0.007,0.005,0.012,0.005l2.228,0.004l-0.001,0.561c0,0.111,0.089,0.201,0.2,0.201l1.731,0.003l6.119,9.696l0.084,0.145  l0.057,0.146l0.031,0.149l0.006,0.155l-0.02,0.151l-0.044,0.149l-0.066,0.137l-0.091,0.129l-0.107,0.109l-0.124,0.09l-0.138,0.069  l-0.135,0.042l-3.717-0.006l0,0l0,0l-0.103-0.004l-0.111-0.014l-0.101-0.02l-0.107-0.03l-0.1-0.036l-0.097-0.044l-0.094-0.052  l-0.089-0.058l-0.082-0.063l-0.084-0.075l-0.068-0.073l-0.075-0.092h-0.001L42.85,49.002l0.019-0.116l0.055-0.188l0.075-0.174  l0.097-0.165l0.118-0.154l0.133-0.136l0.152-0.122l0.16-0.099l0.177-0.08l0.183-0.058l0.19-0.035l0.195-0.012l3.264,0.006  l0.021,0.061l0.045,0.188l0.027,0.199l0.006,0.19L47.754,48.507z M75.285,65.54l-7.744-1.294l0.301-0.634c0.001,0,0.001,0,0.002,0  c0.001,0.001,0.001,0.003,0.002,0.003c0.012,0.005,0.023,0.004,0.035,0.007c0.004,0.001,0.006,0.005,0.009,0.005l7.664,1.27  L75.285,65.54z M77.357,54.975l-0.021,1.107l-0.066,1.099l-0.112,1.089l-0.159,1.091l-0.203,1.074c0,0.001,0,0.001,0,0.001  l-0.25,1.074l-0.293,1.06l-0.34,1.052l-0.324,0.876l-7.385-1.224l0.328-0.792c0-0.002-0.001-0.003,0-0.005  c0-0.002,0.002-0.003,0.003-0.005l0.37-1.046c0-0.002-0.001-0.003-0.001-0.004c0.001-0.002,0.003-0.003,0.004-0.006l0.315-1.062  c0.001-0.002,0-0.004,0-0.006s0.002-0.002,0.003-0.004l0.261-1.078c0-0.002-0.002-0.004-0.001-0.005  c0.001-0.002,0.003-0.003,0.003-0.005l0.205-1.091c0-0.002-0.002-0.003-0.002-0.005s0.003-0.004,0.003-0.006l0.148-1.099  c0-0.002-0.001-0.003-0.001-0.005s0.002-0.004,0.002-0.006l0.092-1.105c0-0.002-0.002-0.003-0.002-0.005s0.002-0.003,0.002-0.005  l0.035-1.108c0-0.002-0.001-0.003-0.001-0.005s0.002-0.003,0.002-0.006l-0.022-1.108c0-0.002-0.002-0.003-0.002-0.005  s0.002-0.004,0.002-0.006l-0.08-1.105c0-0.002-0.002-0.004-0.002-0.006s0.002-0.003,0.002-0.005l-0.104-0.837l7.506,1.199  l0.061,0.947l0,0L77.357,54.975L77.357,54.975z M95.834,63.068l-6.925-0.012l-0.101-0.01l-0.086-0.023l-0.088-0.04l-0.076-0.053  l-0.065-0.064l-0.055-0.077l-0.039-0.081l-0.025-0.091l-0.009-0.094l0.006-0.094l0.023-0.09l0.039-0.088l0.604-1.092  c0.009-0.018,0.002-0.036,0.006-0.054c0.006-0.026,0.012-0.048,0.008-0.073c-0.004-0.026-0.017-0.045-0.03-0.067  c-0.01-0.016-0.009-0.036-0.022-0.049l-1.912-1.791c-0.002-0.001-0.003-0.001-0.004-0.002c-0.002-0.001-0.002-0.003-0.002-0.003  l-1.986-1.711c0,0-0.002,0-0.004-0.001c-0.001-0.001,0-0.003-0.002-0.004l-2.055-1.626c-0.001-0.001-0.002,0-0.004-0.001  s-0.001-0.003-0.002-0.005l-2.121-1.538c-0.001-0.001-0.003,0-0.004-0.001c-0.002-0.001-0.001-0.003-0.002-0.004l-2.184-1.449  c-0.014-0.008-0.028-0.003-0.043-0.008c-0.014-0.006-0.021-0.02-0.036-0.022l-1.146-0.183l-7.913-1.265l-0.224-0.06l-0.208-0.082  l-0.196-0.105l-0.187-0.129l-0.171-0.149l-0.148-0.163l-0.135-0.188l-0.107-0.193l-0.086-0.206l-0.062-0.219l-0.037-0.222  l-0.013-0.235c-0.001-0.013-0.013-0.02-0.015-0.032c-0.006-0.026-0.018-0.046-0.033-0.068c-0.016-0.021-0.029-0.037-0.051-0.05  c-0.011-0.007-0.014-0.02-0.025-0.025l-0.447-0.183c-0.002,0-0.004,0-0.005,0s-0.002-0.002-0.003-0.003l-2.479-0.894  c-0.001,0-0.002,0-0.004,0c-0.002-0.001-0.002-0.003-0.004-0.003l-1.525-0.479l33.637-2.607L95.834,63.068z M93.471,43.542  L93.471,43.542c0.11,0,0.199-0.089,0.2-0.2l0.003-1.699l0.002-0.469l3.542,1.358l-0.14,2.073l-34.714,2.69l-2.313-0.004  l-10.326-0.019L47.81,47.27l-3.411-0.006l-4.579-0.008L32.8,47.238l-1.788-0.004l-0.586-0.039l-0.591-0.072l-0.572-0.102  l-0.579-0.135l-0.565-0.166l-0.554-0.195l-0.542-0.225l-0.536-0.258l-0.51-0.28l-0.509-0.317c0,0,0,0,0,0l-0.397-0.279l0.001-0.655  c0-0.003-0.003-0.004-0.003-0.007s0.003-0.004,0.003-0.007l0.005-2.777l68.196,0.124l-0.003,1.499  C93.271,43.452,93.359,43.542,93.471,43.542z M37.779,39.499l0.293-0.173l0.3-0.177l3.715-2.188  c0.008-0.005,0.008-0.015,0.016-0.021c0.021-0.017,0.031-0.036,0.045-0.06c0.013-0.023,0.025-0.042,0.028-0.067  c0.001-0.009,0.01-0.015,0.01-0.024l0.003-1.748l11.467,0.021v0.004l-0.002,1.609c-0.016,0-0.028-0.01-0.043-0.005l-0.295,0.08  c-0.004,0.001-0.005,0.005-0.008,0.006c-0.004,0.001-0.007-0.002-0.01,0l-0.473,0.175c-0.003,0.001-0.004,0.005-0.007,0.007  c-0.003,0.001-0.007-0.001-0.01,0l-0.282,0.136l-0.171,0.082c-0.003,0.001-0.003,0.006-0.007,0.007c-0.003,0.001-0.006,0-0.01,0.001  l-0.431,0.259c-0.003,0.002-0.003,0.006-0.005,0.007c-0.004,0.002-0.008,0-0.01,0.002l-0.406,0.297  c-0.003,0.002-0.002,0.006-0.006,0.009c-0.002,0.002-0.006,0.001-0.008,0.003l-0.377,0.333c-0.003,0.002-0.002,0.006-0.005,0.009  s-0.007,0.001-0.009,0.004l-0.345,0.367c-0.003,0.002-0.001,0.007-0.003,0.009c-0.003,0.002-0.007,0.002-0.01,0.005l-0.309,0.396  c-0.002,0.003,0,0.006-0.002,0.009c-0.002,0.003-0.006,0.003-0.008,0.006l-0.272,0.423c-0.002,0.003,0,0.006-0.001,0.009  c-0.002,0.003-0.006,0.003-0.008,0.006l-0.231,0.446c-0.002,0.003,0,0.007-0.001,0.01s-0.005,0.004-0.006,0.007l-0.189,0.466  c-0.001,0.003,0.001,0.006,0,0.009c-0.001,0.003-0.005,0.004-0.006,0.008l-0.103,0.339l-0.734-0.001l0.034-0.145l0.113-0.374  l0.139-0.375l0.156-0.352l0.183-0.35l0.206-0.342l0.221-0.319l0.25-0.316l0.254-0.284l0.289-0.285  c0.005-0.005,0.003-0.013,0.008-0.019c0.017-0.02,0.021-0.042,0.028-0.067c0.008-0.025,0.019-0.047,0.016-0.073  c0-0.007,0.006-0.012,0.004-0.019l-0.012-0.07c-0.002-0.005-0.007-0.007-0.008-0.012s0.002-0.009,0.001-0.013l-0.021-0.067  c-0.001-0.004-0.007-0.005-0.009-0.01c-0.001-0.004,0.002-0.009,0-0.013l-0.029-0.065c-0.002-0.004-0.008-0.004-0.01-0.008  s0.001-0.008-0.002-0.012l-0.036-0.061c-0.003-0.004-0.008-0.004-0.011-0.008c-0.002-0.004,0-0.009-0.004-0.013l-0.043-0.056  c-0.004-0.004-0.009-0.003-0.012-0.006c-0.004-0.003-0.002-0.009-0.006-0.012l-0.051-0.05c-0.002-0.003-0.007-0.002-0.011-0.004  c-0.003-0.003-0.002-0.008-0.006-0.011l-0.056-0.043c-0.003-0.003-0.008-0.001-0.012-0.003c-0.003-0.003-0.003-0.008-0.007-0.01  L50.353,36.7c-0.011-0.007-0.024-0.001-0.036-0.006c-0.009-0.005-0.013-0.018-0.022-0.022c-0.014-0.006-0.028,0.002-0.042,0  c-0.001,0-0.002-0.001-0.003-0.001h-0.079c-0.009,0.002-0.02-0.003-0.029,0l-6.511-0.011c0,0,0,0,0,0  c-0.02,0-0.032,0.016-0.05,0.021c-0.018,0.004-0.036-0.002-0.052,0.007l-0.631,0.377c0,0,0,0,0,0.001l-3.17,1.896c0,0,0,0-0.001,0  l-2.438,1.458l-0.271,0.162l-1.07-0.002L37.779,39.499z M48.626,39.956c-0.001,0.002-0.004,0.003-0.004,0.005l-0.118,0.389  c0,0.002,0.001,0.004,0,0.007c0,0.002-0.003,0.003-0.004,0.005l-0.057,0.241l-8.085-0.015c0,0,0,0,0,0h-0.039h-0.042l-2.484-0.004  l2.136-1.278c0,0,0,0,0-0.001l3.123-1.868l7.091,0.013l-0.013,0.013c-0.002,0.002-0.001,0.005-0.003,0.007  c-0.001,0.001-0.004,0.001-0.005,0.002l-0.271,0.302c-0.001,0.002,0,0.004-0.002,0.006s-0.005,0.001-0.006,0.003l-0.251,0.319  c-0.001,0.002,0,0.005-0.002,0.007s-0.004,0.001-0.005,0.003l-0.231,0.334c-0.001,0.002,0,0.004-0.001,0.006  c-0.001,0.002-0.004,0.002-0.005,0.004l-0.21,0.348c-0.001,0.002,0,0.005-0.001,0.007s-0.004,0.002-0.005,0.004l-0.188,0.36  c-0.001,0.002,0,0.005,0,0.007c-0.001,0.002-0.004,0.002-0.005,0.004l-0.165,0.371c-0.001,0.002,0,0.004,0,0.006  c-0.001,0.002-0.004,0.002-0.005,0.005l-0.142,0.381C48.625,39.951,48.626,39.954,48.626,39.956z M21.831,41.049v-0.095  l13.382,0.024l1.857,0.003l0.318,0l2.888,0.005c0,0,0,0,0,0c0.008,0,0.013-0.007,0.021-0.008c0.008,0.001,0.014,0.008,0.022,0.008  c0.007,0,0.012-0.007,0.019-0.008c0.005,0,0.008,0.005,0.013,0.005c0.002,0,0.004,0.002,0.006,0.002l8.244,0.015l1.134,0.002  l43.539,0.08l-0.001,0.358l-68.396-0.125l-3.048-0.005L21.831,41.049z M21.826,43.565l0.003-1.852l2.848,0.005l-0.004,2.591  l-2.848-0.005L21.826,43.565z M21.824,44.705l2.848,0.005l0,0.359l-2.848-0.005L21.824,44.705z M8.867,41.226l12.563,0.022l0,0.264  l-0.003,1.852L8.863,43.341L8.867,41.226z M3.188,40.982l5.279,0.009v0.033l-0.005,2.516c0,0,0,0,0,0v0.033l-5.278-0.009  L3.188,40.982z"/></svg>