<svg xmlns="http://www.w3.org/2000/svg" xmlns:xlink="http://www.w3.org/1999/xlink" version="1.1" x="0px" y="0px" enable-background="new 0 0 100 100" xml:space="preserve" viewBox="3.56 42.43 94.85 16.67"><path d="M97.416,49.167c-0.001-0.01-0.011-0.015-0.014-0.023c-0.002-0.01,0.004-0.019,0-0.028l-0.05-0.119  c-0.004-0.009-0.015-0.011-0.02-0.019c-0.005-0.008-0.001-0.018-0.007-0.025l-0.078-0.102c-0.006-0.008-0.016-0.007-0.022-0.013  c-0.007-0.007-0.006-0.018-0.014-0.024l-0.102-0.078c-0.008-0.006-0.018-0.002-0.026-0.007c-0.008-0.004-0.01-0.015-0.019-0.019  l-0.118-0.049c-0.009-0.004-0.018,0.002-0.027,0c-0.009-0.002-0.014-0.012-0.023-0.014L96.77,48.63  c-0.01-0.001-0.017,0.007-0.026,0.007c-0.01,0-0.017-0.009-0.026-0.007l-0.127,0.017c-0.01,0.001-0.015,0.011-0.023,0.014  c-0.01,0.002-0.019-0.004-0.027,0l-0.118,0.049c-0.009,0.004-0.011,0.014-0.019,0.019s-0.018,0.001-0.025,0.007l-0.103,0.078  c-0.008,0.006-0.007,0.017-0.014,0.024s-0.019,0.006-0.024,0.014l-0.077,0.102c-0.006,0.007-0.002,0.017-0.007,0.025  c-0.005,0.008-0.015,0.009-0.019,0.018l-0.05,0.119c-0.004,0.01,0.002,0.019,0,0.028c-0.003,0.009-0.013,0.014-0.014,0.023  l-0.017,0.127c-0.001,0.01,0.007,0.017,0.007,0.026s-0.008,0.016-0.007,0.026l0.017,0.127c0.001,0.01,0.011,0.016,0.014,0.025  c0.002,0.009-0.004,0.018,0,0.026l0.05,0.118c0.005,0.01,0.015,0.015,0.021,0.024c0.004,0.006,0.001,0.014,0.005,0.019l0.077,0.102  c0.006,0.007,0.016,0.005,0.022,0.011c0.008,0.008,0.007,0.02,0.016,0.027l0.103,0.078c0.009,0.006,0.02,0.004,0.028,0.009  c0.007,0.004,0.008,0.013,0.016,0.016l0.118,0.049c0.014,0.006,0.027,0.006,0.042,0.008c0.003,0,0.005,0.005,0.009,0.005  l0.127,0.017c0.009,0.001,0.018,0.002,0.026,0.002s0.018-0.001,0.026-0.002l0.127-0.017c0.004,0,0.006-0.005,0.009-0.005  c0.015-0.002,0.028-0.002,0.042-0.008l0.118-0.049c0.008-0.003,0.009-0.012,0.016-0.016c0.01-0.005,0.021-0.003,0.029-0.01  l0.102-0.078c0.009-0.007,0.008-0.019,0.015-0.026c0.006-0.006,0.017-0.003,0.021-0.01l0.078-0.102  c0.004-0.005,0.002-0.013,0.005-0.019c0.007-0.01,0.017-0.015,0.021-0.025l0.05-0.118c0.004-0.009-0.002-0.018,0-0.026  c0.003-0.01,0.013-0.015,0.014-0.025l0.017-0.127c0.001-0.01-0.007-0.017-0.007-0.026s0.008-0.016,0.007-0.026L97.416,49.167z   M97.023,49.393l-0.03,0.072l-0.045,0.058l-0.062,0.047l-0.069,0.029l-0.074,0.01l-0.074-0.01l-0.07-0.029l-0.061-0.046  l-0.045-0.059l-0.03-0.072l-0.01-0.073l0.01-0.073l0.03-0.072l0.045-0.059l0.061-0.046l0.07-0.029l0.074-0.01l0.074,0.01  l0.069,0.029l0.062,0.047l0.045,0.058l0.03,0.072l0.01,0.073L97.023,49.393z"/><path d="M3.761,47.224h3.991v1.687c0,0.11,0.09,0.2,0.2,0.2h7.761v0.036c0,0.11,0.09,0.2,0.2,0.2h2.342  c0.029,0.074,0.088,0.134,0.173,0.134h0.247l-0.027,0.062l-0.041,0.08l-0.046,0.079l-0.035,0.051l-0.046,0.058l-0.032,0.034  l-0.026,0.021l-0.013,0.008h-0.007c-0.111,0.001-0.179,0.092-0.178,0.202c0.002,0.11,0.111,0.198,0.221,0.198  c0.001,0,0.002,0,0.002,0h0.001l24.238-0.372c0.026,0,0.045-0.02,0.068-0.029c0.024-0.011,0.053-0.013,0.07-0.031  c0.02-0.019,0.021-0.048,0.031-0.073c0.009-0.023,0.027-0.041,0.027-0.066v-0.221h6.895c0.11,0,0.2-0.09,0.2-0.2v-0.54h0.741h7.12  h1.145v1.052c0,0.003,0.003,0.005,0.004,0.008c0,0.003-0.003,0.005-0.003,0.008l0.007,0.084c0,0.005,0.006,0.008,0.006,0.013  c0.001,0.004-0.003,0.008-0.002,0.013l0.018,0.083c0.001,0.004,0.005,0.006,0.006,0.01s-0.002,0.007-0.001,0.011l0.026,0.08  c0.002,0.005,0.007,0.007,0.009,0.012c0.002,0.004-0.001,0.008,0.001,0.011l0.036,0.076c0.002,0.005,0.008,0.007,0.01,0.011  c0.002,0.003,0,0.006,0.002,0.009l0.045,0.071c0.002,0.003,0.008,0.002,0.01,0.005c0.004,0.005,0.001,0.011,0.005,0.015l0.054,0.065  c0.003,0.003,0.008,0.002,0.011,0.005c0.003,0.003,0.002,0.008,0.005,0.012l0.061,0.059c0.003,0.003,0.009,0.002,0.012,0.005  c0.004,0.003,0.003,0.008,0.007,0.011l0.067,0.051c0.004,0.003,0.009,0.002,0.014,0.004c0.003,0.003,0.003,0.008,0.007,0.01  l0.073,0.042c0.004,0.003,0.01,0.001,0.014,0.004c0.003,0.001,0.003,0.005,0.006,0.006l0.077,0.034  c0.006,0.002,0.012,0.002,0.019,0.004c0.002,0,0.003,0.004,0.006,0.004l0.081,0.023c0.007,0.002,0.013,0.002,0.02,0.004  c0.002,0,0.002,0.002,0.004,0.002l0.083,0.014c0.002,0,0.003,0,0.005,0l0.001,0.001l3.467,0.464l0.015,0.089  c0.001,0.006,0.007,0.009,0.008,0.014s-0.003,0.01-0.001,0.015l0.073,0.225c0.002,0.006,0.009,0.009,0.011,0.015  c0.002,0.004-0.001,0.009,0.001,0.013l0.105,0.212c0.003,0.006,0.009,0.008,0.012,0.013c0.003,0.004,0,0.009,0.003,0.012  l0.135,0.194c0.003,0.004,0.009,0.003,0.012,0.007c0.004,0.005,0.002,0.012,0.007,0.017l0.163,0.173  c0.004,0.004,0.01,0.002,0.014,0.006s0.004,0.01,0.008,0.014l0.186,0.146c0.005,0.004,0.012,0.003,0.017,0.006  s0.005,0.009,0.009,0.011l0.206,0.117c0.006,0.003,0.012,0.002,0.018,0.005c0.004,0.001,0.004,0.006,0.008,0.007l0.22,0.086  c0.008,0.004,0.016,0.003,0.023,0.005c0.002,0.001,0.003,0.004,0.006,0.005l0.23,0.052c0.009,0.002,0.018,0.002,0.025,0.003  c0.002,0,0.002,0.002,0.003,0.002l0.236,0.018c0.006,0,0.011,0.001,0.016,0.001s0.009-0.001,0.014-0.001l0.236-0.016  c0.001,0,0.002-0.002,0.003-0.002c0.009-0.001,0.018-0.001,0.026-0.003l0.23-0.052c0.001,0,0.002-0.002,0.003-0.002  c0.004,0,0.008,0,0.012-0.002l3.402-1.018l0.117-0.008l0.143,0.002l0.134,0.012l0.136,0.025l0.134,0.038l0.128,0.047l0.116,0.056  l0.12,0.07l0.111,0.079l0.104,0.089l0.102,0.102l0.071,0.084l0.338,0.734l0,0l0.349,0.756l0.349,0.756l0,0l0.349,0.756  c0,0.001,0,0.001,0.001,0.001l0.348,0.755l0.349,0.757c0,0,0,0,0,0.001l0.349,0.756l0.309,0.668l-0.374,0.756  c-0.008,0.015,0,0.03-0.003,0.047c-0.004,0.015-0.018,0.025-0.018,0.041c0,0.013,0.011,0.02,0.013,0.031  c0.004,0.026,0.014,0.045,0.028,0.068c0.014,0.022,0.026,0.039,0.049,0.055c0.009,0.008,0.011,0.02,0.021,0.025  c0.028,0.014,0.059,0.021,0.089,0.021h3.854c0.002,0,0.005,0,0.007-0.001l0.153-0.006c0.001,0,0.001,0.001,0.001,0.001  c0.001,0,0.002-0.001,0.004-0.001h0.003c0,0,0,0,0.001,0c0.01-0.001,0.021-0.001,0.03-0.003l0.159-0.031  c0.002,0,0.003-0.003,0.006-0.004c0.008-0.002,0.016-0.001,0.023-0.004l0.152-0.055c0.004-0.001,0.005-0.006,0.009-0.008  c0.006-0.002,0.013-0.001,0.019-0.004l0.143-0.078c0.004-0.002,0.004-0.007,0.008-0.01c0.006-0.003,0.013-0.002,0.018-0.006  l0.13-0.097c0.005-0.003,0.004-0.011,0.008-0.015c0.005-0.003,0.011-0.002,0.015-0.006l0.113-0.115  c0.005-0.005,0.003-0.012,0.007-0.017c0.003-0.004,0.01-0.003,0.013-0.007l0.095-0.132c0.002-0.003,0-0.008,0.003-0.011  c0.004-0.006,0.011-0.009,0.014-0.016l0.073-0.144c0.003-0.005-0.001-0.011,0.001-0.015c0.002-0.006,0.008-0.008,0.01-0.014  l0.051-0.154c0.002-0.004-0.002-0.008-0.001-0.014c0.002-0.006,0.008-0.008,0.009-0.015l0.027-0.159  c0.001-0.006-0.004-0.011-0.004-0.017c0.001-0.006,0.007-0.009,0.007-0.015l0.002-0.162c0-0.006-0.006-0.009-0.006-0.015  c0-0.005,0.005-0.009,0.004-0.015l-0.021-0.157l-0.024-0.298l0,0l-0.024-0.282c0-0.002-0.002-0.003-0.003-0.005  c0-0.003,0.002-0.005,0.002-0.008l-0.07-0.473v-0.001l-0.016-0.107c0-0.003-0.004-0.005-0.004-0.007  c-0.001-0.002,0.001-0.004,0.001-0.006l-0.122-0.576c0-0.002-0.002-0.002-0.003-0.004c0-0.002,0.002-0.004,0.001-0.006l-0.021-0.08  c0-0.001-0.001-0.001-0.001-0.002l-0.135-0.487c-0.001-0.002-0.003-0.003-0.004-0.005c0-0.002,0.002-0.004,0.001-0.007l-0.09-0.261  l-0.102-0.296c-0.001-0.003-0.004-0.003-0.005-0.006c-0.001-0.002,0.001-0.004,0-0.006l-0.19-0.46l0,0l-0.035-0.084  c-0.001-0.002-0.004-0.003-0.005-0.005c0-0.002,0.001-0.005,0-0.007l-0.259-0.528c-0.001-0.002-0.004-0.003-0.005-0.005  s0-0.004-0.001-0.006l-0.081-0.143v-0.001l-0.209-0.368c-0.001-0.002-0.004-0.002-0.005-0.004s0-0.005-0.001-0.008l-0.253-0.387  c0-0.001,0-0.001-0.001-0.001l-0.067-0.104c-0.001-0.002-0.005-0.002-0.006-0.004c-0.002-0.002-0.001-0.005-0.002-0.007  l-0.352-0.472c-0.001-0.002-0.004-0.002-0.005-0.004c-0.001-0.001,0-0.004-0.002-0.006l-0.15-0.178l-0.229-0.271  c-0.002-0.002-0.005-0.002-0.007-0.004c-0.001-0.002,0-0.004-0.002-0.006l-0.407-0.426c-0.003-0.004-0.009-0.002-0.012-0.005  s-0.002-0.009-0.006-0.011l-0.062-0.051l-0.062-0.061l-0.047-0.055l-0.053-0.069l-0.035-0.056l-0.04-0.076l-0.029-0.067  l-0.025-0.075l-0.02-0.077l-0.013-0.076l-0.007-0.077l-0.001-0.084l0.007-0.098l0.016-0.116l0.023-0.107l0.03-0.102l0.037-0.096  l0.046-0.098l0.06-0.107v0l0.055-0.084l0.065-0.083l0.074-0.083l0.077-0.074l0.092-0.076l1.531-1.171l7.717,2.506  c0.021,0.007,0.041,0.01,0.062,0.01h10.685v5.198c0,0.11,0.09,0.2,0.2,0.2h2.689c0.11,0,0.2-0.09,0.2-0.2v-7.613  c0-0.11-0.09-0.2-0.2-0.2h-2.689c-0.088,0-0.149,0.063-0.176,0.142H84.66l-11.556-3.597l-0.007-0.006  c-0.01-0.009-0.023-0.005-0.035-0.011c-0.009-0.005-0.011-0.017-0.021-0.021l-0.227-0.096c-0.011-0.004-0.021,0.002-0.032,0  c-0.009-0.003-0.014-0.013-0.023-0.014l-0.243-0.032c-0.005,0-0.008,0.003-0.013,0.003c-0.006,0-0.009-0.005-0.014-0.005h-1.041  h-7.166c-0.021-0.088-0.089-0.16-0.184-0.16h-1.201c-0.095,0-0.163,0.072-0.184,0.16H62.61c-0.021-0.088-0.089-0.16-0.184-0.16  h-1.197c-0.095,0-0.163,0.072-0.184,0.16h-0.09c-0.021-0.088-0.089-0.16-0.184-0.16h-1.231c-0.095,0-0.163,0.072-0.184,0.16h-0.075  c-0.021-0.088-0.089-0.16-0.184-0.16h-1.226c-0.095,0-0.163,0.072-0.184,0.16h-0.073c-0.021-0.088-0.089-0.16-0.184-0.16h-1.236  c-0.095,0-0.163,0.072-0.184,0.16h-0.069c-0.021-0.088-0.089-0.16-0.184-0.16h-1.233c-0.095,0-0.163,0.072-0.184,0.16h-0.062  c-0.021-0.088-0.089-0.16-0.184-0.16h-1.252c-0.095,0-0.163,0.072-0.184,0.16h-2.685v-0.656c0-0.11-0.09-0.2-0.2-0.2h-3.936v-0.812  c0-0.11-0.09-0.2-0.2-0.2h-0.391c-0.017,0-0.026,0.014-0.042,0.017c-0.026,0.006-0.048,0.013-0.07,0.029  c-0.021,0.015-0.032,0.032-0.046,0.054c-0.009,0.013-0.025,0.019-0.03,0.034l-0.046,0.133l-0.056,0.114l-0.065,0.108l-0.087,0.112  l-0.08,0.083l-0.104,0.087l-0.11,0.073l-0.113,0.06l-0.118,0.046l-0.126,0.035l-0.126,0.021L43.9,43.445h-5.875  c-0.001,0-0.002,0-0.003,0l-0.459,0.006c-0.001,0-0.002,0.001-0.003,0.001s-0.001,0-0.002,0l-0.458,0.018  c-0.001,0-0.001,0.001-0.002,0.001s-0.002-0.001-0.003-0.001l-0.457,0.029c-0.001,0-0.002,0.001-0.003,0.001  s-0.002-0.001-0.003-0.001l-0.456,0.042c-0.001,0-0.001,0.001-0.002,0.001c-0.001,0-0.002-0.001-0.003-0.001l-0.455,0.053  c-0.001,0-0.001,0.001-0.002,0.001c-0.001,0-0.002,0-0.003,0l-0.454,0.064c-0.001,0-0.002,0.001-0.003,0.001s-0.001,0-0.002,0  l-0.452,0.076c-0.001,0-0.001,0.001-0.002,0.001s-0.002-0.001-0.003,0l-0.449,0.088c-0.001,0-0.001,0.001-0.002,0.001  c-0.002,0-0.003-0.001-0.004,0l-0.447,0.1c-0.001,0-0.001,0.001-0.002,0.001c-0.001,0-0.001,0-0.002,0l-0.445,0.111  c-0.001,0-0.001,0.001-0.002,0.001s-0.003-0.001-0.004,0l-0.441,0.123c-0.001,0-0.001,0.001-0.002,0.002  c-0.001,0-0.002-0.001-0.003,0l-0.409,0.125H18.428c-0.101,0-0.176,0.078-0.189,0.175h-6.268v-1.496c0-0.11-0.09-0.2-0.2-0.2h-0.686  c-0.016,0-0.025,0.013-0.04,0.017c-0.025,0.006-0.045,0.013-0.066,0.028c-0.023,0.016-0.037,0.032-0.052,0.056  c-0.009,0.012-0.024,0.017-0.029,0.031l-0.463,1.251c-0.036-0.037-0.086-0.06-0.142-0.06H3.761c-0.11,0-0.2,0.09-0.2,0.2v2.735  C3.561,47.134,3.65,47.224,3.761,47.224z M95.716,50.354v-2.015h2.289v7.213h-2.289V50.354z M69.041,49.889l-0.017,0.056  l-0.573,1.133l-3.184,0.938l-0.147,0.004l-0.165-0.019l-0.159-0.037l-0.153-0.061l-0.146-0.079l-0.127-0.093l-0.124-0.117  l-0.104-0.131l-0.083-0.134l-0.067-0.153l-0.046-0.154l-0.025-0.159v-1.468h3.453l0.017,0.162v0.157l-0.015,0.154l-0.031,0.157  L67.295,50.2l-0.056,0.136l-0.079,0.146l-0.087,0.13l-0.1,0.119l-0.106,0.105l-0.137,0.109c-0.009,0.008-0.008,0.021-0.016,0.028  c-0.018,0.021-0.025,0.04-0.034,0.065c-0.009,0.024-0.016,0.045-0.015,0.071c0.001,0.011-0.008,0.021-0.006,0.031  c0.004,0.021,0.021,0.032,0.03,0.05c0.006,0.012,0.002,0.025,0.011,0.036c0.004,0.005,0.012,0.003,0.016,0.008  c0.037,0.038,0.084,0.066,0.14,0.066c0.013,0,0.026-0.001,0.04-0.005l0.209-0.042c0.002-0.001,0.003-0.003,0.005-0.003  c0.008-0.002,0.015-0.002,0.022-0.004l0.201-0.072c0.004-0.001,0.004-0.006,0.008-0.007c0.006-0.003,0.013-0.002,0.019-0.005  l0.188-0.1c0.004-0.003,0.005-0.008,0.009-0.011c0.005-0.003,0.011-0.002,0.016-0.005l0.172-0.127  c0.004-0.002,0.004-0.009,0.008-0.012c0.004-0.004,0.01-0.002,0.014-0.006l0.152-0.148c0.004-0.005,0.003-0.012,0.007-0.016  c0.003-0.004,0.01-0.002,0.013-0.006l0.13-0.17c0.004-0.005,0.001-0.012,0.005-0.017c0.002-0.004,0.009-0.003,0.011-0.007  l0.104-0.186c0.003-0.004-0.001-0.009,0.002-0.014c0.002-0.005,0.008-0.007,0.01-0.013l0.076-0.199c0.002-0.004-0.002-0.009,0-0.013  c0.002-0.006,0.008-0.009,0.009-0.015l0.047-0.208c0.001-0.005-0.003-0.01-0.003-0.015c0.001-0.005,0.007-0.008,0.007-0.014  l0.017-0.213c0-0.005-0.005-0.009-0.005-0.015c0-0.005,0.005-0.008,0.005-0.014l-0.014-0.208h0.313l0.068,0.005l0.062,0.015  l0.059,0.026l0.052,0.033l0.048,0.042l0.042,0.051l0.029,0.052l0.022,0.061l0.012,0.061l0.003,0.069L69.041,49.889z M67.728,50.143  c0.001-0.004,0.005-0.006,0.006-0.01l0.035-0.174c0.001-0.004-0.003-0.007-0.002-0.011c0-0.004,0.005-0.006,0.005-0.01l0.017-0.176  c0-0.003-0.003-0.006-0.003-0.009c0-0.004,0.004-0.006,0.004-0.009v-0.177c0-0.004-0.004-0.006-0.004-0.01s0.003-0.007,0.003-0.011  l-0.014-0.129h0.159l0.008,0.041l0.012,0.178l-0.015,0.184l-0.042,0.186l-0.062,0.164l-0.093,0.166l-0.114,0.148l-0.032,0.032  c0-0.001,0-0.002,0-0.002c0.002-0.004,0.006-0.006,0.008-0.01l0.067-0.163c0.001-0.003-0.001-0.005,0-0.008  c0.002-0.004,0.006-0.006,0.007-0.01l0.052-0.169C67.729,50.148,67.727,50.146,67.728,50.143z M69.227,49.264  c-0.005-0.004-0.003-0.011-0.008-0.015l-0.071-0.063c-0.005-0.004-0.012-0.002-0.017-0.006c-0.005-0.003-0.005-0.011-0.01-0.014  l-0.081-0.051c-0.005-0.003-0.011,0-0.016-0.003s-0.006-0.009-0.012-0.012l-0.088-0.038c-0.006-0.002-0.012,0.001-0.018,0  s-0.009-0.009-0.015-0.01L68.8,49.029c-0.006-0.001-0.011,0.003-0.016,0.002c-0.006-0.001-0.009-0.007-0.015-0.007l-0.096-0.008  c-0.004,0-0.005,0.002-0.009,0.002c-0.003,0-0.005-0.003-0.008-0.003h-0.561h-0.562h-3.815c-0.11,0-0.2,0.09-0.2,0.2v1.576  c-0.008-0.005-0.019-0.004-0.026-0.007c-0.016-0.006-0.024-0.021-0.042-0.024l-3.612-0.483l-0.065-0.011l-0.057-0.017l-0.055-0.023  l-0.055-0.031l-0.048-0.037l-0.041-0.04l-0.04-0.049l-0.03-0.047l-0.025-0.054L59.399,49.9l-0.011-0.051l-0.005-0.061v-1.048h10.685  l-0.627,1.167l0.006-0.048c0.001-0.005-0.004-0.009-0.004-0.015s0.006-0.01,0.006-0.016l-0.003-0.096  c0-0.006-0.007-0.01-0.007-0.016c-0.001-0.005,0.004-0.01,0.003-0.016l-0.019-0.094c-0.001-0.006-0.008-0.008-0.01-0.014  c-0.001-0.006,0.003-0.011,0.001-0.017l-0.033-0.089c-0.002-0.006-0.01-0.007-0.013-0.013c-0.002-0.005,0.001-0.012-0.002-0.017  l-0.048-0.083c-0.003-0.005-0.01-0.005-0.013-0.01c-0.004-0.005-0.001-0.012-0.005-0.016l-0.061-0.075  C69.237,49.268,69.23,49.269,69.227,49.264z M77.636,57.502l0.01,0.121c0,0.002,0.002,0.003,0.002,0.005  c0.001,0.002-0.001,0.003-0.001,0.005l0.02,0.145l-0.002,0.134l-0.022,0.133l-0.038,0.115l-0.064,0.127l-0.073,0.103l-0.092,0.093  l-0.11,0.083l-0.11,0.059l-0.127,0.046l-0.129,0.024l-0.137,0.006c-0.001,0-0.001,0-0.001,0h-3.532l0.273-0.553  c0.002-0.004-0.001-0.008,0.001-0.012c0.01-0.022,0.003-0.046,0.004-0.07c0.001-0.027,0.008-0.054-0.003-0.079  c-0.001-0.004,0.002-0.008,0-0.011l-0.218-0.473H77.636z M77.552,56.746l0.045,0.303c0,0,0,0,0,0.001l0.005,0.052h-4.501  l-0.164-0.355H77.552z M77.485,56.346h-4.733l-0.164-0.355l4.82-0.008L77.485,56.346z M77.198,55.234l0.043,0.125  c0,0,0,0,0.001,0.001l0.061,0.222l-4.899,0.008l-0.164-0.355H77.198z M76.915,54.479l0.135,0.324l0.011,0.031h-5.006l-0.164-0.355  H76.915z M76.558,53.722l0.018,0.031l0.159,0.325h-5.028l-0.164-0.356H76.558z M76.104,52.965l0.193,0.297c0,0,0,0,0,0.001  l0.034,0.059h-4.974l-0.164-0.356H76.104z M75.639,52.316l0.186,0.248h-4.815l-0.164-0.355h4.704L75.639,52.316z M75.073,48.896  c-0.001,0.001-0.001,0.002-0.001,0.002c-0.002,0.001-0.004,0-0.005,0.001l-0.096,0.079c-0.003,0.002-0.002,0.005-0.004,0.008  c-0.003,0.002-0.006,0.001-0.008,0.003l-0.089,0.085c-0.002,0.002-0.001,0.005-0.003,0.007s-0.005,0.001-0.007,0.003l-0.083,0.092  c-0.002,0.002-0.001,0.005-0.003,0.007c-0.001,0.002-0.004,0.002-0.006,0.004l-0.076,0.098c-0.002,0.002-0.001,0.006-0.002,0.009  c-0.002,0.002-0.006,0.002-0.008,0.005l-0.067,0.103c-0.001,0.002,0,0.004-0.001,0.006c-0.002,0.003-0.006,0.003-0.007,0.005  l-0.061,0.108c-0.001,0.002,0,0.005-0.001,0.008c-0.001,0.002-0.004,0.002-0.005,0.004l-0.053,0.112  c-0.001,0.003,0.001,0.006,0,0.009c-0.002,0.002-0.005,0.003-0.006,0.006l-0.044,0.116c-0.001,0.003,0.001,0.005,0,0.008  s-0.004,0.003-0.005,0.006l-0.035,0.119c-0.001,0.002,0.001,0.005,0.001,0.007c-0.001,0.003-0.004,0.004-0.005,0.007l-0.026,0.121  c-0.001,0.003,0.002,0.005,0.002,0.008c-0.001,0.003-0.005,0.004-0.005,0.007l-0.017,0.123c0,0.003,0.002,0.004,0.002,0.007  s-0.003,0.003-0.003,0.006l-0.009,0.123c0,0.003,0.003,0.005,0.003,0.008c-0.001,0.003-0.004,0.005-0.004,0.008l0.001,0.094  c0,0.003,0.003,0.005,0.004,0.008c0,0.003-0.003,0.005-0.003,0.008l0.009,0.093c0,0.004,0.003,0.005,0.004,0.008  c0,0.003-0.002,0.005-0.002,0.008l0.016,0.092c0,0.003,0.004,0.004,0.004,0.007c0.001,0.003-0.002,0.005-0.001,0.008l0.022,0.091  c0.001,0.004,0.004,0.005,0.006,0.008c0,0.004-0.002,0.006-0.001,0.009l0.03,0.089c0.001,0.003,0.005,0.005,0.006,0.008  c0.001,0.002-0.001,0.004,0,0.007l0.037,0.087c0.001,0.003,0.005,0.004,0.006,0.007s0,0.005,0.001,0.007l0.044,0.084  c0.002,0.002,0.005,0.004,0.007,0.007c0.001,0.001,0,0.004,0.001,0.005l0.05,0.08c0.001,0.002,0.005,0.001,0.006,0.003  c0.002,0.003,0.001,0.007,0.003,0.011l0.057,0.074c0.002,0.003,0.005,0.002,0.007,0.004s0.001,0.006,0.003,0.008l0.062,0.07  c0.002,0.003,0.005,0.002,0.007,0.004c0.003,0.002,0.002,0.006,0.004,0.008l0.067,0.066c0.003,0.002,0.006,0.001,0.009,0.003  c0.002,0.002,0.002,0.005,0.004,0.007l0.062,0.052l0.336,0.351h-4.58l-0.038-0.045c-0.002-0.003-0.006-0.002-0.008-0.005  s-0.001-0.007-0.004-0.009l-0.108-0.109c-0.002-0.002-0.006-0.001-0.008-0.003s-0.002-0.005-0.004-0.007l-0.117-0.1  c-0.003-0.003-0.007-0.002-0.01-0.004c-0.002-0.002-0.002-0.006-0.005-0.008l-0.126-0.089c-0.003-0.002-0.006,0-0.009-0.002  s-0.003-0.006-0.006-0.007l-0.132-0.078c-0.003-0.001-0.006,0.001-0.009-0.001c-0.003-0.001-0.003-0.005-0.006-0.006l-0.139-0.066  c-0.003-0.001-0.006,0.001-0.009-0.001c-0.004-0.001-0.005-0.005-0.008-0.006l-0.145-0.055c-0.003,0-0.006,0.002-0.009,0.001  s-0.004-0.005-0.007-0.006l-0.147-0.041c-0.003-0.001-0.006,0.002-0.009,0.001c-0.003,0-0.005-0.004-0.008-0.005l-0.151-0.028  c-0.003,0-0.006,0.002-0.009,0.002c-0.004,0-0.006-0.004-0.009-0.004l-0.142-0.014l1.332-2.48c0,0,0-0.001,0-0.001l1.402-2.179  l0.254,0.083c0.001,0.009,0.008,0.015,0.01,0.024c0.006,0.025,0.011,0.046,0.026,0.067s0.035,0.033,0.058,0.046  c0.016,0.009,0.022,0.027,0.04,0.032l4.014,1.188L75.073,48.896z M86.545,49.487l-0.048,0.117l-0.08,0.104l-0.102,0.078  l-0.119,0.049l-0.127,0.017l-0.127-0.017l-0.119-0.049l-0.102-0.078l-0.079-0.103l-0.051-0.12l-0.013-0.097l0.013-0.097l0.051-0.121  l0.077-0.101l0.104-0.08l0.119-0.05l0.127-0.016l0.127,0.016l0.119,0.05l0.104,0.08l0.078,0.101l0.048,0.118l0.014,0.099  L86.545,49.487z M88.875,49.547l-0.048,0.118l-0.078,0.102l-0.103,0.078l-0.062,0.008l-0.127-0.017l-0.119-0.049l-0.102-0.078  l-0.08-0.104l-0.048-0.117l-0.018-0.128l0.018-0.128l0.048-0.117l0.08-0.104l0.1-0.077l0.062-0.008l0.128,0.016l0.119,0.05  l0.104,0.079l0.078,0.102l0.048,0.118l0.018,0.128L88.875,49.547z M91.24,49.547l-0.048,0.118l-0.078,0.101l-0.102,0.078  l-0.062,0.008l-0.127-0.017l-0.119-0.049l-0.102-0.078l-0.079-0.103l-0.051-0.12l-0.017-0.126l0.017-0.126l0.051-0.12l0.079-0.103  l0.1-0.077l0.062-0.008l0.127,0.016l0.119,0.05l0.104,0.08l0.078,0.101l0.048,0.118l0.018,0.128L91.24,49.547z M93.756,49.487  l-0.048,0.117l-0.08,0.104l-0.102,0.078l-0.119,0.049l-0.127,0.017l-0.128-0.017l-0.119-0.049l-0.102-0.078l-0.08-0.104  l-0.048-0.117l-0.014-0.099l0.014-0.099l0.048-0.118l0.078-0.102l0.104-0.079l0.119-0.05l0.128-0.016l0.127,0.016l0.119,0.05  l0.104,0.079l0.078,0.102l0.048,0.118l0.014,0.099L93.756,49.487z M73.238,46.111c0.006-0.006,0.017-0.004,0.021-0.011l0.126-0.166  c0.005-0.006,0.002-0.014,0.005-0.02c0.007-0.01,0.018-0.015,0.021-0.026l0.078-0.193c0.004-0.009-0.002-0.018,0-0.026  c0.002-0.009,0.012-0.015,0.013-0.024l0.025-0.207c0.001-0.009-0.007-0.016-0.007-0.025s0.008-0.017,0.007-0.026L73.5,45.181  c-0.001-0.01-0.012-0.016-0.015-0.025c-0.002-0.009,0.004-0.017,0-0.026l-0.054-0.126l11.14,3.468c0.02,0.006,0.04,0.009,0.06,0.009  h10.685v1.672h-1.533l0.11-0.084c0.009-0.006,0.008-0.019,0.016-0.026c0.006-0.006,0.016-0.003,0.021-0.011l0.11-0.144  c0.005-0.006,0.002-0.014,0.006-0.021c0.006-0.009,0.017-0.015,0.021-0.025l0.069-0.168c0.003-0.008-0.002-0.016,0-0.025  c0.003-0.01,0.013-0.015,0.014-0.025l0.023-0.18c0.001-0.005-0.004-0.008-0.003-0.013c0-0.005,0.005-0.008,0.005-0.013v-0.06  c0-0.009-0.008-0.014-0.009-0.022l-0.017-0.124c-0.001-0.01-0.011-0.015-0.014-0.024c-0.002-0.009,0.004-0.017,0-0.026l-0.069-0.168  c-0.004-0.009-0.015-0.011-0.02-0.019c-0.004-0.008-0.001-0.019-0.007-0.027l-0.11-0.144c-0.006-0.008-0.017-0.007-0.023-0.013  c-0.007-0.007-0.006-0.018-0.014-0.024l-0.145-0.11c-0.008-0.006-0.018-0.002-0.025-0.007s-0.01-0.015-0.019-0.019l-0.167-0.07  c-0.01-0.004-0.019,0.002-0.028,0c-0.009-0.003-0.014-0.013-0.023-0.014l-0.18-0.023c-0.009-0.001-0.017,0.007-0.025,0.007  s-0.017-0.008-0.025-0.007l-0.181,0.023c-0.01,0.001-0.015,0.011-0.023,0.014c-0.01,0.002-0.019-0.004-0.028,0l-0.167,0.07  c-0.009,0.003-0.011,0.014-0.019,0.019s-0.018,0.001-0.025,0.007l-0.145,0.11c-0.008,0.006-0.007,0.017-0.014,0.023  s-0.018,0.006-0.023,0.014l-0.11,0.144c-0.006,0.008-0.002,0.018-0.007,0.027c-0.005,0.008-0.016,0.01-0.02,0.019l-0.069,0.168  c-0.004,0.009,0.002,0.017,0,0.026c-0.003,0.01-0.013,0.015-0.014,0.024l-0.02,0.15l-0.004,0.03  c-0.001,0.007,0.005,0.011,0.005,0.018c0,0.002-0.001,0.003-0.001,0.004l0.001,0.01c0.001,0.007-0.006,0.012-0.005,0.02l0.023,0.18  c0.001,0.01,0.011,0.016,0.014,0.025c0.002,0.009-0.003,0.017,0,0.025l0.069,0.168c0.004,0.011,0.015,0.016,0.021,0.025  c0.004,0.006,0.001,0.014,0.006,0.021l0.11,0.144c0.005,0.007,0.016,0.004,0.021,0.011c0.008,0.008,0.007,0.02,0.016,0.026  l0.11,0.084h-1.51l0.11-0.085c0.009-0.007,0.008-0.019,0.015-0.026c0.006-0.006,0.017-0.003,0.021-0.01l0.11-0.144  c0.005-0.006,0.002-0.014,0.006-0.021c0.006-0.009,0.017-0.015,0.021-0.025l0.069-0.168c0.003-0.008-0.002-0.016,0-0.024  c0.003-0.01,0.013-0.015,0.014-0.025l0.024-0.18c0.001-0.01-0.007-0.017-0.007-0.027s0.008-0.017,0.007-0.027l-0.024-0.18  c-0.001-0.01-0.011-0.015-0.014-0.024c-0.002-0.009,0.003-0.017,0-0.025l-0.069-0.168c-0.004-0.009-0.015-0.011-0.02-0.019  c-0.004-0.009-0.001-0.019-0.007-0.027l-0.11-0.144c-0.006-0.007-0.016-0.006-0.022-0.013s-0.006-0.018-0.014-0.023l-0.144-0.11  c-0.008-0.006-0.018-0.002-0.026-0.007c-0.008-0.005-0.01-0.016-0.019-0.019l-0.168-0.07c-0.01-0.004-0.019,0.002-0.028,0  c-0.009-0.003-0.014-0.013-0.023-0.014l-0.18-0.023c-0.009-0.001-0.016,0.007-0.025,0.007s-0.016-0.008-0.025-0.007l-0.118,0.015v0  c-0.001,0-0.001,0-0.001,0l-0.062,0.008c-0.01,0.001-0.014,0.011-0.023,0.014c-0.009,0.002-0.018-0.004-0.027,0l-0.168,0.07  c-0.009,0.003-0.011,0.014-0.019,0.019c-0.009,0.005-0.019,0.001-0.026,0.007l-0.144,0.11c-0.008,0.006-0.007,0.017-0.014,0.023  s-0.017,0.006-0.022,0.013l-0.11,0.144c-0.006,0.008-0.003,0.018-0.007,0.027c-0.005,0.008-0.016,0.01-0.02,0.019l-0.069,0.168  c-0.003,0.008,0.002,0.016,0,0.025c-0.003,0.009-0.013,0.014-0.014,0.024l-0.024,0.18c-0.001,0.01,0.007,0.017,0.007,0.027  s-0.008,0.017-0.007,0.027l0.024,0.18c0.001,0.01,0.011,0.016,0.014,0.025c0.002,0.008-0.003,0.016,0,0.024l0.069,0.168  c0.004,0.011,0.015,0.016,0.021,0.025c0.004,0.006,0.001,0.014,0.006,0.021l0.11,0.144c0.005,0.007,0.016,0.004,0.021,0.01  c0.007,0.008,0.006,0.02,0.015,0.026l0.11,0.085h-1.36l0.11-0.084c0.009-0.006,0.008-0.019,0.016-0.026  c0.006-0.006,0.016-0.003,0.021-0.011l0.11-0.144c0.005-0.006,0.002-0.014,0.006-0.021c0.006-0.009,0.017-0.015,0.021-0.025  l0.069-0.168c0.003-0.008-0.002-0.016,0-0.025c0.003-0.01,0.013-0.015,0.014-0.025l0.023-0.18c0.001-0.01-0.007-0.017-0.007-0.026  s0.008-0.016,0.007-0.026l-0.023-0.18c-0.001-0.009-0.011-0.014-0.014-0.022c-0.002-0.009,0.004-0.019,0-0.028l-0.069-0.168  c-0.004-0.009-0.015-0.011-0.02-0.019c-0.004-0.009-0.001-0.019-0.007-0.027l-0.11-0.144c-0.006-0.008-0.017-0.007-0.023-0.013  c-0.007-0.007-0.006-0.018-0.014-0.024l-0.145-0.11c-0.008-0.006-0.018-0.002-0.025-0.007s-0.01-0.015-0.019-0.019l-0.167-0.07  c-0.01-0.004-0.019,0.002-0.028,0c-0.009-0.003-0.014-0.013-0.023-0.014l-0.181-0.023c-0.009-0.001-0.016,0.007-0.025,0.007  s-0.015-0.008-0.025-0.007l-0.117,0.015v0c-0.001,0-0.001,0-0.001,0l-0.062,0.008c-0.01,0.001-0.015,0.011-0.023,0.014  c-0.009,0.002-0.019-0.004-0.027,0l-0.167,0.07c-0.009,0.003-0.011,0.014-0.019,0.019s-0.018,0.001-0.025,0.007l-0.145,0.11  c-0.008,0.006-0.007,0.017-0.014,0.023s-0.018,0.006-0.023,0.014l-0.11,0.144c-0.006,0.008-0.002,0.018-0.007,0.027  c-0.005,0.008-0.016,0.01-0.02,0.019l-0.069,0.168c-0.004,0.009,0.002,0.018,0,0.027c-0.003,0.009-0.013,0.014-0.014,0.023  l-0.023,0.18c-0.001,0.01,0.007,0.017,0.007,0.026s-0.008,0.016-0.007,0.026l0.023,0.18c0.001,0.01,0.011,0.016,0.014,0.025  c0.002,0.009-0.003,0.017,0,0.025l0.069,0.168c0.004,0.011,0.015,0.016,0.021,0.025c0.004,0.006,0.001,0.014,0.006,0.021l0.11,0.144  c0.005,0.007,0.016,0.004,0.021,0.011c0.008,0.008,0.007,0.02,0.016,0.026l0.11,0.084h-1.324l0.11-0.085  c0.009-0.007,0.008-0.019,0.015-0.026c0.006-0.006,0.017-0.003,0.021-0.01l0.11-0.144c0.005-0.006,0.002-0.014,0.006-0.021  c0.006-0.009,0.017-0.015,0.021-0.025l0.069-0.168c0.003-0.008-0.002-0.016,0-0.024c0.003-0.01,0.013-0.015,0.014-0.025l0.024-0.18  c0.001-0.007-0.006-0.013-0.005-0.02l0.001-0.01c0-0.001-0.001-0.002-0.001-0.004c0-0.007,0.006-0.012,0.005-0.019l-0.004-0.03  c0,0,0,0,0,0s0,0,0-0.001l-0.021-0.15c-0.001-0.01-0.011-0.015-0.014-0.024c-0.002-0.008,0.003-0.016,0-0.024l-0.069-0.168  c-0.004-0.009-0.015-0.011-0.02-0.019c-0.004-0.009-0.001-0.019-0.007-0.027l-0.11-0.144c-0.006-0.007-0.016-0.006-0.022-0.013  s-0.006-0.018-0.014-0.023l-0.144-0.11c-0.008-0.006-0.018-0.002-0.026-0.007c-0.008-0.005-0.01-0.016-0.019-0.019l-0.168-0.07  c-0.01-0.004-0.019,0.002-0.028,0c-0.009-0.003-0.014-0.013-0.023-0.014l-0.18-0.023c-0.01-0.001-0.017,0.007-0.025,0.007  s-0.016-0.008-0.025-0.007l-0.18,0.023c-0.01,0.001-0.015,0.011-0.023,0.014c-0.01,0.002-0.019-0.004-0.028,0l-0.168,0.07  c-0.009,0.003-0.011,0.014-0.019,0.019c-0.009,0.004-0.019,0.001-0.026,0.007l-0.144,0.11c-0.008,0.006-0.007,0.017-0.014,0.023  c-0.006,0.007-0.017,0.006-0.022,0.013l-0.11,0.144c-0.006,0.007-0.002,0.017-0.007,0.025s-0.016,0.01-0.02,0.02l-0.07,0.168  c-0.004,0.009,0.002,0.018,0,0.028c-0.003,0.009-0.013,0.014-0.014,0.023l-0.02,0.15l-0.004,0.03  c-0.001,0.007,0.005,0.011,0.005,0.018c0,0.002-0.001,0.003-0.001,0.004l0.001,0.01c0.001,0.007-0.006,0.012-0.005,0.02l0.023,0.18  c0.001,0.01,0.011,0.016,0.014,0.025c0.002,0.009-0.004,0.018,0,0.026l0.07,0.168c0.005,0.011,0.015,0.016,0.021,0.025  c0.003,0.006,0,0.014,0.005,0.02l0.11,0.144c0.005,0.007,0.016,0.004,0.021,0.01c0.007,0.008,0.006,0.02,0.015,0.026l0.11,0.085  h-0.904l-7.785-2.528l-3.968-1.289l0.105-0.045c0.008-0.003,0.009-0.012,0.017-0.017c0.009-0.005,0.02-0.003,0.028-0.01l0.164-0.128  C73.232,46.131,73.231,46.119,73.238,46.111z M72.371,44.848l0.158-0.022l0.152,0.019l0.146,0.06l0.122,0.092l0.097,0.125  l0.061,0.14l0.021,0.157l-0.02,0.151l-0.059,0.146l-0.094,0.123l-0.123,0.096l-0.143,0.061l-0.153,0.021l-0.166-0.021l-1.65-0.508  L72.371,44.848z M50.883,45.377h6.952v0.979c0,0.11,0.09,0.2,0.2,0.2h4.294v0.165H51.447v-0.365c0-0.11-0.09-0.2-0.2-0.2h-0.364  V45.377z M50.883,46.556h0.164v0.165h-0.164V46.556z M49.978,45.079h0.546c-0.02,0.03-0.041,0.06-0.041,0.098v1.179v0.565  c0,0.11,0.09,0.2,0.2,0.2h0.564h11.282c0.11,0,0.2-0.09,0.2-0.2v-0.565c0-0.11-0.09-0.2-0.2-0.2h-4.294v-0.979  c0-0.038-0.022-0.067-0.04-0.098h12.117l-0.667,0.242c-0.005,0.001-0.005,0.007-0.01,0.009c-0.024,0.011-0.037,0.032-0.056,0.052  c-0.018,0.019-0.038,0.032-0.048,0.056c-0.002,0.004-0.007,0.006-0.009,0.01c-0.008,0.024,0.004,0.045,0.006,0.069  c0,0.021-0.011,0.04-0.003,0.061c0.002,0.004,0.006,0.006,0.008,0.011c0.006,0.013,0.017,0.021,0.025,0.032  c0.021,0.028,0.044,0.05,0.075,0.064c0.008,0.003,0.01,0.013,0.018,0.015l1.935,0.628l-1.08,1.678  c-0.032-0.021-0.063-0.043-0.104-0.043H49.978V45.079z M42.482,49.281v0.224l-23.555,0.361l0.025-0.044  c0.001-0.001,0-0.003,0.001-0.005s0.003-0.002,0.004-0.004l0.046-0.089c0.001-0.002,0-0.004,0-0.005  c0.002-0.002,0.004-0.003,0.005-0.005l0.042-0.095c0-0.001,0-0.001,0-0.002c0.001-0.002,0.003-0.003,0.004-0.005l0.033-0.084  l5.145-0.362h1.531h1.538h1.538h1.538h1.538h1.538h1.538h1.538h1.538h1.538h1.538h1.338V49.281z M19.142,49.121v-0.511v-2.804h4.884  v2.972L19.142,49.121z M25.563,45.806v2.958h-1.138v-2.958H25.563z M24.64,45.405v-0.046h0.612v0.046H24.64z M25.964,48.764v-2.958  h1.138v2.958H25.964z M28.64,45.806v2.958h-1.138v-2.958H28.64z M27.738,45.405v-0.046h0.56v0.046H27.738z M29.04,48.764v-2.958  h1.138v2.958H29.04z M31.716,45.806v2.958h-1.138v-2.958H31.716z M30.783,45.405v-0.046h0.494v0.046H30.783z M33.654,48.764v-2.958  h1.138v2.958H33.654z M35.192,48.764v-2.958h1.138v2.958H35.192z M36.73,48.764v-2.958h1.138v2.958H36.73z M38.269,48.764v-2.958  h1.138v2.958H38.269z M39.807,48.764v-2.958h1.138v2.958H39.807z M42.482,46.737v1.873v0.154h-1.138v-2.958h1.138V46.737z   M49.577,49.081h-6.694v-0.117V48.81h6.694V49.081z M44.989,43.42c0.003-0.003,0.003-0.008,0.006-0.011  c0.002-0.002,0.007-0.001,0.009-0.004l0.104-0.108c0.003-0.003,0.002-0.007,0.004-0.01c0.003-0.003,0.008-0.002,0.011-0.005  l0.093-0.119c0.003-0.004,0.001-0.01,0.004-0.015c0.002-0.003,0.007-0.001,0.009-0.005l0.078-0.129c0.002-0.002,0-0.005,0.001-0.008  c0.002-0.003,0.006-0.005,0.008-0.008l0.065-0.136c0.002-0.003-0.001-0.007,0.001-0.01c0.001-0.004,0.006-0.006,0.008-0.011  l0.003-0.008h0.049v0.612H44.96L44.989,43.42z M32.812,44.636l0.293-0.089l0.44-0.123l0.001,0l0.431-0.107c0.002,0,0.003,0,0.004,0  l0.447-0.1v0l0.438-0.085l0.445-0.075c0.001,0,0.001,0,0.002,0l0.454-0.064l0.448-0.052l0.449-0.041l0.455-0.029v0l0.445-0.017  c0.001,0,0.002,0,0.003,0l0.459-0.006h5.873h1.74h3.936v0.656v0.377v3.284v0.246h-6.694v-1.472h6.32c0.11,0,0.2-0.09,0.2-0.2v-1.131  c0-0.11-0.09-0.2-0.2-0.2h-0.411v-0.247c0-0.11-0.09-0.2-0.2-0.2h-2.085c-0.11,0-0.2,0.09-0.2,0.2v0.247h-0.335v-0.247  c0-0.11-0.09-0.2-0.2-0.2h-2.086c-0.11,0-0.2,0.09-0.2,0.2v0.247h-0.671v-0.247c0-0.11-0.09-0.2-0.2-0.2h-2.085  c-0.11,0-0.2,0.09-0.2,0.2v0.247h-0.512v-0.247c0-0.11-0.09-0.2-0.2-0.2h-2.085c-0.11,0-0.2,0.09-0.2,0.2v0.247h-0.543v-0.247  c0-0.11-0.09-0.2-0.2-0.2h-2.086c-0.11,0-0.2,0.09-0.2,0.2v0.247h-0.539v-0.247c0-0.11-0.09-0.2-0.2-0.2h-0.751V44.636z   M42.883,46.537v-0.731h6.12v0.731H42.883z M33.254,45.806v2.958h-1.138v-2.958H33.254z M18.628,44.688h13.784v0.271h-0.935h-0.895  h-2.085h-0.96h-2.086h-1.013h-2.085h-3.727V44.688z M18.628,46.784V46.65v-1.291h3.526v0.046h-3.213c-0.11,0-0.2,0.09-0.2,0.2v2.804  h-0.113V46.784z M18.628,48.81h0.113v0.271h-0.113V48.81z M18.228,48.609v0.337h-2.114v-0.036V47.02v-0.036h2.114V48.609z   M10.493,44.86c0.035-0.01,0.064-0.024,0.092-0.05c0.012-0.01,0.017-0.021,0.026-0.034c0.011-0.015,0.027-0.026,0.034-0.044  l0.579-1.565h0.346v1.496v0.032c0,0.11,0.09,0.184,0.2,0.184c0.013,0,0.021-0.013,0.033-0.016h6.424v0.296v1.291h-7.734V44.86z   M15.713,47.22v1.49H8.152v-1.49h2.141H15.713z M3.961,44.489h6.132v0.174v1.987v0.17H7.952c-0.004,0-0.006,0.003-0.01,0.004H3.961  V44.489z"/></svg>