<svg xmlns="http://www.w3.org/2000/svg" xmlns:xlink="http://www.w3.org/1999/xlink" version="1.1" x="0px" y="0px" enable-background="new 0 0 100 100" xml:space="preserve" viewBox="3.34 33.24 94.85 33.86"><path d="M90.886,47.532c0.001,0.01,0.011,0.016,0.014,0.025c0.002,0.009-0.004,0.017,0,0.025l0.075,0.181  c0.005,0.011,0.015,0.016,0.021,0.025c0.004,0.006,0,0.014,0.005,0.02l0.119,0.155c0.005,0.007,0.015,0.004,0.021,0.011  c0.007,0.007,0.006,0.02,0.015,0.026l0.154,0.119c0.009,0.007,0.021,0.005,0.029,0.01c0.008,0.004,0.009,0.013,0.017,0.016  l0.182,0.075c0.013,0.006,0.026,0.006,0.04,0.008c0.004,0.001,0.006,0.005,0.01,0.005l0.193,0.025  c0.009,0.001,0.018,0.002,0.026,0.002s0.018,0,0.026-0.002l0.194-0.025c0.004,0,0.005-0.004,0.009-0.005  c0.014-0.002,0.028-0.002,0.042-0.008l0.181-0.075c0.008-0.003,0.009-0.012,0.016-0.016c0.01-0.005,0.021-0.003,0.029-0.01  l0.155-0.119c0.009-0.007,0.008-0.019,0.016-0.027c0.006-0.006,0.016-0.003,0.021-0.01l0.119-0.155  c0.004-0.006,0.002-0.013,0.005-0.02c0.007-0.009,0.017-0.015,0.021-0.025l0.075-0.181c0.004-0.008-0.002-0.017,0-0.025  c0.003-0.01,0.013-0.015,0.014-0.025l0.025-0.194c0.001-0.009-0.007-0.017-0.007-0.026s0.008-0.017,0.007-0.026l-0.025-0.194  c-0.001-0.01-0.011-0.014-0.014-0.023c-0.002-0.009,0.004-0.019,0-0.028l-0.075-0.181c-0.004-0.009-0.015-0.011-0.02-0.02  c-0.005-0.008-0.001-0.018-0.007-0.025l-0.119-0.155c-0.006-0.007-0.016-0.007-0.022-0.013c-0.007-0.007-0.006-0.019-0.014-0.024  l-0.155-0.119c-0.008-0.006-0.018-0.002-0.026-0.007c-0.008-0.005-0.01-0.016-0.019-0.019l-0.181-0.075  c-0.01-0.004-0.018,0.002-0.027,0c-0.009-0.002-0.014-0.012-0.023-0.013l-0.194-0.025c-0.01-0.001-0.018,0.007-0.027,0.007  c-0.009,0-0.016-0.008-0.025-0.007l-0.193,0.025c-0.01,0.001-0.015,0.011-0.023,0.014s-0.018-0.004-0.026,0l-0.182,0.075  c-0.009,0.003-0.011,0.014-0.019,0.019c-0.009,0.005-0.02,0.001-0.027,0.007l-0.154,0.119c-0.008,0.006-0.007,0.017-0.014,0.023  c-0.006,0.006-0.017,0.005-0.022,0.013l-0.119,0.155c-0.006,0.007-0.002,0.017-0.007,0.025c-0.005,0.008-0.016,0.01-0.02,0.02  l-0.075,0.181c-0.004,0.009,0.003,0.019,0,0.028s-0.013,0.013-0.014,0.023l-0.025,0.194c-0.001,0.009,0.007,0.017,0.007,0.026  s-0.008,0.017-0.007,0.026L90.886,47.532z M91.279,47.171l0.055-0.133l0.086-0.112l0.114-0.088l0.131-0.055l0.143-0.019l0.142,0.019  l0.132,0.055l0.116,0.089l0.085,0.11l0.056,0.133l0.018,0.142l-0.018,0.142l-0.056,0.133l-0.085,0.11l-0.116,0.089l-0.132,0.055  l-0.142,0.019l-0.143-0.019l-0.131-0.055l-0.114-0.088l-0.086-0.112l-0.055-0.133l-0.02-0.142L91.279,47.171z"/><path d="M83.169,47.32c0.001,0.01,0.011,0.016,0.014,0.025c0.002,0.009-0.004,0.017,0,0.025l0.075,0.181  c0.005,0.011,0.015,0.016,0.021,0.025c0.004,0.006,0,0.014,0.005,0.02l0.119,0.155c0.005,0.007,0.015,0.004,0.021,0.01  c0.008,0.008,0.007,0.02,0.016,0.027l0.155,0.119c0.009,0.007,0.021,0.005,0.029,0.01c0.007,0.004,0.009,0.014,0.017,0.017  l0.181,0.075c0.013,0.005,0.027,0.006,0.041,0.008c0.004,0,0.005,0.004,0.009,0.005l0.194,0.025  c0.009,0.001,0.018,0.002,0.026,0.002s0.018-0.001,0.026-0.002l0.193-0.025c0.004,0,0.005-0.004,0.009-0.005  c0.014-0.002,0.027-0.003,0.041-0.008l0.181-0.075c0.008-0.003,0.009-0.012,0.017-0.017c0.01-0.005,0.021-0.003,0.029-0.01  l0.155-0.119c0.009-0.007,0.008-0.019,0.016-0.027c0.006-0.006,0.016-0.003,0.021-0.01l0.119-0.155  c0.004-0.006,0.002-0.013,0.005-0.02c0.007-0.009,0.017-0.015,0.021-0.025L85,47.371c0.004-0.008-0.002-0.017,0-0.025  c0.003-0.01,0.013-0.015,0.014-0.025l0.025-0.194c0.001-0.01-0.007-0.017-0.007-0.026s0.008-0.016,0.007-0.026l-0.025-0.194  c-0.001-0.01-0.011-0.014-0.014-0.023c-0.002-0.009,0.004-0.018,0-0.027l-0.075-0.181c-0.004-0.009-0.015-0.011-0.02-0.02  s-0.001-0.018-0.007-0.025l-0.119-0.155c-0.006-0.007-0.016-0.006-0.022-0.013s-0.006-0.018-0.014-0.024l-0.155-0.119  c-0.008-0.006-0.019-0.002-0.026-0.007c-0.009-0.005-0.011-0.016-0.02-0.019l-0.181-0.075c-0.009-0.004-0.018,0.002-0.027,0  c-0.009-0.002-0.013-0.012-0.022-0.013l-0.193-0.025c-0.009-0.001-0.017,0.007-0.025,0.007c-0.01,0-0.018-0.008-0.027-0.007  l-0.194,0.025c-0.01,0.001-0.014,0.011-0.023,0.013c-0.009,0.002-0.018-0.004-0.026,0l-0.181,0.075  c-0.009,0.003-0.011,0.014-0.02,0.019c-0.008,0.005-0.019,0.001-0.026,0.007l-0.155,0.119c-0.008,0.006-0.007,0.017-0.014,0.024  s-0.017,0.006-0.022,0.013l-0.119,0.155c-0.006,0.007-0.002,0.017-0.007,0.025c-0.005,0.009-0.016,0.011-0.02,0.02l-0.075,0.181  c-0.004,0.009,0.002,0.018,0,0.027c-0.003,0.009-0.013,0.014-0.014,0.023l-0.025,0.194c-0.001,0.01,0.007,0.017,0.007,0.026  s-0.008,0.016-0.007,0.026L83.169,47.32z M83.562,46.958l0.055-0.133l0.085-0.11l0.116-0.089l0.132-0.055l0.142-0.019l0.141,0.019  l0.132,0.055l0.116,0.089l0.085,0.11l0.056,0.133l0.018,0.142l-0.018,0.142l-0.056,0.133l-0.085,0.11l-0.116,0.089l-0.132,0.055  l-0.141,0.019l-0.142-0.019l-0.132-0.055l-0.116-0.089l-0.085-0.11l-0.055-0.133l-0.02-0.142L83.562,46.958z"/><path d="M3.538,45.954h14.137v0.555c0,0.11,0.09,0.2,0.2,0.2h23.397c0.11,0,0.2-0.09,0.2-0.2v-1.114h1.734l-0.363,1.752  c-0.082,0.01-0.157,0.058-0.175,0.144l-0.031,0.15c-0.019,0.087,0.033,0.163,0.107,0.204l-0.271,1.449l-0.381,1.598l-0.001,0.001  l-0.462,1.584l-0.465,1.345l-0.269-0.135c-0.102-0.051-0.219-0.01-0.269,0.09l-2.014,4.021c-0.05,0.099-0.01,0.219,0.089,0.269  l0.279,0.139l0.164,0.082l-0.121,0.232l-0.833,1.419v0.001l-0.896,1.367h-0.001l-0.975,1.339v0.001l-1.025,1.271  c0,0.001-0.001,0.001-0.001,0.001l-1.102,1.235c-0.007,0.009-0.005,0.021-0.01,0.029c-0.007,0.01-0.019,0.012-0.023,0.021  c-0.007,0.017,0.001,0.033-0.001,0.05c-0.005,0.025-0.008,0.046-0.003,0.072c0.006,0.026,0.018,0.045,0.033,0.067  c0.009,0.014,0.008,0.031,0.021,0.043c0.009,0.008,0.021,0.006,0.03,0.012c0.008,0.006,0.01,0.017,0.02,0.021l3.998,1.812  c0.027,0.013,0.056,0.019,0.083,0.019c0.053,0,0.099-0.027,0.137-0.065c0.005-0.005,0.013-0.003,0.018-0.009l1.187-1.444  c0.001-0.002,0.001-0.004,0.002-0.006c0.001-0.001,0.003-0.001,0.004-0.002l1.114-1.501c0.001-0.002,0-0.005,0.002-0.006  c0.001-0.002,0.003-0.002,0.004-0.003l1.038-1.556c0.001-0.001,0-0.004,0.001-0.005c0.001-0.002,0.004-0.001,0.005-0.003  l0.961-1.604c0.001-0.001,0-0.003,0.001-0.004c0.001-0.002,0.003-0.003,0.004-0.005l0.405-0.759l0.06,0.03  c0.029,0.014,0.06,0.021,0.09,0.021c0.073,0,0.144-0.041,0.179-0.111l2.013-4.02h0.001c0.024-0.05,0.027-0.105,0.011-0.153  c-0.016-0.049-0.051-0.091-0.1-0.116l-0.214-0.106l0.585-1.644c0.001-0.002-0.001-0.004,0-0.006c0-0.001,0.002-0.002,0.003-0.004  l0.539-1.791c0.001-0.001-0.001-0.002-0.001-0.004c0.001-0.002,0.004-0.003,0.004-0.005l0.45-1.814  c0.001-0.002-0.001-0.003-0.001-0.005c0.001-0.002,0.003-0.003,0.003-0.005l0.322-1.64l1.978,0.371l1.295,3.542  c0.012,0.033,0.035,0.057,0.061,0.078c0.004,0.004,0.003,0.01,0.008,0.014l0.006,0.004l0,0l0.715,0.529  c0.036,0.026,0.078,0.039,0.119,0.039h4.827c0.024,0,0.049-0.004,0.072-0.014l1.766-0.683l0.174,0.097l0.223,0.153l0.217,0.181  l0.193,0.197l0.177,0.216l0.151,0.228l0.133,0.249l0.107,0.255l0.084,0.272l0.055,0.259l0.031,0.285l0.005,0.285  c0,0.011,0.01,0.018,0.012,0.028c0.005,0.025,0.016,0.044,0.029,0.065c0.014,0.023,0.026,0.042,0.049,0.058  c0.008,0.007,0.01,0.019,0.02,0.023l0.264,0.134l0.234,0.152l0.223,0.178l0.201,0.199l0.187,0.224l0.154,0.229l0.133,0.25  l0.111,0.272l0.078,0.265l0.052,0.277l0.023,0.281l-0.006,0.297c0,0.012,0.01,0.02,0.012,0.031c0.004,0.026,0.014,0.045,0.027,0.068  c0.014,0.022,0.025,0.041,0.047,0.057c0.009,0.007,0.01,0.02,0.021,0.025l0.259,0.137l0.238,0.157l0.222,0.18l0.194,0.193  l0.188,0.228l0.153,0.23l0.135,0.251l0.106,0.26l0.082,0.271l0.055,0.28l0.026,0.28l-0.001,0.195l-0.684,0.51  c-0.004,0.003-0.003,0.007-0.006,0.01s-0.007,0.001-0.01,0.004c-0.017,0.016-0.016,0.038-0.026,0.057  c-0.013,0.024-0.03,0.045-0.033,0.072c-0.002,0.026,0.011,0.048,0.019,0.072c0.007,0.022,0.002,0.046,0.017,0.065  c0.002,0.002,0.007,0.001,0.009,0.004c0.003,0.004,0.002,0.009,0.005,0.012l0.613,0.662c0.039,0.042,0.093,0.063,0.146,0.063  c0.042,0,0.085-0.013,0.121-0.041l4.536-3.438c0.021-0.016,0.024-0.041,0.037-0.062c0.013-0.022,0.033-0.039,0.037-0.063  s-0.01-0.048-0.015-0.073c-0.005-0.023,0-0.049-0.015-0.071l-4.433-6.567l-0.122-0.215l-0.085-0.229  c-0.001-0.004-0.007-0.005-0.008-0.009c-0.002-0.003,0.001-0.007-0.001-0.011l-0.106-0.214l-0.062-0.209L63,51.19l0.014-0.212  l0.055-0.221l0.09-0.202l0.123-0.18l0.156-0.16l0.179-0.127l0.202-0.095l0.213-0.058l0.228-0.021h1.009  c0.03,0,0.061-0.007,0.089-0.021l1.994-0.995h6.539c0.047,0,0.089-0.021,0.125-0.052c0.01-0.008,0.017-0.016,0.024-0.025  c0.009-0.01,0.021-0.016,0.027-0.029l0.861-1.608l18.586,8.341c0.005,0.002,0.01,0.001,0.014,0.003  c0.002,0.001,0.003,0.003,0.005,0.004l1.832,0.618c0.004,0.001,0.008,0.001,0.011,0.002c0.002,0,0.002,0.002,0.004,0.003  l0.296,0.074c0.01,0.002,0.019,0.002,0.028,0.003c0.001,0,0.002,0.002,0.003,0.002l0.305,0.026c0.006,0.001,0.012,0.002,0.018,0.002  c0.005,0,0.009-0.001,0.014-0.001l0.305-0.021c0.001,0,0.002-0.002,0.003-0.002c0.01-0.001,0.02-0.001,0.028-0.004l0.298-0.068  c0.003-0.001,0.004-0.004,0.007-0.005c0.008-0.003,0.016-0.002,0.023-0.005l0.283-0.115c0.004-0.002,0.005-0.006,0.008-0.008  c0.007-0.004,0.015-0.002,0.021-0.006l0.262-0.158c0.005-0.003,0.005-0.01,0.01-0.013c0.004-0.003,0.011-0.002,0.016-0.006  l0.233-0.197c0.005-0.004,0.004-0.011,0.008-0.016c0.005-0.004,0.011-0.003,0.015-0.007l0.199-0.231  c0.004-0.005,0.002-0.013,0.006-0.018c0.003-0.005,0.01-0.003,0.013-0.007l0.161-0.261c0.003-0.005,0-0.009,0.002-0.014  c0.004-0.006,0.01-0.009,0.013-0.015l0.117-0.282c0.002-0.005-0.001-0.01,0-0.015c0.002-0.006,0.009-0.009,0.01-0.015l0.072-0.298  c0.001-0.006-0.004-0.01-0.003-0.016c0.001-0.007,0.008-0.01,0.008-0.016l0.023-0.305c0.001-0.014-0.01-0.023-0.012-0.036  c-0.001-0.013,0.008-0.024,0.004-0.037l-0.229-0.765l-0.19-0.781l-0.145-0.771l-0.106-0.797L97.44,50.17c0,0,0,0,0,0l-0.021-0.801  l0.021-0.801l0.062-0.786l0.106-0.797l0.145-0.771l0.19-0.781l0.229-0.765c0.003-0.01-0.004-0.019-0.003-0.029  c0.002-0.011,0.012-0.017,0.012-0.028v-1.417c0-0.019-0.015-0.03-0.02-0.047c-0.004-0.016,0.003-0.033-0.005-0.048l-0.101-0.187  c-0.002-0.003-0.006-0.003-0.008-0.006s0-0.007-0.002-0.01l-0.118-0.177c-0.002-0.002-0.006-0.002-0.008-0.005s0-0.007-0.003-0.01  l-0.135-0.165c-0.003-0.003-0.007-0.002-0.01-0.005c-0.002-0.002-0.001-0.006-0.003-0.008l-0.148-0.152  c-0.002-0.002-0.006-0.001-0.009-0.003c-0.003-0.003-0.002-0.007-0.005-0.01l-0.163-0.137c-0.003-0.002-0.007-0.001-0.009-0.003  c-0.003-0.002-0.003-0.006-0.006-0.008l-0.174-0.122c-0.003-0.002-0.007,0-0.01-0.002c-0.003-0.001-0.003-0.006-0.006-0.007  l-0.186-0.105c-0.003-0.002-0.006,0-0.01-0.001c-0.003-0.002-0.004-0.006-0.007-0.008l-0.194-0.087c-0.004-0.001-0.007,0.001-0.01,0  c-0.004-0.001-0.004-0.006-0.008-0.007l-0.202-0.068c-0.003-0.001-0.007,0.001-0.01,0c-0.003,0-0.005-0.004-0.008-0.005  l-0.206-0.049c-0.003-0.001-0.006,0.002-0.01,0.001s-0.005-0.005-0.009-0.005l-0.211-0.03c-0.004,0-0.007,0.003-0.011,0.003  c-0.004,0-0.005-0.004-0.009-0.004l-0.112-0.005c-0.005,0-0.008-0.005-0.013-0.005c-0.004,0-0.006,0.004-0.01,0.004l-0.078-0.003  c-0.002,0-0.003,0.001-0.004,0.001c-0.002,0-0.003-0.002-0.005-0.002H75.436l-0.545-0.767l-1.23-1.731l-0.046-0.087  c-0.001-0.002-0.004-0.002-0.005-0.004s0-0.004-0.001-0.006l-0.059-0.097c-0.001-0.002-0.004-0.002-0.006-0.004  c-0.001-0.002,0-0.004-0.001-0.006l-0.063-0.092c-0.001-0.001-0.004-0.001-0.005-0.003c-0.002-0.002,0-0.005-0.002-0.007  l-0.067-0.085c-0.002-0.002-0.005-0.001-0.007-0.003c-0.001-0.002,0-0.005-0.002-0.006l-0.069-0.077  c-0.002-0.002-0.005-0.001-0.007-0.003s-0.001-0.005-0.003-0.007l-0.07-0.068c-0.002-0.002-0.006-0.001-0.008-0.003  c-0.003-0.002-0.002-0.006-0.005-0.008l-0.071-0.058c-0.003-0.002-0.007,0-0.01-0.003s-0.003-0.006-0.006-0.008l-0.069-0.046  c-0.004-0.002-0.008,0-0.012-0.002c-0.004-0.002-0.004-0.007-0.008-0.009l-0.066-0.034c-0.006-0.003-0.012,0.001-0.018-0.001  s-0.007-0.009-0.013-0.011l-0.064-0.021c-0.007-0.002-0.012,0.003-0.019,0.001c-0.006-0.001-0.009-0.008-0.016-0.009l-0.059-0.008  c-0.005,0-0.008,0.004-0.013,0.003c-0.006,0-0.009-0.005-0.014-0.005l-3.965,0v-0.97c0-0.002-0.003-0.004-0.003-0.007  c0-0.002,0.002-0.003,0.002-0.005l-0.004-0.063c0-0.005-0.005-0.008-0.006-0.013c-0.001-0.006,0.004-0.01,0.003-0.015l-0.013-0.062  c-0.001-0.005-0.006-0.006-0.008-0.011c-0.001-0.004,0.002-0.008,0.001-0.013l-0.021-0.06c-0.002-0.004-0.007-0.006-0.009-0.01  c-0.002-0.004,0.001-0.009-0.001-0.013l-0.027-0.056c-0.002-0.004-0.008-0.005-0.011-0.009c-0.003-0.005,0-0.011-0.003-0.015  l-0.035-0.052c-0.003-0.004-0.009-0.004-0.012-0.008c-0.004-0.004-0.002-0.01-0.005-0.013l-0.042-0.047  c-0.003-0.003-0.008-0.002-0.011-0.005s-0.003-0.008-0.006-0.012l-0.047-0.042c-0.004-0.003-0.01-0.001-0.014-0.005  c-0.004-0.003-0.003-0.009-0.008-0.012l-0.053-0.035c-0.005-0.003-0.01,0-0.015-0.003c-0.004-0.002-0.004-0.008-0.009-0.01  l-0.057-0.028c-0.005-0.002-0.01,0.001-0.015-0.001c-0.004-0.002-0.005-0.007-0.01-0.009l-0.06-0.02  c-0.004-0.001-0.009,0.002-0.013,0.001c-0.004-0.001-0.006-0.006-0.011-0.007l-0.062-0.013c-0.005-0.001-0.009,0.003-0.014,0.003  c-0.006-0.001-0.008-0.007-0.014-0.007l-0.062-0.004c-0.005,0-0.009,0-0.013,0H65c-0.002,0-0.004,0.002-0.006,0.002  c-0.003,0-0.004-0.002-0.007-0.002l-0.063,0.004c-0.006,0-0.008,0.006-0.014,0.007c-0.005,0-0.009-0.004-0.014-0.003l-0.062,0.013  c-0.005,0.001-0.007,0.006-0.011,0.007c-0.004,0.001-0.009-0.002-0.013-0.001l-0.06,0.02c-0.005,0.001-0.006,0.007-0.01,0.009  c-0.005,0.002-0.01-0.001-0.015,0.001l-0.057,0.028c-0.005,0.002-0.005,0.008-0.01,0.011c-0.005,0.002-0.011,0-0.015,0.003  l-0.052,0.035c-0.004,0.003-0.003,0.008-0.007,0.011s-0.009,0.001-0.012,0.004l-0.048,0.042c-0.004,0.003-0.003,0.009-0.007,0.013  s-0.01,0.002-0.014,0.007l-0.041,0.047c-0.003,0.003-0.001,0.008-0.004,0.012c-0.003,0.003-0.008,0.003-0.011,0.007l-0.035,0.052  c-0.003,0.004,0,0.009-0.003,0.013c-0.002,0.004-0.008,0.004-0.01,0.009l-0.028,0.056c-0.002,0.004,0.001,0.009-0.001,0.014  s-0.008,0.006-0.01,0.011l-0.021,0.06c-0.002,0.005,0.002,0.01,0.001,0.015s-0.007,0.007-0.008,0.012l-0.012,0.062  c-0.001,0.004,0.003,0.008,0.003,0.012c-0.001,0.005-0.006,0.008-0.006,0.013l-0.004,0.063c0,0.002,0.002,0.003,0.002,0.005  c0,0.002-0.003,0.004-0.003,0.007v0.971h-0.477v-0.391v-0.451v-0.312c0-0.11-0.09-0.2-0.2-0.2h-0.416c-0.11,0-0.2,0.09-0.2,0.2  v0.112H63.01v-0.112c0-0.11-0.09-0.2-0.2-0.2h-0.416c-0.11,0-0.2,0.09-0.2,0.2v0.112h-0.015v-0.487c0-0.11-0.09-0.2-0.2-0.2h-3.433  l-0.001,0l-0.56-0.016l-0.56-0.046l-0.564-0.077l-0.551-0.106l-0.548-0.138l-0.531-0.164l-0.525-0.195l-0.525-0.229l-0.495-0.247  l-0.492-0.281l-0.473-0.304l-0.379-0.275v-0.568v-0.622c0-0.11-0.09-0.2-0.2-0.2h-1.048c-0.11,0-0.2,0.09-0.2,0.2v0.622v2.739  c0,0.003,0.003,0.004,0.003,0.007c0,0.002-0.002,0.004-0.002,0.006l0.007,0.104c0,0.005,0.005,0.007,0.006,0.012  c0,0.005-0.004,0.008-0.003,0.013l0.02,0.102c0.001,0.005,0.006,0.008,0.008,0.013c0.001,0.005-0.003,0.009-0.001,0.014l0.033,0.098  c0.002,0.005,0.008,0.008,0.01,0.013c0.002,0.004-0.001,0.008,0.001,0.012l0.047,0.093c0.002,0.005,0.008,0.006,0.01,0.011  c0.002,0.003,0,0.006,0.002,0.009l0.057,0.086c0.002,0.004,0.008,0.002,0.011,0.006c0.004,0.005,0.002,0.012,0.006,0.017  l0.068,0.078c0.003,0.003,0.009,0.002,0.013,0.005c0.003,0.004,0.002,0.009,0.006,0.013l0.078,0.068  c0.004,0.003,0.01,0.002,0.014,0.005s0.003,0.008,0.007,0.011l0.086,0.058c0.005,0.003,0.011,0.002,0.016,0.005  c0.004,0.002,0.004,0.007,0.008,0.009l0.094,0.046c0.005,0.003,0.011,0.002,0.017,0.004c0.003,0.001,0.004,0.005,0.007,0.006  l0.098,0.033c0.007,0.002,0.014,0.002,0.021,0.003c0.002,0,0.003,0.003,0.005,0.003l0.102,0.02c0.009,0.001,0.017,0.001,0.024,0.002  c0.001,0,0.001,0.001,0.002,0.001l0.104,0.007c0.004,0,0.009,0,0.013,0h1.412v0.251c0,0.009,0.009,0.015,0.01,0.024  c0.003,0.026,0.016,0.045,0.028,0.067c0.014,0.024,0.023,0.044,0.045,0.061c0.008,0.005,0.008,0.016,0.016,0.02l0.373,0.221  l-35.694,0.002v-1.047c0-0.11-0.09-0.2-0.2-0.2h-1.103c-0.11,0-0.2,0.09-0.2,0.2v1.248v1.997c0,0.11,0.09,0.2,0.2,0.2h0.902v0.083  v0.196H3.538c-0.11,0-0.2,0.09-0.2,0.2v4.445C3.338,45.864,3.428,45.954,3.538,45.954z M96.229,42.127l0.094,0.014l0.182,0.043  l0.186,0.063l0.178,0.079l0.173,0.098l0.155,0.109l0.152,0.127l0.127,0.131l0.132,0.161l0.104,0.155l0.072,0.134v1.34l-0.223,0.743  c-0.001,0.002,0.001,0.003,0.001,0.005c-0.001,0.002-0.004,0.003-0.004,0.005l-0.191,0.784c0,0.002,0.002,0.004,0.001,0.006  c-0.001,0.002-0.003,0.002-0.003,0.004l-0.148,0.792c0,0.002,0.002,0.003,0.001,0.005c0,0.002-0.003,0.003-0.003,0.005l-0.106,0.8  c0,0.002,0.002,0.003,0.001,0.005c0,0.002-0.002,0.003-0.002,0.005l-0.064,0.804c0,0.002,0.002,0.003,0.002,0.005  s-0.003,0.003-0.003,0.006l-0.021,0.807c0,0.002,0.002,0.003,0.002,0.005s-0.002,0.003-0.002,0.005l0.021,0.806  c0,0.002,0.003,0.003,0.003,0.006c0,0.002-0.002,0.003-0.002,0.005l0.064,0.804c0,0.002,0.002,0.003,0.002,0.005  c0.001,0.002-0.001,0.004-0.001,0.006l0.106,0.799c0,0.002,0.003,0.004,0.003,0.006s-0.001,0.003-0.001,0.004l0.148,0.793  c0,0.002,0.002,0.003,0.003,0.005c0,0.002-0.001,0.004-0.001,0.006l0.191,0.784c0,0.002,0.003,0.003,0.004,0.005  c0,0.001-0.002,0.003-0.001,0.005l0.221,0.736l-0.02,0.25l-0.065,0.27l-0.104,0.25l-0.146,0.235l-0.177,0.206l-0.208,0.176  l-0.239,0.145l-0.25,0.102l-0.267,0.062l-0.076,0.005V42.127z M41.272,40.459H19.765v-0.948h35.781v1.34H41.473V40.66  C41.473,40.549,41.383,40.459,41.272,40.459z M42.012,52.403c0-0.001-0.001-0.003,0-0.005c0-0.002,0.002-0.002,0.003-0.004  l0.463-1.59c0.001-0.002-0.001-0.004-0.001-0.006c0.001-0.002,0.003-0.002,0.003-0.004l0.385-1.611  c0.001-0.002-0.001-0.003-0.001-0.005c0.001-0.001,0.003-0.002,0.003-0.004l0.265-1.418l0.34,0.085l-0.125,0.503  c0,0.002,0.002,0.004,0.001,0.007c-0.001,0.002-0.003,0.002-0.003,0.004l-0.167,0.89l-0.39,1.631c0,0,0,0,0,0.001l-0.471,1.615  l-0.502,1.453l-0.286-0.143L42.012,52.403z M43.565,49.329c0.001-0.002,0.003-0.003,0.003-0.005l0.166-0.884l0.125-0.502  l0.299,0.075l-0.126,0.502c-0.001,0.002,0.001,0.004,0.001,0.007c0,0.002-0.003,0.003-0.003,0.005l-0.289,1.522l-0.359,1.499l0,0  l-0.433,1.492l-0.43,1.258l-0.344-0.172l0.521-1.506c0.001-0.001-0.001-0.003,0-0.005c0-0.002,0.003-0.003,0.003-0.005l0.473-1.623  c0-0.002-0.001-0.004-0.001-0.006c0.001-0.002,0.003-0.002,0.003-0.004l0.393-1.645C43.566,49.332,43.565,49.331,43.565,49.329z   M42.466,60.697l-0.957,1.598l0,0l-1.029,1.543l-1.106,1.49l-1.088,1.325l-3.611-1.636l0.921-1.033  c0.001-0.002,0.001-0.004,0.002-0.006c0.001-0.001,0.003-0.001,0.004-0.002l1.039-1.289c0.001-0.002,0-0.004,0.001-0.005  c0.002-0.002,0.005-0.001,0.006-0.003l0.975-1.338c0.002-0.002,0-0.005,0.002-0.007c0-0.001,0.002-0.001,0.003-0.002l0.907-1.386  c0.001-0.001,0-0.004,0.001-0.005c0.001-0.002,0.004-0.001,0.005-0.003l0.838-1.428c0.001-0.001,0-0.002,0-0.004  c0.002-0.002,0.004-0.002,0.005-0.004l0.124-0.238l0.284,0.143l-0.13,0.248c0,0.001-0.001,0.001-0.001,0.001l-0.855,1.459v0.001  l-0.915,1.396h-0.001l-0.995,1.367c0,0.001,0,0.001,0,0.002l-1.048,1.299c-0.001,0-0.001,0-0.001,0l-0.465,0.521  c-0.008,0.008-0.004,0.021-0.01,0.029c-0.007,0.01-0.019,0.012-0.023,0.021c-0.007,0.016,0.002,0.032-0.001,0.049  c-0.005,0.026-0.008,0.047-0.003,0.073c0.006,0.026,0.018,0.044,0.032,0.065c0.01,0.015,0.009,0.033,0.021,0.045  c0.009,0.008,0.021,0.006,0.031,0.012c0.009,0.005,0.011,0.017,0.02,0.021l0.721,0.326c0.026,0.013,0.055,0.019,0.082,0.019  c0.052,0,0.097-0.026,0.134-0.062c0.005-0.005,0.014-0.003,0.019-0.008l1.012-1.182c0.001-0.002,0.001-0.004,0.001-0.005  c0.002-0.001,0.004-0.001,0.005-0.002l0.955-1.228c0.001-0.002,0-0.004,0.002-0.006c0.001-0.002,0.002-0.001,0.003-0.002  l0.896-1.271c0.001-0.002,0-0.004,0.001-0.006c0.001-0.001,0.004,0,0.005-0.002l0.834-1.312c0.001-0.002,0-0.004,0.001-0.006  s0.003-0.001,0.004-0.002l0.753-1.318l1.992,0.998L42.466,60.697z M40.005,58.859c0.001-0.002,0-0.004,0.001-0.005  c0-0.001,0.002-0.002,0.003-0.003l0.139-0.265l0.367,0.185l-0.739,1.293l-0.832,1.311c0,0,0,0,0,0.001l-0.885,1.255h-0.001  l-0.955,1.228l-0.908,1.061l-0.335-0.152l0.283-0.317c0.002-0.002,0.001-0.005,0.002-0.006c0.001-0.002,0.003-0.001,0.004-0.002  l1.062-1.316c0.001-0.002,0-0.004,0.001-0.006c0.002-0.002,0.005-0.001,0.006-0.002l0.995-1.367c0.001-0.002,0-0.005,0.001-0.007  c0.001-0.001,0.003-0.001,0.004-0.002l0.927-1.415c0.001-0.001,0-0.004,0.001-0.005c0.001-0.002,0.004-0.001,0.005-0.003  L40.005,58.859z M43.284,59.711l-0.056-0.027l-2.351-1.178h-0.001l-0.723-0.363l-0.003-0.001l-0.643-0.321l-0.167-0.084l1.834-3.663  l0.016,0.008l0.644,0.323l0.709,0.354l2.379,1.191l0.195,0.099L43.284,59.711z M46.454,50.31l-0.45,1.813l-0.534,1.774l-0.567,1.595  l-2.022-1.013l0.45-1.316c0-0.001-0.001-0.003,0-0.004c0-0.002,0.002-0.003,0.003-0.005l0.434-1.494  c0.001-0.002-0.001-0.003-0.001-0.005c0.001-0.001,0.003-0.002,0.003-0.004l0.362-1.513c0-0.002-0.001-0.003-0.001-0.005  c0.001-0.002,0.003-0.002,0.003-0.004l0.288-1.516c0,0,0,0,0,0l0.126-0.502l2.229,0.559L46.454,50.31z M46.894,48.12l-3.653-0.908  l0.377-1.819l3.896-0.038L46.894,48.12z M65.221,49.514h-0.969c-0.004,0-0.006,0.003-0.009,0.004c-0.003,0-0.006-0.003-0.009-0.003  l-0.256,0.023c-0.007,0-0.01,0.007-0.017,0.009c-0.007,0.001-0.012-0.004-0.019-0.002l-0.248,0.067  c-0.006,0.001-0.009,0.009-0.015,0.011c-0.006,0.002-0.013-0.002-0.019,0.001l-0.232,0.11c-0.006,0.003-0.007,0.011-0.013,0.014  c-0.006,0.003-0.013,0-0.018,0.004l-0.209,0.149c-0.005,0.004-0.005,0.011-0.01,0.015s-0.012,0.002-0.017,0.007l-0.18,0.184  c-0.005,0.005-0.003,0.013-0.007,0.018c-0.005,0.005-0.012,0.005-0.016,0.01l-0.145,0.212c-0.004,0.005-0.001,0.012-0.004,0.018  c-0.003,0.006-0.011,0.007-0.014,0.013l-0.104,0.235c-0.003,0.006,0.002,0.011,0,0.017c-0.003,0.007-0.01,0.009-0.012,0.016  l-0.062,0.249c-0.002,0.008,0.004,0.014,0.003,0.02c-0.001,0.007-0.008,0.01-0.008,0.017L62.6,51.187  c0,0.007,0.006,0.011,0.006,0.017c0,0.007-0.007,0.012-0.006,0.019l0.028,0.255c0.001,0.008,0.008,0.012,0.01,0.019  c0.001,0.006-0.004,0.011-0.002,0.017l0.073,0.247c0.002,0.007,0.009,0.01,0.012,0.017c0.002,0.005-0.002,0.011,0.001,0.016  l0.108,0.218l0.087,0.232c0.003,0.007,0.009,0.009,0.012,0.016c0.003,0.004,0,0.009,0.002,0.013l0.138,0.244  c0.001,0.002,0.004,0.001,0.006,0.004s0,0.007,0.002,0.01l4.328,6.412l-4.241,3.214l-0.339-0.365l0.585-0.437  c0.004-0.003,0.004-0.009,0.008-0.013c0.02-0.017,0.026-0.041,0.038-0.065c0.012-0.023,0.026-0.041,0.028-0.066  c0.001-0.006,0.006-0.009,0.006-0.014l0.002-0.304c0-0.004-0.004-0.006-0.004-0.01s0.003-0.007,0.003-0.011l-0.028-0.301  c0-0.004-0.005-0.006-0.005-0.01c-0.001-0.004,0.003-0.007,0.002-0.011L63.4,60.25c-0.001-0.004-0.005-0.006-0.006-0.009  c-0.001-0.004,0.002-0.007,0.001-0.011l-0.087-0.289c-0.001-0.004-0.006-0.006-0.007-0.009c-0.001-0.004,0.001-0.007,0-0.011  l-0.115-0.279c-0.001-0.004-0.006-0.005-0.008-0.008c-0.001-0.004,0.001-0.008-0.001-0.012l-0.144-0.268  c-0.002-0.003-0.006-0.003-0.008-0.006s0-0.007-0.002-0.01l-0.168-0.252c-0.002-0.003-0.006-0.003-0.009-0.006  c-0.002-0.003,0-0.008-0.003-0.011l-0.193-0.234c-0.003-0.003-0.007-0.003-0.01-0.005c-0.003-0.003-0.001-0.007-0.004-0.01  l-0.215-0.213c-0.003-0.003-0.007-0.002-0.009-0.004c-0.004-0.003-0.003-0.008-0.006-0.01l-0.235-0.191  c-0.003-0.003-0.007-0.001-0.01-0.004c-0.003-0.002-0.003-0.006-0.006-0.008l-0.253-0.168c-0.003-0.002-0.007,0-0.01-0.002  c-0.004-0.002-0.004-0.006-0.007-0.008l-0.159-0.084l0.004-0.181c0-0.004-0.004-0.007-0.004-0.011s0.003-0.006,0.003-0.01  l-0.025-0.303c0-0.005-0.004-0.007-0.005-0.012c0-0.003,0.003-0.006,0.002-0.009l-0.056-0.299c-0.001-0.004-0.005-0.006-0.006-0.01  c-0.001-0.003,0.002-0.007,0.001-0.011l-0.086-0.291c-0.001-0.004-0.005-0.005-0.006-0.008c-0.002-0.004,0.002-0.008,0-0.012  l-0.115-0.281c-0.002-0.004-0.006-0.004-0.008-0.008s0.001-0.007-0.001-0.01l-0.143-0.27c-0.002-0.003-0.007-0.003-0.009-0.007  c-0.002-0.003,0-0.007-0.002-0.011l-0.17-0.252c-0.002-0.004-0.006-0.003-0.008-0.006c-0.003-0.004-0.001-0.008-0.004-0.012  l-0.194-0.233c-0.003-0.003-0.007-0.002-0.01-0.005s-0.001-0.007-0.004-0.01l-0.217-0.213c-0.003-0.004-0.007-0.002-0.011-0.005  c-0.003-0.003-0.002-0.007-0.005-0.009l-0.237-0.19c-0.003-0.003-0.008-0.001-0.011-0.003s-0.003-0.007-0.006-0.009l-0.255-0.165  c-0.003-0.002-0.007,0-0.011-0.002c-0.003-0.002-0.003-0.007-0.007-0.008l-0.164-0.084l-0.003-0.177  c0-0.003-0.003-0.006-0.004-0.009c0-0.004,0.003-0.006,0.003-0.01l-0.032-0.295c-0.001-0.004-0.005-0.006-0.006-0.01  c0-0.004,0.003-0.006,0.002-0.01l-0.062-0.291c-0.001-0.003-0.004-0.004-0.005-0.007c-0.001-0.004,0.002-0.007,0.001-0.011  l-0.088-0.283c-0.001-0.004-0.006-0.005-0.007-0.008c-0.001-0.004,0.001-0.008,0-0.011l-0.115-0.274  c-0.001-0.003-0.005-0.003-0.007-0.006c-0.002-0.004,0.001-0.007-0.001-0.01l-0.14-0.262c-0.002-0.004-0.007-0.004-0.009-0.008  c-0.002-0.003,0-0.007-0.002-0.01l-0.165-0.247c-0.002-0.003-0.006-0.003-0.008-0.005c-0.002-0.003-0.001-0.007-0.003-0.01  l-0.188-0.23c-0.003-0.003-0.007-0.002-0.009-0.005s-0.001-0.007-0.004-0.009l-0.208-0.212c-0.003-0.003-0.007-0.001-0.01-0.004  s-0.002-0.007-0.005-0.01l-0.229-0.19c-0.003-0.002-0.007-0.001-0.01-0.003c-0.002-0.002-0.002-0.006-0.005-0.008l-0.244-0.168  c-0.003-0.002-0.007,0-0.009-0.002c-0.004-0.002-0.004-0.007-0.007-0.009l-0.26-0.145c-0.004-0.002-0.008,0.001-0.011-0.001  c-0.024-0.012-0.05-0.007-0.076-0.009c-0.026-0.001-0.05-0.01-0.074-0.001c-0.003,0.001-0.006-0.002-0.009-0.001l-1.818,0.703  h-4.725l-0.619-0.458l-1.313-3.592c-0.003-0.008-0.013-0.011-0.018-0.019c-0.012-0.023-0.028-0.037-0.049-0.054  c-0.021-0.018-0.037-0.033-0.063-0.042c-0.008-0.003-0.012-0.012-0.021-0.014l-2.081-0.39l0.676-3.011h2.03v3.667  c0,0.012,0.011,0.019,0.013,0.03c0.001,0.011-0.007,0.021-0.003,0.032l1.063,3.255c0.013,0.039,0.038,0.069,0.068,0.093  c0.002,0.002,0.002,0.005,0.004,0.006l0.002,0.002c0,0,0,0,0.001,0l0.519,0.383c0.035,0.025,0.077,0.039,0.118,0.039h4.266  c0.023,0,0.048-0.005,0.071-0.014l1.817-0.697c0.001,0,0.002,0,0.002,0l4.146-1.51c0.005-0.002,0.006-0.008,0.011-0.01  c0.008-0.004,0.017-0.002,0.024-0.007c0.019-0.011,0.022-0.033,0.036-0.049c0.017-0.02,0.033-0.034,0.042-0.058  c0.01-0.025,0.005-0.049,0.003-0.077c0-0.02,0.01-0.038,0.003-0.057c-0.003-0.007-0.011-0.008-0.014-0.015s0.001-0.014-0.003-0.021  l-0.094-0.155l-0.06-0.159l-0.028-0.156l0.002-0.169l0.031-0.161l0.06-0.153l0.09-0.143l0.112-0.122l0.129-0.097l0.148-0.073  l0.158-0.045l0.173-0.016h3.588L65.221,49.514z M52.904,51.718c0.01,0.03,0.013,0.062,0.037,0.085  c0.001,0.002,0.002,0.001,0.003,0.002c0.001,0,0.001,0.001,0.001,0.002c0.038,0.035,0.087,0.053,0.136,0.053  c0.052,0,0.104-0.02,0.144-0.061l0.174-0.178c0.002-0.002,0.001-0.006,0.003-0.008c0.001-0.001,0.004,0,0.005-0.002l0.162-0.188  c0.002-0.002,0-0.004,0.002-0.006c0.001-0.001,0.004-0.001,0.005-0.003l0.152-0.197c0.001-0.002,0-0.005,0.002-0.007  c0.001-0.002,0.005-0.001,0.006-0.003L53.875,51c0.002-0.002,0-0.005,0.002-0.008c0.001-0.001,0.003,0,0.004-0.002l0.127-0.215  c0.001-0.001,0-0.002,0.001-0.004s0.004-0.003,0.005-0.006l0.115-0.221c0.001-0.002,0-0.004,0-0.006  c0.002-0.002,0.004-0.003,0.005-0.005l0.102-0.228c0.001-0.002-0.001-0.003,0-0.005c0.001-0.003,0.004-0.004,0.005-0.006  l0.088-0.233c0.001-0.001-0.001-0.003,0-0.005s0.003-0.003,0.004-0.005l0.074-0.238c0.001-0.002-0.001-0.004-0.001-0.006  c0.001-0.002,0.003-0.003,0.004-0.005l0.06-0.242c0-0.002-0.001-0.004-0.001-0.006c0.001-0.001,0.003-0.002,0.003-0.004l0.047-0.245  c0-0.002-0.002-0.004-0.001-0.006c0-0.002,0.003-0.004,0.003-0.006l0.009-0.072h1.366l1.637,2.641l-1.561,0.599h-4.165l-0.416-0.307  l-0.958-2.933h3.006l0.034,0.086l0.06,0.208l0.038,0.221l0.016,0.208l-0.007,0.226l-0.028,0.215l-0.05,0.21l-0.072,0.203L53.331,51  l-0.105,0.175l-0.139,0.185l-0.145,0.155l-0.005,0.005v0.001l-0.003,0.003c-0.015,0.017-0.013,0.039-0.021,0.058  c-0.013,0.028-0.032,0.054-0.031,0.084C52.883,51.685,52.898,51.699,52.904,51.718z M53.924,49.436  c-0.001-0.004-0.005-0.006-0.006-0.01c-0.001-0.003,0.002-0.007,0.001-0.01l-0.056-0.196h0.263l-0.002,0.015l-0.044,0.229  l-0.057,0.231l-0.046,0.145l-0.011-0.15c0-0.003-0.004-0.005-0.004-0.009c-0.001-0.004,0.003-0.007,0.002-0.011L53.924,49.436z   M67.104,48.499h-4.245c-0.004,0-0.006,0.003-0.01,0.004c-0.003,0-0.005-0.003-0.009-0.003l-0.201,0.019  c-0.007,0-0.011,0.008-0.018,0.009c-0.006,0.001-0.012-0.004-0.019-0.002l-0.194,0.055c-0.007,0.002-0.009,0.009-0.015,0.012  c-0.007,0.002-0.014-0.001-0.02,0.001l-0.181,0.089c-0.006,0.003-0.007,0.011-0.013,0.015s-0.013,0.001-0.019,0.005l-0.161,0.121  c-0.005,0.004-0.005,0.012-0.01,0.016s-0.013,0.003-0.018,0.008l-0.137,0.148c-0.005,0.005-0.003,0.013-0.007,0.018  s-0.012,0.005-0.016,0.011l-0.107,0.171c-0.004,0.006,0,0.013-0.003,0.02s-0.011,0.008-0.014,0.014l-0.073,0.188  c-0.002,0.006,0.002,0.012,0,0.018c-0.002,0.007-0.009,0.009-0.01,0.016l-0.039,0.198c-0.001,0.006,0.004,0.012,0.004,0.018  c-0.001,0.007-0.008,0.011-0.008,0.019l-0.002,0.202c0,0.007,0.007,0.012,0.008,0.019c0,0.007-0.005,0.012-0.004,0.019l0.035,0.199  c0.001,0.007,0.009,0.011,0.011,0.018c0.001,0.006-0.003,0.011-0.001,0.017l0.069,0.186l-3.769,1.372l-1.736-2.803  c-0.005-0.007-0.014-0.007-0.02-0.014c-0.017-0.021-0.037-0.031-0.061-0.044c-0.023-0.013-0.042-0.025-0.067-0.028  c-0.009-0.001-0.014-0.009-0.022-0.009h-1.653h-0.78h-3.217v-3.467h16.748V48.499z M73.689,48.499h-6.186v-3.146l4.591,0h0.001  h1.594V48.499z M74.662,46.832L74.09,47.9v-2.548l1.364,0L74.662,46.832z M95.828,42.104v13.741l-0.072-0.007l-0.273-0.068  l-1.81-0.611l-18.556-8.327l0.848-1.584c0.008-0.016,0.001-0.033,0.005-0.049c0.004-0.016,0.019-0.027,0.019-0.045c0,0,0,0,0,0  s0,0,0,0l-0.01-2.239c0-0.015-0.014-0.025-0.017-0.04c-0.003-0.014,0.005-0.027-0.001-0.04l-0.218-0.495l-0.104-0.234H95.828z   M75.587,44.952l-1.697,0h-1.596l-0.008-1.838l3.293,0L75.587,44.952z M75.473,42.713l-3.388,0h-0.001H46.001v-0.094h29.43  L75.473,42.713z M64.719,37.457C64.719,37.456,64.719,37.456,64.719,37.457l0.002-0.036l0.007-0.036l0.013-0.036l0.016-0.031  l0.021-0.033l0.025-0.029l0.024-0.021l0.032-0.022l0.034-0.017l0.033-0.011l0.034-0.007l0.044-0.002h3.122l0.043,0.002l0.034,0.007  l0.033,0.011l0.033,0.016l0.032,0.021l0.029,0.026l0.021,0.024l0.022,0.034l0.014,0.028l0.013,0.036l0.009,0.043l0.002,0.03  c0,0,0,0,0,0v0.97l-3.694,0V37.457z M63.842,38.833l0.677,0h4.095h4.112c0.007,0,0.015,0,0.022-0.001l0.028-0.003l0.018,0.002  l0.03,0.01l0.042,0.021l0.051,0.034l0.062,0.05L73.036,39l0.055,0.061l0.039,0.05h-9.288V38.833z M63.842,39.511h9.545l0.953,1.34  H63.842V39.511z M74.625,41.252l0.534,0.751l0.095,0.215H45.801c-0.11,0-0.2,0.09-0.2,0.2v0.495c0,0.11,0.09,0.2,0.2,0.2h26.085  l0.008,1.838l-4.59,0H50.155h-2.391c-0.001,0-0.001,0-0.002,0l-4.312,0.042h-1.979v-3.742h14.273h0.987h5.921h0.987H74.625z   M62.981,40.474c0.013,0.006,0.026,0.006,0.04,0.008c0.004,0.001,0.006,0.005,0.01,0.005l0.097,0.013  c0.009,0.001,0.018,0.002,0.026,0.002s0.018-0.001,0.026-0.002l0.097-0.013c0.004,0,0.006-0.004,0.01-0.005  c0.014-0.002,0.027-0.002,0.04-0.008l0.091-0.038c0.008-0.003,0.009-0.012,0.016-0.016c0.003-0.001,0.006-0.001,0.008-0.002v0.434  h-0.587v-0.438c0.006,0.004,0.014,0.003,0.021,0.007c0.007,0.004,0.008,0.013,0.016,0.016L62.981,40.474z M62.98,39.928l0.007-0.046  l0.017-0.04l0.027-0.036l0.036-0.028l0.041-0.017l0.046-0.006l0.046,0.006l0.041,0.017l0.036,0.028l0.026,0.035l0.017,0.041  l0.006,0.046l-0.006,0.046l-0.017,0.041l-0.026,0.035l-0.037,0.029l-0.04,0.017l-0.046,0.006l-0.046-0.006l-0.04-0.017l-0.037-0.029  l-0.027-0.036l-0.017-0.04L62.98,39.928z M63.437,39.438c-0.009-0.005-0.011-0.016-0.02-0.02l-0.091-0.037  c-0.008-0.003-0.017,0.002-0.025,0s-0.013-0.012-0.022-0.013l-0.097-0.013c-0.011-0.001-0.018,0.007-0.027,0.007  c-0.01,0-0.017-0.008-0.027-0.007l-0.097,0.013c-0.01,0.001-0.014,0.011-0.022,0.013s-0.018-0.003-0.025,0l-0.091,0.037  c-0.009,0.004-0.011,0.015-0.02,0.019c-0.005,0.003-0.013,0.001-0.018,0.005v-0.131v-0.508c0-0.11-0.09-0.2-0.2-0.2h-5.921  c-0.11,0-0.2,0.09-0.2,0.2v0.508v0.13c-0.005-0.003-0.012-0.001-0.017-0.004c-0.009-0.005-0.011-0.015-0.02-0.019l-0.09-0.037  c-0.009-0.004-0.018,0.002-0.027,0c-0.009-0.002-0.013-0.012-0.022-0.013l-0.098-0.013c-0.01-0.001-0.017,0.007-0.026,0.007  c-0.011,0-0.017-0.008-0.027-0.007l-0.097,0.013c-0.01,0.001-0.014,0.011-0.022,0.013s-0.017-0.003-0.025,0l-0.091,0.037  c-0.009,0.004-0.012,0.015-0.02,0.019c-0.002,0.001-0.004,0-0.005,0.001v-0.127V38.63v-0.142c0-0.11-0.09-0.2-0.2-0.2h-1.434  l-0.086-0.051h9.215v0.392v0.005v0.678v0.127C63.439,39.438,63.438,39.438,63.437,39.438z M56.934,39.111v-0.107h5.521v0.107H56.934  z M62.454,39.511v1.34h-5.521v-1.34H62.454z M56.102,40.482c0.003,0.001,0.005,0.005,0.009,0.005l0.097,0.013  c0.009,0.001,0.018,0.002,0.026,0.002s0.017,0,0.025-0.002l0.098-0.013c0.004,0,0.005-0.004,0.009-0.005  c0.015-0.002,0.029-0.003,0.043-0.009l0.09-0.038c0.008-0.003,0.009-0.012,0.016-0.016c0.006-0.004,0.014-0.003,0.02-0.007v0.438  h-0.587v-0.434c0.002,0.001,0.005,0.001,0.007,0.002c0.008,0.004,0.009,0.013,0.017,0.016l0.091,0.038  C56.073,40.48,56.088,40.48,56.102,40.482z M56.061,39.928l0.007-0.046l0.017-0.041l0.026-0.035l0.036-0.028l0.041-0.017  l0.047-0.006l0.044,0.006l0.042,0.018l0.036,0.027l0.025,0.033l0.02,0.046l0.005,0.043l-0.005,0.043l-0.02,0.045l-0.025,0.033  l-0.036,0.028l-0.042,0.018l-0.044,0.006l-0.047-0.006l-0.04-0.017l-0.037-0.029l-0.026-0.035l-0.017-0.041L56.061,39.928z   M51.294,33.632h0.647v0.222h-0.647V33.632z M51.891,37.385l-0.082-0.005l-0.076-0.015l-0.073-0.025l-0.071-0.034l-0.062-0.042  l-0.058-0.051l-0.055-0.061l-0.04-0.062l-0.035-0.071l-0.025-0.074l-0.015-0.075l-0.005-0.076v0v-2.539h0.647v0.47  c0,0.006,0.006,0.01,0.007,0.016c0.002,0.026,0.017,0.045,0.028,0.068s0.019,0.047,0.039,0.064c0.005,0.004,0.004,0.011,0.009,0.014  l0.465,0.337c0.002,0.001,0.004,0.001,0.006,0.002s0.001,0.003,0.003,0.004l0.482,0.311c0.002,0.001,0.005,0.001,0.007,0.002  c0.001,0.001,0.001,0.003,0.003,0.004l0.498,0.284c0.002,0.001,0.005,0.001,0.007,0.002c0.002,0,0.002,0.002,0.003,0.003  l0.514,0.256c0.002,0.001,0.004,0,0.006,0.001c0.001,0,0.001,0.003,0.003,0.003l0.525,0.229c0.003,0.001,0.006,0,0.009,0.001  c0.001,0.001,0.001,0.002,0.002,0.002l0.538,0.199c0.003,0.001,0.006,0,0.009,0.001c0.001,0,0.001,0.002,0.002,0.002l0.549,0.169  c0.002,0.001,0.005,0,0.008,0.001c0.001,0,0.001,0.002,0.002,0.002l0.556,0.14c0.003,0.001,0.006,0,0.009,0.001  c0.001,0,0.001,0.001,0.002,0.001l0.563,0.109c0.003,0,0.006,0,0.009,0.001c0.001,0,0.001,0.001,0.002,0.001l0.568,0.078  c0.004,0,0.007,0,0.01,0c0.001,0,0.001,0,0.001,0l0.572,0.047c0.006,0,0.012,0.001,0.017,0.001c0,0,0,0,0.001,0l0.566,0.016  c0.002,0,0.004,0,0.006,0h3.232v0.287h-8.28H51.891z M53.698,37.836v-0.051h8.28h0.415h0.416h0.416h0.216v0.051H53.698z   M18.075,38.838l37.471-0.008v0.281H19.564h-1.489V38.838z M18.075,39.511h1.289v0.948h-1.289V39.511z M18.075,45.754v-4.445v-0.196  h1.259c0.012,0.013,0.029,0.015,0.044,0.024c0.013,0.008,0.019,0.024,0.033,0.03c0.022,0.008,0.045,0.012,0.067,0.012h21.594v4.015  v1.114H18.075V45.754z M16.973,37.585h0.702v0.847h-0.702V37.585z M16.973,40.429v-1.597h0.702v0.479v1.118H16.973z M3.738,41.509  h13.937v4.044H3.738V41.509z"/></svg>